<?xml version="1.0" encoding="UTF-8"?>
<svg id="_Слой_2" data-name="Слой 2" xmlns="http://www.w3.org/2000/svg" viewBox="0 0 468.24 468.24">
  <defs>
    <style>
      .cls-1 {
        fill: #0a598e;
      }

      .cls-2, .cls-3 {
        fill: #fff;
      }

      .cls-3 {
        fill-rule: evenodd;
      }

      .cls-4 {
        fill: #fafcfe;
      }

      .cls-5 {
        fill: #f8b333;
      }
    </style>
  </defs>
  <g id="_Слой_2-2" data-name=" Слой 2">
    <g id="_Слой_2-2" data-name=" Слой 2-2">
      <g>
        <circle class="cls-2" cx="234.12" cy="234.12" r="234.12"/>
        <path class="cls-1" d="M458.39,228.68c0-1.39-.03-2.82-.11-4.21-.14-2.54-.28-5.07-.5-7.64-.22-2.79-.45-5.58-.75-8.36-.39-3.29-.89-6.55-1.37-9.81-.81-5.49-1.9-10.96-3.18-16.34-1.84-7.81-4.07-15.47-6.72-23.06-1.7-4.88-3.57-9.67-5.6-14.41-2.54-5.88-5.3-11.65-8.34-17.31-4.15-7.72-8.7-15.2-13.72-22.42-3.79-5.46-7.86-10.73-12.13-15.86-3.71-4.46-7.61-8.75-11.65-12.94-2.68-2.76-5.46-5.44-8.28-8.06-4.74-4.38-9.65-8.56-14.75-12.55-4.52-3.51-9.14-6.86-13.88-10.01-4.43-2.93-8.95-5.69-13.58-8.31-5.58-3.15-11.29-6.05-17.12-8.73s-11.77-5.05-17.82-7.19c-6.89-2.43-13.88-4.57-20.97-6.3-6.36-1.56-12.8-2.87-19.27-3.85-4.74-.72-9.51-1.37-14.3-1.76-1.53-.11-3.09-.28-4.63-.39-2.43-.17-4.88-.33-7.33-.39-5.55-.2-11.1-.17-16.67-.03-.39,0-.81-.03-1.2,.03-2.34,.14-4.68,.33-7.03,.47-3.15,.2-6.27,.53-9.4,.89-3.54,.42-7.05,.92-10.54,1.48-4.93,.81-9.84,1.78-14.72,2.93-7.36,1.73-14.61,3.85-21.75,6.33-4.96,1.73-9.87,3.6-14.69,5.66-5.46,2.34-10.85,4.91-16.12,7.7-6.25,3.29-12.32,6.86-18.23,10.73-6.8,4.43-13.33,9.26-19.6,14.39-4.96,4.07-9.73,8.34-14.33,12.8-2.62,2.54-5.16,5.19-7.67,7.83-2.87,3.07-5.66,6.22-8.34,9.45-6.05,7.28-11.65,14.92-16.76,22.89-6.61,10.32-12.3,21.11-17.17,32.34-3.15,7.28-5.88,14.69-8.22,22.25-2.12,6.83-3.9,13.77-5.35,20.77-1.37,6.58-2.43,13.19-3.21,19.85-.39,3.43-.72,6.86-.95,10.32-.28,3.96-.56,7.89-.53,11.82,0,5.21-.14,10.43,.22,15.61,.2,2.54,.22,5.1,.45,7.64,.36,4.13,.84,8.25,1.37,12.38,.72,5.46,1.67,10.87,2.84,16.25,2.01,9.4,4.6,18.65,7.81,27.71,2.76,7.83,5.94,15.5,9.54,23,2.4,4.96,4.99,9.81,7.72,14.58,5.94,10.32,12.63,20.07,20.1,29.33,4.18,5.19,8.59,10.18,13.22,14.94,2.79,2.87,5.63,5.69,8.59,8.42,3.6,3.35,7.28,6.58,11.07,9.67,7.64,6.25,15.67,11.96,24.09,17.15,7.58,4.68,15.45,8.89,23.53,12.63,9.51,4.41,19.27,8.09,29.3,11.1,7.67,2.31,15.45,4.18,23.34,5.63,4.38,.81,8.78,1.48,13.19,2.06,5.35,.7,10.73,1.09,16.12,1.45,2.2,.14,4.41,.17,6.61,.2,1.64,.03,3.32,0,5.41,0,2.15-.06,4.74,0,7.36-.08,2.65-.08,5.3-.22,7.95-.39,4.43-.31,8.87-.75,13.27-1.34,6.61-.86,13.16-2.01,19.66-3.43,8.42-1.87,16.67-4.21,24.81-7.05,10.46-3.68,20.6-8.06,30.39-13.22,6.78-3.57,13.36-7.47,19.74-11.71,6.61-4.38,12.94-9.12,19.04-14.14,4.21-3.49,8.28-7.11,12.21-10.87,3.76-3.6,7.39-7.33,10.87-11.21,3.68-4.1,7.25-8.28,10.65-12.63,3.15-4.01,6.16-8.17,9.03-12.38,2.9-4.27,5.66-8.62,8.25-13.08,2.76-4.71,5.33-9.51,7.72-14.41,2.45-5.05,4.74-10.15,6.83-15.36,4.15-10.37,7.53-21.02,10.12-31.9,1.28-5.35,2.34-10.76,3.21-16.2,.59-3.71,1.12-7.42,1.51-11.15,.42-4.07,.81-8.17,1-12.27,.14-3.01,.33-5.99,.33-9.01v-8.92Zm-2.22,6.13c-.11,3.76-.2,7.5-.36,11.26-.11,2.54-.33,5.07-.56,7.64-.39,4.49-.92,8.95-1.56,13.41-.78,5.19-1.73,10.37-2.84,15.5-1.34,6.08-2.93,12.04-4.74,17.98-1.56,5.07-3.32,10.07-5.24,15.03-2.04,5.21-4.27,10.37-6.69,15.42-2.12,4.43-4.38,8.78-6.8,13.05-2.84,5.07-5.91,10.01-9.14,14.83-5.91,8.84-12.46,17.17-19.54,25.09-1.9,2.12-3.9,4.18-5.88,6.22-6.47,6.69-13.36,12.94-20.66,18.76-4.29,3.43-8.73,6.69-13.3,9.81-4.6,3.15-9.28,6.11-14.11,8.89-2.51,1.45-5.07,2.84-7.61,4.21-5.69,3.04-11.54,5.77-17.51,8.28-10.9,4.6-22.11,8.25-33.6,11.04-6.41,1.56-12.91,2.82-19.43,3.76-4.29,.61-8.62,1.14-12.96,1.51-2.9,.25-5.77,.42-8.67,.59-3.4,.2-6.8,.28-10.2,.28-2.79-.03-5.6,.08-8.39-.14-1.53-.14-3.09-.08-4.66-.2-3.43-.25-6.89-.47-10.32-.84-3.62-.39-7.25-.81-10.85-1.37-3.76-.59-7.5-1.28-11.24-2.01-5.3-1.06-10.54-2.37-15.72-3.85-7.14-2.04-14.14-4.43-21.02-7.17-4.88-1.92-9.67-4.07-14.41-6.36-6.13-2.96-12.13-6.19-17.96-9.7-7.56-4.54-14.83-9.54-21.78-14.94-5.02-3.9-9.87-8-14.53-12.32-3.21-2.96-6.33-5.99-9.34-9.14-5.16-5.38-10.07-11.01-14.67-16.87-3.35-4.27-6.52-8.62-9.56-13.1-4.07-6.05-7.89-12.3-11.35-18.74-2.65-4.91-5.1-9.87-7.39-14.94-2.34-5.27-4.49-10.59-6.41-16.03-2.76-7.75-5.1-15.61-7-23.59-1.31-5.49-2.4-11.04-3.26-16.64-.75-4.93-1.39-9.9-1.84-14.89-.28-3.29-.47-6.58-.67-9.87-.2-3.51-.2-7-.22-10.51,.03-2.96,.03-5.91,.14-8.87,.11-2.84,.33-5.69,.53-8.53,.36-5.19,.98-10.34,1.73-15.5,.95-6.5,2.17-12.94,3.68-19.29,1.12-4.77,2.43-9.51,3.9-14.19,1.78-5.74,3.79-11.4,6.02-16.98,4.27-10.65,9.34-20.91,15.22-30.78,7.28-12.27,15.67-23.7,25.12-34.38,3.88-4.38,7.97-8.59,12.18-12.66,5.55-5.35,11.38-10.4,17.45-15.14,9.56-7.42,19.6-14.08,30.22-19.82,7.22-3.93,14.61-7.44,22.22-10.54,8.87-3.62,17.93-6.64,27.16-9.09,5.8-1.53,11.68-2.82,17.59-3.88,3.65-.64,7.3-1.2,10.99-1.67,3.57-.45,7.17-.81,10.73-1.09,4.6-.33,9.17-.61,13.77-.59,.95,0,1.9-.17,2.84-.14,4.46,.14,8.89,.17,13.36,.45,4.04,.25,8.09,.59,12.1,1.03,4.13,.45,8.22,1.03,12.32,1.76,6.08,1.03,12.1,2.31,18.04,3.85,12.77,3.29,25.18,7.67,37.14,13.19,9.56,4.41,18.76,9.48,27.6,15.2,7.95,5.16,15.56,10.79,22.78,16.9,4.15,3.51,8.17,7.22,12.1,11.01,6.61,6.44,12.74,13.3,18.49,20.49,3.51,4.38,6.83,8.89,9.95,13.55,5.19,7.67,9.93,15.64,14.14,23.89,3.99,7.81,7.5,15.81,10.57,24.03,2.7,7.28,5.02,14.69,6.91,22.19,1.53,6.05,2.84,12.18,3.85,18.37,.67,4.21,1.28,8.42,1.73,12.63,.36,3.29,.64,6.58,.86,9.87,.25,3.49,.36,7,.39,10.51,.03,1.56,.22,3.21,.17,4.85v.03Z"/>
        <path class="cls-1" d="M423.88,124.74c-19.54-33.85-46.31-60.67-80.1-80.3-33.9-19.68-70.54-29.33-102.55-29.47-27.41,0-47.26,2.7-66.75,8.2-17.31,4.88-33.79,11.82-49.41,20.8-16.31,9.4-31.17,20.69-44.58,33.9-14.3,14.11-26.49,29.86-36.5,47.29-9.79,17.04-17.09,35.07-22.03,54.06-4.57,17.68-6.91,35.66-6.91,53.89,0,40.68,10.2,78.6,31.2,113.5,19.6,32.59,45.95,58.44,78.9,77.4,33.43,19.24,69.54,28.86,108.04,29,39.28,.17,76.09-9.51,110.1-29.19,34.07-19.68,61-46.67,80.66-80.77,19.1-33.12,28.72-68.92,29.05-107.15,.36-39.65-9.31-76.78-29.14-111.16h.02Zm-2.9,50.58c.28-.08,.56-.14,.84-.22,.14-.03,.28-.06,.42-.08,.5-.08,1-.14,1.51-.17h.5c.2,0,.36,0,.56,.03h.03c.11,0,.25,.03,.36,.03s.22,.03,.33,.03c.17,.03,.31,.03,.47,.06,.17,.03,.31,.06,.47,.08,.14,.03,.28,.06,.45,.08,.03,0,.08,0,.11,.03,.17,.03,.33,.08,.47,.14,.08,.03,.17,.06,.25,.08s.17,.06,.25,.08c.03,0,.06,0,.08,.03,.14,.06,.28,.11,.42,.17s.25,.11,.39,.17c.2,.08,.36,.17,.53,.28,.08,.06,.2,.08,.28,.14,.14,.08,.28,.17,.45,.25,.03,.03,.08,.06,.11,.08,.08,.06,.17,.11,.25,.17,.17,.11,.33,.22,.5,.36,.06,.03,.08,.06,.14,.11,.08,.06,.14,.11,.22,.17,.14,.11,.25,.22,.39,.33s.25,.22,.39,.36c.22,.22,.42,.45,.61,.67,.08,.11,.2,.22,.28,.33,.06,.08,.14,.17,.2,.25,.06,.06,.11,.14,.17,.2,.08,.11,.14,.2,.22,.31,.08,.14,.17,.25,.25,.39,.06,.11,.14,.2,.2,.31v.03c.06,.08,.11,.2,.14,.28,.06,.11,.11,.2,.17,.31s.11,.22,.14,.33c.25,.59,.47,1.17,.61,1.81,.2,.72,.36,1.48,.53,2.2,.06,.33,.11,.64,.14,.98,.03,.11,.03,.22,.03,.31,.03,.11,.03,.22,.03,.36v.11c.03,.25,.03,.5,0,.75-.08,3.23-1.39,5.88-3.76,8.14-1.14-1.09-3.54-3.93-4.24-5.02,.2-.28,.45-.59,.67-.89,.7-1,.95-2.12,.7-3.29-.17-.89-.36-1.76-.7-2.59h0c-.08-.22-.2-.45-.31-.64-.06-.11-.14-.22-.2-.31s-.08-.14-.14-.2c-.03-.03-.06-.08-.08-.11-.06-.06-.11-.11-.14-.17l-.03-.03c-.08-.08-.14-.17-.22-.22-.17-.14-.33-.28-.53-.42-.08-.06-.2-.11-.28-.17-.11-.06-.2-.11-.31-.14-.2-.08-.42-.17-.64-.22-.22-.06-.45-.11-.67-.14-.39-.06-.81-.06-1.23-.03-.11,0-.22,.03-.33,.06-.08,0-.17,.03-.25,.06h-.03c-.06,0-.08,.03-.14,.03-.28,.08-.56,.2-.81,.33-.08,.03-.17,.08-.25,.14-.06,.03-.08,.06-.14,.08-.08,.06-.17,.11-.25,.2-.2,.14-.33,.28-.5,.45-.33,.33-.59,.72-.81,1.14-.06,.11-.11,.22-.14,.33-.03,.11-.08,.2-.11,.31-.03,.06-.03,.08-.03,.14,0,.03-.03,.03-.03,.06-.03,.06-.03,.14-.06,.2-.11,.47-.17,.98-.22,1.48-.11,1.06-.25,2.12-.36,3.21-.11,1.06-.25,2.15-.36,3.21-.03,.14-.03,.31-.06,.45-.03,.25-.08,.5-.14,.72-.03,.06-.03,.11-.03,.2-.03,.14-.06,.25-.08,.39s-.06,.25-.08,.36c-.08,.22-.14,.47-.22,.7-.03,.08-.06,.17-.08,.22-.03,.08-.06,.17-.08,.22-.03,.08-.06,.14-.08,.22-.06,.14-.11,.25-.17,.39-.08,.17-.17,.33-.25,.47v.03c-.06,.08-.08,.17-.14,.25-.11,.2-.22,.39-.33,.56-.06,.08-.11,.17-.17,.22-.03,.06-.08,.11-.11,.17-.08,.11-.2,.25-.28,.36-.06,.08-.11,.14-.17,.22s-.11,.14-.17,.22c-1.64,1.87-3.68,3.09-6.08,3.62-.45,.08-.89,.17-1.34,.22-.22,.03-.45,.03-.64,.06-.2,.03-.42,.03-.61,.03h-.53c-.17,0-.33-.03-.5-.03s-.33-.03-.5-.06-.33-.06-.47-.08c-.17-.03-.31-.06-.45-.08h-.03c-.14-.03-.31-.08-.45-.11-.33-.08-.64-.2-.98-.33-.14-.06-.28-.11-.42-.17-.31-.14-.61-.28-.89-.45-.22-.14-.45-.25-.67-.39-.14-.08-.25-.17-.39-.25-.03,0-.03-.03-.06-.03-.14-.08-.28-.2-.45-.31l-.08-.08c-.17-.14-.33-.25-.5-.39-.2-.14-.36-.31-.53-.47s-.33-.33-.47-.5c-.31-.33-.59-.7-.84-1.09-.14-.2-.25-.39-.36-.59s-.22-.39-.33-.61c-.2-.42-.39-.84-.53-1.28-.67-1.95-1.17-3.93-1.06-6.02,0-.22,.03-.42,.06-.64v-.03c0-.06,0-.11,.03-.17v-.08c.03-.14,.03-.25,.06-.39,0-.03,0-.06,.03-.08,0-.08,.03-.17,.03-.22h0v-.03c.03-.14,.06-.28,.08-.42,.03-.08,.03-.17,.06-.22,.08-.39,.2-.78,.33-1.17,.03-.08,.06-.17,.08-.22,.01-.03,.02-.05,.03-.06,.03-.08,.06-.17,.11-.25,0-.03,.03-.06,.03-.08,.03-.08,.08-.17,.11-.25h0s0-.03,.03-.03c.03-.11,.08-.22,.14-.31,0,0,0-.03,.03-.03,.03-.06,.06-.11,.08-.14,.06-.08,.08-.2,.14-.28,.03-.03,.03-.08,.06-.11h0c.03-.08,.08-.14,.14-.22s.11-.2,.2-.28c0,0,0-.03,.03-.03,.06-.08,.11-.17,.2-.25,.03-.03,.03-.06,.06-.08,.06-.08,.14-.17,.2-.25,.03-.06,.08-.08,.11-.14,.11-.14,.22-.28,.36-.42,.03-.03,.06-.06,.08-.08,.08-.11,.2-.22,.31-.31,.03-.03,.08-.08,.11-.11l.06-.06s.06-.06,.08-.08c.14-.11,.25-.22,.39-.33,.17-.14,.33-.28,.5-.39,.06-.03,.08-.08,.14-.11,.11-.08,.22-.17,.33-.22,.11-.08,.22-.14,.33-.22,.17-.11,.31-.2,.5-.31h0c.17-.08,.36-.17,.53-.25,.06-.03,.08-.03,.14-.03,.14,0,.28,.08,.36,.22s.14,.25,.22,.39c.67,1.51,1.34,3.01,1.98,4.54,.06,.14,.08,.22,.14,.31,.06,.11,.06,.2,.03,.28,0,.03-.03,.06-.03,.08s-.03,.06-.06,.08c-.03,.03-.08,.08-.11,.11h0c-.06,.03-.11,.08-.2,.14-.17,.14-.33,.25-.5,.39-.14,.14-.28,.25-.39,.39-.08,.08-.14,.17-.22,.25-.03,.03-.03,.06-.06,.08-.06,.08-.11,.17-.17,.25s-.08,.17-.14,.22c-.06,.08-.11,.2-.14,.28-.03,.08-.08,.2-.14,.28s-.08,.2-.11,.28-.06,.2-.08,.28c-.06,.22-.08,.45-.08,.7v.61c0,.08,0,.14,.03,.2,0,.11,.03,.22,.03,.36,0,.08,.03,.2,.03,.28s.03,.14,.03,.22c.03,.11,.06,.25,.08,.36s.06,.25,.08,.36,.06,.25,.11,.36,.08,.25,.11,.36c.06,.17,.11,.33,.2,.5,.06,.14,.11,.28,.17,.39,.14,.31,.31,.59,.47,.84,.11,.17,.22,.31,.36,.45,.06,.06,.11,.11,.17,.17,.11,.11,.22,.2,.33,.28s.25,.17,.36,.25c.11,.06,.2,.11,.31,.17,.06,.03,.14,.06,.2,.08,.22,.08,.45,.17,.67,.22,.08,.03,.2,.06,.28,.06,.03,0,.06,0,.11,.03,.11,.03,.25,.03,.36,.06,.25,.03,.53,.03,.81,0,.08,0,.2-.03,.28-.03h.03c.06,0,.11-.03,.17-.03,.08,0,.14-.03,.22-.03,.06,0,.11-.03,.17-.03,.2-.06,.39-.11,.56-.17,.11-.04,.13-.05,.06-.03,.11-.06,.25-.11,.36-.17,.08-.06,.2-.08,.28-.14s.17-.08,.22-.14c0,0,.03,0,.03-.03h0s.08-.06,.11-.08c.06-.03,.11-.08,.17-.14,.03-.03,.08-.06,.11-.08,.17-.14,.31-.28,.45-.42,.06-.06,.08-.11,.14-.17,.11-.14,.2-.25,.28-.42,.06-.08,.08-.17,.14-.22,.11-.2,.2-.39,.25-.59,.03-.03,.03-.08,.03-.11,.03-.14,.08-.25,.11-.39,.28-1.17,.36-2.37,.5-3.54,.22-1.78,.39-3.57,.64-5.35,.03-.14,.03-.28,.08-.42,.06-.25,.11-.5,.17-.75,.03-.11,.06-.22,.08-.33,.03-.08,.06-.17,.08-.25s.06-.14,.08-.2c.03-.08,.06-.2,.11-.28,.03-.11,.08-.2,.11-.31s.08-.2,.14-.31c.11-.25,.25-.5,.39-.75,.08-.17,.2-.31,.28-.47,.03-.08,.08-.14,.14-.2,.08-.14,.2-.31,.31-.45,.08-.11,.14-.2,.22-.31s.17-.22,.28-.33c.2-.22,.39-.42,.59-.64,.2-.2,.42-.39,.61-.59,.17-.14,.31-.28,.47-.39,.11-.08,.22-.2,.36-.28,.08-.06,.17-.14,.25-.2,.11-.08,.2-.14,.31-.2,.11-.08,.22-.14,.33-.2,.25-.14,.5-.28,.75-.39,.25-.14,.5-.25,.78-.33,.14-.42,.42-.5,.7-.59v.02Zm-11.47-50.83c.36-.2,.56-.31,.72-.25,.06,0,.08,.03,.14,.08,.03,.03,.08,.08,.14,.17,.08,.11,.14,.25,.25,.42,.53,1,1.06,1.98,1.59,2.98,.53,1,1.06,1.98,1.59,2.98,.33,.64,.67,1.25,1,1.9s.67,1.25,1,1.9c.67,1.25,1.34,2.51,2.01,3.76,.2,.36,.39,.75,.56,1.12,.11,.25,.22,.5,.33,.78,.06,.17,.14,.36,.2,.53l.08,.28c.08,.28,.17,.53,.22,.81,.06,.2,.08,.36,.11,.56,.03,.08,.03,.14,.03,.2,.03,.14,.06,.28,.06,.42,.03,.17,.06,.36,.06,.53,.03,.17,.03,.36,.03,.53,.03,.42,.03,.86,0,1.28-.03,.25-.03,.5-.06,.75-.03,.14-.03,.25-.06,.36-.03,.14-.03,.25-.06,.39-.06,.33-.14,.64-.22,.98-.06,.2-.11,.36-.17,.53-.06,.17-.11,.33-.2,.53-.08,.2-.17,.42-.25,.61-.06,.08-.08,.2-.14,.28-.03,.08-.08,.2-.14,.28-.03,.06-.06,.11-.08,.17-.06,.11-.11,.22-.2,.31-.14,.28-.33,.53-.5,.78-.06,.08-.11,.17-.2,.25-.06,.08-.14,.17-.2,.25s-.14,.17-.2,.25c-.14,.17-.28,.33-.42,.47-2.09,2.26-4.68,3.54-7.78,3.74-3.37,.22-6.3-.81-8.78-3.09-.2-.2-.42-.39-.64-.61-.06-.06-.08-.08-.14-.14-.11-.11-.22-.22-.33-.33-3.21,6.08-6.33,12.02-9.48,18.01-.2-.28-.33-.39-.45-.56-1-1.9-2.01-3.79-3.04-5.69-.25-.5-.22-.89,.06-1.39,2.4-4.52,4.77-9.03,7.14-13.55,.42-.81,.84-1.59,1.25-2.4,.14-.28,.28-.53,.42-.81,.03-.06,.06-.14,.08-.2v-.03s.03-.06,.03-.08,.03-.08,.03-.11c.03-.2,0-.36-.11-.56-.67-1.28-1.34-2.57-2.01-3.85-.56-.06-.92,.25-1.28,.45-3.18,1.67-6.38,3.35-9.56,5.05-1.31,.7-2.65,1.37-4.07,2.12-.98-1.87-1.9-3.62-2.82-5.38-.14-.28-.03-.5,.2-.61,1-.56,2.04-1.09,3.04-1.64,4.82-2.54,9.65-5.1,14.47-7.64,4.57-2.4,9.12-4.8,13.69-7.19,1-.56,2.01-1.09,3.04-1.64l.02-.04Zm-40.76-30.56c3.07-2.82,6.11-5.6,9.17-8.42,2.04-1.88,2.06-1.89,.06-.03,.06-.06,.11-.11,.2-.14,.08-.06,.2-.14,.31-.22,5.6,6.11,11.15,12.18,16.73,18.26-.56,.92-1.45,1.45-2.15,2.15s-1.48,1.34-2.23,2.01c-.06,.06-.14,.11-.2,.14-.03,.03-.06,.03-.08,.03-.17,.06-.33-.03-.47-.2h0c-.14-.14-.25-.25-.36-.39l-.25-.25c-1.81-2.01-3.65-3.99-5.49-5.99-.86-.95-1.76-1.92-2.62-2.87-.98-1.06-1.95-2.15-2.96-3.21-.08-.11-.22-.17-.42-.33-2.45,2.2-4.88,4.43-7.3,6.69,.5,1.03,1.39,1.73,2.12,2.54,2.59,2.87,5.21,5.69,7.81,8.5,.06,.06,.08,.08,.14,.14,.03,.03,.06,.08,.08,.11,0,.03,.03,.03,.03,.06h0l.03,.03h0l.03,.03v.03c0,.08,0,.14-.06,.22-.03,.03-.06,.08-.08,.11s-.08,.08-.11,.14c-.03,.03-.06,.06-.08,.08-.56,.53-1.14,1.06-1.73,1.59-.47,.45-.95,.86-1.42,1.28-.11,.08-.2,.2-.31,.28-.25,.22-.5,.45-.72,.67-.14-.03-.25-.06-.33-.08-.06-.03-.08-.06-.14-.08-.03-.03-.08-.06-.11-.08s-.08-.06-.11-.11c-.06-.06-.11-.11-.14-.17-.06-.06-.08-.11-.14-.17-3.04-3.32-6.08-6.64-9.12-9.98-.17-.17-.36-.33-.61-.56-.89,.81-1.76,1.62-2.62,2.4-.59,.53-1.14,1.06-1.7,1.56-.86,.78-1.7,1.56-2.54,2.31-.03,.03-.06,.06-.08,.08s-.06,.06-.08,.08-.06,.06-.06,.08c-.03,.06-.06,.08-.08,.14-.03,.03-.03,.08-.06,.11-.03,.08,0,.17,.03,.25,.03,.03,.03,.06,.06,.11,.03,.03,.06,.08,.08,.11,.03,.06,.08,.11,.14,.17,2.59,2.84,5.21,5.66,7.81,8.5,1.23,1.34,2.43,2.65,3.65,3.99,.36,.39,.33,.5-.03,.86-.03,.03-.08,.08-.11,.11-1.42,1.25-2.82,2.54-4.24,3.79-1.48-1.12-2.57-2.62-3.82-3.96-2.76-2.96-5.49-5.97-8.22-8.95-1.59-1.73-3.18-3.46-4.77-5.19,.14-.56,.59-.81,.95-1.14,2.84-2.62,5.72-5.24,8.59-7.86,.64-.59,1.28-1.17,1.92-1.76,2.73-2.54,5.49-5.07,8.25-7.61h-.04Zm-38.31-43.07c.03-.2,.14-.36,.2-.53h.14c.06,0,.08,0,.14,.03,.06,0,.08,.03,.14,.03,.06,.03,.11,.06,.14,.08,.06,.03,.08,.06,.14,.08,.03,.03,.06,.03,.06,.06,1.14,.72,2.29,1.45,3.43,2.17,.39,.25,.75,.47,1.14,.72,.11,.06,.2,.14,.28,.2,.03,.03,.06,.06,.08,.08s.03,.03,.06,.06c.03,.03,.06,.06,.08,.11,.03,.06,.06,.08,.08,.14,0,.03,.03,.06,.03,.08,.06,.17,.06,.33,0,.59-.42,2.37-.81,4.74-1.2,7.11-.75,4.49-1.53,8.98-2.29,13.47-.17,.92-.42,1.87-.39,2.82,.06,.06,.08,.08,.14,.14,.39,.03,.64-.25,.92-.45,5.99-4.18,11.96-8.39,17.96-12.57,.45-.31,.89-.61,1.34-.89,1.7,.89,4.99,3.01,5.86,3.76-.03,.03-.06,.08-.08,.14-.06,.08-.11,.14-.17,.2-11.63,8.17-23.25,16.31-34.82,24.42-.17-.06-.22-.06-.25-.08h0s-.03-.03-.03-.06v-.08c2.2-14,4.54-27.91,6.89-41.82h-.02Zm-41.91,24.66l2.59-7.19c3.37-9.26,6.72-18.51,10.09-27.77,.22-.64,.25-1.53,.86-1.84s1.31,.31,1.95,.53c.56,.2,1.12,.39,1.7,.61,.56,.22,1.12,.42,1.7,.61,.7,.25,.67,.5,.5,.98-.28,.81-.56,1.59-.86,2.4-4.01,10.99-8,21.97-11.99,32.98-.17,.42-.33,.84-.53,1.23-.06,.14-.2,.22-.5,.2,0,0-.06,0-.11-.03-.06-.03-.14-.03-.2-.06-1.59-.59-3.21-1.17-4.8-1.76-.56-.2-.64-.33-.42-.89h.02Zm-46.48-9.59c.39-2.76,.81-5.55,1.2-8.31,.64-4.52,1.28-9.01,1.95-13.52,.33-2.29,.67-4.6,1-6.91s.67-4.6,1-6.91c.03-.25,.08-.5,.11-.75,.08-.64,.2-1.31,.28-2.01,.03-.14,.03-.28,.06-.42h0l.17,.08c.06,.03,.08,.06,.14,.08s.08,.06,.14,.11c.31,.28,.47,.59,.7,.86,3.01,3.93,6.02,7.89,9.03,11.82,3.43,4.49,6.89,8.98,10.32,13.47,.14,.2,.28,.42,.47,.59,.03,.06,.11,.11,.17,.14s.14,.06,.2,.06c.2,0,.2-.2,.22-.33,.22-1.48,.42-2.96,.64-4.46,.56-3.96,1.14-7.92,1.7-11.88,.25-1.78,.5-3.57,.75-5.35,.06-.45,.14-.89,.22-1.34,0-.06,.03-.08,.03-.14,.03-.11,.11-.2,.2-.25l.03-.03s.03-.03,.06-.03h.36c1.78,.25,3.57,.53,5.35,.78,.06,0,.11,.03,.17,.06,.03,0,.06,.03,.06,.03,.03,.03,.06,.03,.08,.08,.01,.03,.03,.05,.06,.06,.04,.01,.03,.06,.03,.08s.03,.06,.03,.08,.03,.08,.03,.14v.14c-.17,1.28-.33,2.59-.5,3.88-.67,4.71-1.34,9.42-2.04,14.11-.64,4.52-1.31,9.01-1.98,13.52-.36,2.43-.7,4.85-1.03,7.28-.11,.03-.22,.03-.28,.03-.04,0-.06-.01-.06-.03,0-.03-.03,0-.03-.03-.03,0-.03-.03-.06-.03-.14-.08-.22-.25-.31-.39-.03-.03-.03-.06-.06-.08-.61-.78-1.2-1.56-1.81-2.34s-1.2-1.56-1.81-2.34c-1.2-1.56-2.4-3.15-3.6-4.71-4.21-5.49-8.39-10.99-12.6-16.48-.14-.2-.31-.39-.47-.59-.03-.03-.11-.06-.17-.06-.03,0-.08,0-.11,.03h0c-.08,.03-.14,.14-.17,.2,0,.03-.03,.03-.03,.06v.08h0c-.61,4.35-1.23,8.73-1.87,13.08-.22,1.62-.47,3.21-.7,4.82-.25,1.62-.47,3.21-.72,4.82-.03,.11-.03,.22-.06,.31-.03,.08-.03,.14-.08,.2-.03,.04-.05,.06-.06,.06,0,0-.03,.03-.06,.03-.11,.06-.28,.03-.53,0-1.73-.22-3.49-.45-5.21-.7-.08,0-.14-.03-.22-.06-.03,0-.06-.03-.06-.03-.03,0-.06-.03-.06-.03-.03,0-.03-.03-.06-.06s-.06-.06-.06-.08-.03-.03-.03-.06-.03-.06-.03-.08c-.03-.06-.03-.11-.03-.2-.03-.03-.03-.08-.03-.14h.03Zm-49.71-34.94s.03-.08,.06-.11c0-.03,.03-.03,.03-.03,0-.03,.03-.03,.03-.03,0-.03,.03-.03,.03-.03,.03-.03,.06-.03,.08-.06,.06-.03,.11-.03,.17-.06,.03,0,.08-.03,.11-.03,1.73-.22,3.49-.45,5.21-.67,.56-.06,.7,.08,.78,.64,.22,1.64,.45,3.26,.64,4.91,.45,3.43,.89,6.83,1.34,10.26,.08,.7,.2,1.42,.28,2.12,.28,2.12,.56,4.24,.84,6.36,.03,.11,.03,.25,.06,.36s.03,.25,.06,.36c.03,.22,.08,.42,.14,.61s.08,.39,.14,.56c.03,.08,.06,.17,.08,.28s.08,.2,.11,.31c.06,.17,.14,.36,.22,.53,.06,.14,.14,.28,.2,.42,.06,.11,.11,.2,.17,.31,.06,.08,.11,.17,.14,.25,.08,.14,.2,.31,.31,.45,.06,.08,.11,.14,.17,.22,.08,.14,.2,.25,.31,.36,.06,.08,.14,.17,.22,.22,0,.03,.03,.03,.03,.03,.06,.06,.14,.14,.2,.2s.14,.14,.2,.2c.03,.03,.08,.06,.11,.11,.2,.17,.39,.33,.61,.5,.17,.11,.31,.22,.47,.31,.17,.11,.33,.2,.5,.28h0l.67,.33c.2,.08,.42,.17,.61,.22,.08,.03,.14,.06,.2,.06,.08,.03,.14,.06,.22,.06,.08,.03,.14,.03,.22,.06h.03c.08,.03,.2,.06,.28,.06,.17,.03,.36,.06,.53,.08,.08,0,.2,.03,.28,.03s.2,.03,.28,.03c.45,.03,.89,.03,1.34-.03,.06,0,.11,0,.2-.03,.2-.03,.42-.06,.61-.08,.11-.03,.22-.06,.33-.08,.06,0,.11-.03,.17-.06,.08-.03,.17-.06,.25-.08s.17-.06,.25-.08c.33-.11,.67-.25,.98-.39,.03-.03,.08-.03,.14-.06,.17-.08,.31-.17,.47-.25,.08-.06,.2-.11,.28-.17,.11-.08,.22-.14,.33-.22,.33-.22,.64-.5,.92-.78,.11-.11,.2-.2,.31-.31h0c.17-.2,.33-.39,.5-.61,.08-.11,.17-.2,.22-.31,.08-.11,.17-.25,.25-.36s.14-.25,.22-.36c.03-.08,.08-.14,.11-.2,.02-.04,.03-.06,.03-.06,.03-.06,.06-.08,.06-.14,.08-.2,.17-.36,.25-.56,.03-.11,.08-.2,.11-.31s.08-.22,.11-.33,.06-.22,.08-.33c.06-.17,.08-.33,.11-.47,.03-.06,.03-.11,.03-.17,.03-.17,.06-.33,.08-.53,0-.08,.03-.14,.03-.22,.03-.28,.03-.56,.03-.81-.11-1-.22-1.98-.36-2.98-.33-2.59-.7-5.21-1.03-7.81-.31-2.31-.61-4.6-.92-6.89-.31-2.34-.61-4.66-.92-7-.03-.14-.03-.31-.03-.45s-.03-.31-.03-.45c0-.06,0-.14,.03-.2,0-.03,.03-.06,.03-.06h0s.03-.06,.06-.08c.03-.03,.06-.03,.08-.06,.03-.03,.08-.03,.11-.03,.11-.03,.2-.03,.31-.06,.11-.03,.2-.03,.31-.06,1.64-.22,3.26-.47,4.91-.67,.42-.06,.64,.14,.7,.59,.33,2.48,.64,4.96,.98,7.44,.45,3.43,.89,6.83,1.34,10.26,.33,2.54,.72,5.05,.95,7.58,.36,4.04-.86,7.64-3.46,10.71-.53,.64-1.12,1.23-1.73,1.76-.31,.25-.61,.5-.95,.75-.25,.17-.5,.33-.75,.5-.11,.08-.25,.17-.39,.22-.17,.11-.33,.2-.5,.28-.08,.03-.14,.08-.22,.11-.17,.08-.31,.17-.47,.22-.03,.03-.06,.03-.08,.03-.08,.06-.2,.08-.28,.14-.11,.06-.22,.11-.36,.14l-.67,.25c-.39,.14-.78,.25-1.2,.36-.2,.06-.39,.11-.61,.14-1.42,.31-2.87,.39-4.27,.28-.11,0-.22-.03-.33-.03-.2-.03-.36-.03-.53-.06-.2-.03-.36-.06-.53-.08s-.36-.06-.53-.11c-.17-.03-.36-.08-.53-.14-.11-.03-.2-.06-.31-.08s-.2-.06-.31-.08c-.42-.14-.81-.28-1.2-.42-.11-.03-.2-.08-.31-.11s-.2-.08-.28-.14l-.33-.17-.33-.17c-.22-.11-.45-.22-.67-.36-.25-.14-.5-.31-.75-.47-.08-.06-.17-.11-.25-.17-.2-.14-.39-.28-.56-.42-.11-.08-.22-.17-.33-.25-.08-.06-.14-.11-.22-.17-.25-.22-.53-.45-.78-.7-.11-.11-.25-.22-.36-.36-.14-.14-.25-.25-.36-.39-.06-.03-.08-.08-.11-.14-.17-.17-.31-.36-.45-.56-.06-.08-.11-.14-.17-.22-.11-.14-.22-.31-.33-.45s-.22-.31-.31-.47c-.22-.36-.45-.75-.67-1.12-.42-.78-.75-1.59-1.03-2.45-.08-.22-.14-.45-.2-.67-.06-.22-.11-.45-.17-.67-.06-.22-.08-.47-.14-.7-.06-.28-.08-.53-.14-.81-.03-.28-.08-.56-.11-.81-.06-.33-.08-.67-.14-1.03-.14-1.03-.25-2.04-.39-3.07-.03-.28-.06-.56-.11-.81-.28-2.12-.56-4.27-.84-6.38s-.56-4.27-.84-6.38c-.03-.31-.08-.64-.14-.95-.2-1.37-.36-2.73-.56-4.1-.03-.25-.06-.5-.06-.75-.03-.11-.03-.2,0-.25l-.04,.03Zm42.91,45.98c43.55,.86,80.72,16.73,111.44,47.62,29.75,31.37,44.53,68.67,44.33,111.91-1.17,43.16-17.15,79.93-47.79,110.33-31.03,29.36-67.92,44.05-110.6,44.19-43.38-.98-80.55-16.62-110.99-47.57-28.16-28.61-44.5-67.5-44.47-109.43-.11-86.51,70.09-157.5,158.09-157.05h-.01Zm-124.43-9.98s.03-.06,.06-.08l.08-.08c.08-.06,.17-.14,.28-.2,.11-.08,.22-.14,.39-.25,1.25-.78,2.51-1.59,3.76-2.37,.84-.53,1.67-1.06,2.51-1.59,.86-.53,1.7-1.06,2.57-1.56,.42-.22,.84-.47,1.25-.7,.14-.08,.28-.14,.42-.22s.28-.14,.42-.22,.28-.14,.42-.2c.64-.31,1.28-.56,1.92-.78,.14-.06,.31-.11,.47-.14,.22-.08,.45-.14,.7-.2,.06-.03,.11-.03,.17-.06,.28-.08,.56-.14,.86-.2,.11-.03,.2-.06,.31-.06,.11-.03,.2-.03,.31-.06,.17-.03,.33-.06,.5-.08s.31-.06,.47-.06c.25-.03,.5-.06,.75-.08,.08,0,.2-.03,.28-.03,.14,0,.28-.03,.39-.03,.28,0,.53-.03,.81,0h.61c.61,.03,1.23,.06,1.81,.14h0c.2,.03,.39,.06,.59,.08s.42,.06,.61,.08,.36,.06,.56,.11c.2,.03,.39,.08,.59,.11,.2,.06,.39,.08,.56,.14,.17,.06,.36,.08,.53,.14,.17,.06,.33,.08,.47,.14,.22,.08,.45,.14,.67,.22,.31,.11,.59,.22,.86,.33,.22,.08,.42,.2,.64,.28s.42,.2,.64,.31c.28,.14,.56,.28,.84,.45,.28,.17,.56,.33,.81,.5,.14,.08,.25,.17,.39,.25s.28,.2,.42,.28c.11,.08,.22,.14,.33,.22,.14,.11,.31,.22,.45,.33,.14,.08,.25,.2,.39,.31s.25,.2,.39,.31c.08,.08,.17,.14,.25,.22,.17,.14,.33,.31,.5,.45,3.71,3.54,5.74,7.86,6.25,12.94,.06,.64,0,1.31,0,1.95,0,.31-.03,.61-.03,.89-.03,.22-.03,.47-.06,.7v.11c0,.11-.03,.25-.03,.36h0v.03c0,.06,0,.11-.03,.17,0,.06-.03,.11-.03,.17-.03,.14-.03,.25-.06,.39v.03s0,.08-.03,.11c-.03,.22-.06,.42-.11,.61-.06,.25-.11,.5-.17,.78s-.14,.56-.22,.84-.17,.59-.25,.86c-.08,.25-.17,.5-.28,.75,0,.03-.03,.06-.03,.08-.08,.22-.2,.47-.28,.7-.11,.25-.22,.53-.36,.78-.08,.2-.17,.36-.28,.56-.06,.11-.11,.22-.2,.33-.11,.22-.22,.42-.36,.64-.28,.5-.61,.98-.95,1.48-.17,.25-.33,.47-.53,.72-.17,.22-.36,.47-.56,.7-.17,.2-.33,.39-.5,.59-.17,.17-.31,.33-.47,.5-.08,.08-.17,.17-.25,.22-.11,.14-.25,.25-.36,.36-.14,.14-.31,.28-.47,.42-.08,.06-.14,.14-.22,.2-.31,.25-.61,.5-.95,.72l-.28,.2c-.39,.28-.75,.53-1.14,.78-2.96,1.87-5.94,3.71-8.92,5.58-.22,.14-.42,.25-.64,.36-.08,.03-.2,.03-.28,0-.03,0-.06-.03-.06-.03l-.06-.06c-.08-.11-.17-.25-.25-.36s-.17-.25-.25-.39c-6.64-10.62-13.27-21.22-19.91-31.84-.31-.5-.5-.78-.5-1,.03,0,.06-.06,.08-.11l.02,.03Zm-36.55,34.57c.17-.25,.39-.45,.61-.67,2.65-2.84,5.33-5.72,8-8.56,1.95-2.09,3.9-4.15,5.88-6.22h0c.5-.56,1.03-1.09,1.53-1.64,1-1.03,.89-.75,1.64-.08,1.23,1.09,2.4,2.29,3.62,3.4,.31,.31,.2,.56,0,.78-.78,.86-1.59,1.67-2.37,2.51-2.06,2.2-4.1,4.38-6.13,6.58-.36,.39-.7,.75-1.09,1.14-.33,.36-.7,.72-1.03,1.09l-.03,.03c-.14,.14-.28,.31-.45,.45l-.14,.14c-.17,.17-.36,.36-.5,.56-.03,.06-.08,.11-.11,.17-.08,.11-.14,.22-.2,.36,1.14,1.12,2.29,2.23,3.46,3.32,1.14,1.06,2.29,2.12,3.4,3.18,.28,.25,.5,.25,.75-.03,1.06-1.12,2.15-2.23,3.21-3.37,2.34-2.48,4.66-4.96,7-7.44,.06,.03,.08,.03,.14,.06,.03,.03,.06,.03,.08,.06,.06,.03,.14,.08,.2,.11,.06,.06,.11,.08,.17,.14s.11,.08,.17,.14,.11,.11,.14,.17l.14,.14c.03,.06,.08,.08,.14,.14,.98,.86,1.92,1.76,2.87,2.65,.98,.95,.84,.78,0,1.76-.64,.75-1.37,1.48-2.04,2.2-2.43,2.59-4.88,5.16-7.3,7.75-.11,.11-.17,.25-.28,.39,.06,.14,.08,.31,.2,.39,2.15,2.01,4.32,4.01,6.47,6.05,.08,.06,.14,.14,.22,.2,.06,.06,.14,.11,.2,.14,.14,.06,.25,.06,.39,0,.08-.03,.14-.08,.2-.17,.61-.64,1.25-1.31,1.87-1.95,2.15-2.31,4.29-4.6,6.44-6.91,.5-.56,1.03-1.09,1.53-1.64s1.03-1.09,1.53-1.64l.08-.08,.08-.08c.03-.06,.08-.08,.11-.11l.11-.11c.06-.03,.11-.08,.17-.11s.11-.06,.17-.08,.11-.03,.17-.06c.11,.11,.25,.22,.36,.33l.06,.06c.22,.2,.47,.42,.7,.64,.2,.2,.39,.36,.59,.56,.84,.78,1.67,1.56,2.51,2.37,.06,.03,.08,.08,.11,.11s.06,.06,.06,.08c.03,.03,.03,.06,.03,.06,0,.03,.03,.03,.03,.06s0,.03,.03,.06v.11s0,.06-.03,.06c0,.03-.03,.03-.03,.06s-.03,.06-.03,.08c-.03,.06-.08,.11-.14,.2-.08,.11-.2,.22-.31,.33-.28,.31-.59,.64-.86,.95-.28,.31-.59,.61-.86,.95-3.32,3.54-6.64,7.08-9.95,10.62-1.2,1.28-2.37,2.57-3.6,3.82-1.28,1.31-.89,1.09-2.2,.03-.36-.28-.67-.59-1-.89s-.64-.64-.98-.95c-3.32-3.12-6.61-6.25-9.93-9.37h0c-1.81-1.7-3.6-3.37-5.41-5.07s-3.6-3.37-5.41-5.07c-.72-.67-1.48-1.37-2.2-2.04-.72-.67-1.48-1.37-2.2-2.04-.06-.06-.14-.11-.2-.2-.11-.14-.25-.25-.36-.39-.06-.06-.11-.14-.17-.2-.08-.2-.08-.42-.03-.5v-.07Zm-31.81,53.78c.06-.03,.11-.03,.17-.06,.08-.03,.2-.06,.28-.06,.08-.03,.2-.03,.31-.06,.06,0,.11-.03,.17-.03,.08,0,.14-.03,.2-.03,.28-.03,.56-.06,.81-.06,.25-.03,.47-.03,.72-.06,.14-.03,.28-.03,.42-.06,1.17-.22,2.4-.28,3.57-.39,1.25-.11,2.48-.22,3.74-.36,1.2-.14,2.4-.28,3.57-.42,1.2-.14,2.4-.25,3.57-.36,.59-.06,1.2-.11,1.78-.17s1.2-.11,1.78-.17c.31-.03,.64-.06,.95-.11,.92-.08,1.84-.2,2.76-.28,1.2-.14,2.4-.22,3.57-.39,.14-.03,.28-.03,.45-.06,.2-.03,.36-.03,.56-.06s.39-.03,.61-.03c.2-.03,.42-.03,.61-.06,.14-.03,.31-.03,.45-.06,.28-.06,.59-.11,.86-.2h0c.03-.11,.06-.2,.06-.28,0-.03,0-.08-.03-.11,0-.03,0-.06-.03-.06,0-.03-.03-.08-.03-.11-.03-.06-.06-.11-.11-.17-.06-.08-.11-.17-.17-.25-3.49-6.25-7-12.49-10.48-18.74-.36-.64-.7-1.25-1.06-1.9-1.06-1.9-2.12-3.79-3.18-5.69-.14-.25-.31-.47-.42-.72-.06-.11-.08-.2-.11-.31-.03-.06-.03-.11-.03-.17l-.03-.03-.03-.03c-.06-.06-.11-.11-.11-.14,.06-.08,.14-.11,.2-.08,.04,.02,.06,.03,.06,.03,0,0,.06,.03,.08,.08h0c.56,.28,1.09,.56,1.64,.81,.56,.28,1.09,.56,1.64,.81,.56,.28,1.09,.56,1.64,.84,.56,.28,1.09,.56,1.64,.84,2.57,1.34,5.13,2.7,7.7,4.01,5.1,2.65,10.2,5.3,15.31,7.95,1.56,.81,3.12,1.59,4.66,2.4,.5,.28,.56,.39,.28,.95-.78,1.56-1.59,3.12-2.4,4.68-.22,.45-.39,.5-.84,.28-.22-.11-.45-.22-.67-.33s-.45-.25-.67-.36c-.92-.47-1.81-.95-2.73-1.42-.92-.47-1.81-.95-2.73-1.42-.84-.42-1.67-.86-2.48-1.28-1-.5-1.98-1.03-2.98-1.53-.84-.42-1.62-1-2.54-1.23-.06,.06-.11,.11-.17,.14,.03,.47,.33,.84,.56,1.23,2.84,5.07,5.69,10.12,8.53,15.2,.25,.45,.47,.89,.67,1.34,.06,.14,.03,.25-.06,.33-.03,.03-.06,.06-.08,.06-.03,.03-.08,.03-.11,.03-.84,.11-1.7,.2-2.54,.28-3.43,.36-6.86,.7-10.29,1.06-2.04,.2-4.07,.39-6.11,.64-.08,0-.14,.03-.22,.03s-.17,.03-.25,.03c-.11,0-.2,.03-.31,.06-.03,0-.06,.03-.08,.03s-.06,.03-.08,.03-.03,0-.06,.03c-.03,0-.03,.03-.06,.03-.06,.03-.08,.03-.14,.06s-.08,.06-.14,.08l.33,.25c.08,.06,.17,.11,.25,.17s.17,.08,.25,.14c.11,.06,.22,.11,.33,.17,.06,.03,.11,.06,.17,.08,3.74,1.92,7.47,3.85,11.21,5.8,.47,.22,.92,.5,1.39,.75,.45,.25,.92,.5,1.37,.75,0,.11-.03,.22-.03,.31v.03s0,.08-.03,.11c-.03,.08-.06,.2-.08,.28-.03,.06-.03,.11-.06,.17,0,.03-.03,.06-.03,.08-.03,.06-.06,.11-.08,.17s-.06,.11-.08,.17-.08,.11-.11,.2c-.03,.06-.06,.11-.11,.17-.11,.17-.2,.33-.31,.5-.06,.11-.14,.22-.2,.33s-.11,.22-.17,.33c-.36,.86-.86,1.7-1.31,2.54-.25,.45-.36,.47-.84,.25-1.95-1-3.9-2.01-5.86-3.04-1.67-.86-3.32-1.76-4.99-2.62-.81-.42-1.64-.86-2.45-1.28-1.09-.56-2.17-1.12-3.26-1.7-4.74-2.45-9.48-4.88-14.19-7.33-1.06-.56-2.12-1.12-3.18-1.67-.14-.06-.22-.2-.42-.33,.14-.14,.31-.2,.45-.25h.02Zm-14.97,55.85c-.06-.03-.08-.08-.11-.14s-.03-.11-.03-.2,.03-.2,.03-.33c.25-1.34,.5-2.68,.75-4.01,.14-.72,.28-1.45,.42-2.17,.14-.78,.28-1.56,.45-2.31,.22-1.17,.45-2.31,.67-3.49,.22-1.17,.45-2.31,.64-3.49,.39-2.09,1.09-4.07,2.43-5.74,.11-.14,.22-.28,.33-.39,.06-.08,.14-.17,.22-.22,.06-.08,.14-.14,.2-.22l.14-.14c.11-.11,.22-.22,.36-.33,.08-.08,.17-.17,.25-.22,.25-.22,.47-.42,.72-.61,.06-.06,.14-.08,.2-.14l.06-.06c.08-.06,.17-.11,.25-.17h0c.08-.06,.17-.11,.25-.14,.11-.08,.25-.17,.36-.22,.08-.06,.17-.08,.25-.14,.47-.25,.95-.47,1.45-.67,.06-.03,.11-.03,.17-.06,.17-.06,.33-.11,.5-.17,.2-.06,.42-.11,.61-.17s.39-.08,.59-.11c.03,0,.08-.03,.11-.03,.2-.03,.39-.06,.59-.08,.22-.03,.45-.06,.67-.06,.22-.03,.45-.03,.7-.03,3.01-.08,5.6,.86,7.86,2.79,.53,.45,1,.95,1.45,1.48,.22,.25,.42,.53,.61,.81,.08,.14,.2,.28,.28,.42,.17,.28,.33,.56,.47,.86h0c.14,.28,.28,.61,.39,.92,.14,.31,.22,.64,.33,.95,.06,.17,.08,.33,.14,.5,.03,.14,.06,.25,.08,.39,.03,.08,.03,.17,.06,.25,.03,.14,.06,.25,.08,.39,.08,.53,.03,1.09,.36,1.7,1.56-.67,3.09-1.31,4.63-2.01,1.53-.67,3.07-1.34,4.6-2.04,3.07-1.37,6.13-2.73,9.26-4.04,.03,.28,.08,.47,.03,.67-.39,2.12-.81,4.21-1.2,6.33-.11,.64-.5,.92-1.03,1.14-4.07,1.78-8.17,3.6-12.24,5.38-1.56,.7-3.09,1.39-4.68,2.04-.56,.22-.89,.53-.98,1.17-.17,1.2-.45,2.37-.64,3.54-.08,.53-.03,.64,.45,.75,.53,.11,1.09,.22,1.62,.33s1.09,.22,1.62,.31c1.9,.36,3.79,.72,5.69,1.09s3.79,.72,5.69,1.09c.08,.03,.2,.06,.28,.06,.08,.03,.17,.03,.22,.06,.08,.03,.14,.03,.2,.06,.14,.03,.22,.08,.31,.11l.03,.03,.03,.03,.06,.06s.03,.03,.03,.06c.06,.14,0,.39-.08,.81-.31,1.56-.59,3.15-.92,4.71-.14,.61-.22,.7-.81,.59-1.39-.22-2.76-.5-4.13-.75-6.13-1.17-12.3-2.34-18.43-3.49-4.91-.95-9.84-1.9-14.75-2.82-.25-.06-.5-.08-.72-.14-.08-.03-.14-.03-.22-.06-.06-.03-.11-.03-.17-.06,0-.17-.03-.17-.06-.2h-.03Zm1.06,43.6c-.17-.06-.33-.11-.5-.17-.06-.03-.11-.03-.14-.08-.03-.03-.06-.03-.08-.06-.01-.02-.03-.04-.06-.06-.04-.03-.03-.03-.03-.06-.11-.28,.17-.31,.33-.39,1.98-1.06,3.96-2.15,5.94-3.21,5.83-3.12,11.65-6.22,17.48-9.34,4.54-2.43,9.09-4.85,13.63-7.28,.17-.08,.36-.14,.61-.22,.08,.45,.17,.84,.2,1.23,.03,.36,.08,.75,.14,1.12,.08,.75,.17,1.48,.25,2.23,.03,.36,.06,.75,.08,1.12,0,.17,.03,.31,.03,.42v.67c-.03,.11-.06,.2-.14,.25-.05,.03-.07,.05-.06,.06-.08,.08-.22,.14-.42,.22-.08,.03-.17,.08-.25,.14-.06,.03-.11,.06-.14,.08-1.78,1-3.62,1.95-5.44,2.9-4.93,2.65-9.87,5.27-14.83,7.92-.17,.08-.33,.2-.5,.33,.11,.39,.45,.39,.67,.47,7.05,2.2,14.14,4.38,21.22,6.55,2.29,.7,1.78,.42,2.01,2.54,.14,1.45,.28,2.87,.45,4.32v.45s0,.06-.03,.06c0,.03-.03,.06-.03,.06-.03,.03-.08,.08-.14,.08h-.03c-.06,0-.14,0-.25-.03-.03,0-.06,0-.06-.03-.06-.03-.14-.03-.22-.06-3.43-1.06-6.89-2.12-10.32-3.21-9.59-2.98-19.21-5.94-28.8-8.92-.25-.03-.42-.06-.59-.11h.02Zm55.26,55.47c-.11,.03-.2,.06-.31,.08-.28,.03-.56,.03-.84-.03-.17-.03-.33-.06-.5-.08-4.71-.64-9.4-1.34-14.11-1.98-4.6-.64-9.2-1.25-13.83-1.9-2.54-.33-5.05-.72-7.58-1.06-.36-.06-.59,.2-.45,.53,.33,.89,.67,1.78,1,2.68,1.64,4.13,3.29,8.28,4.96,12.41l.33,.84c.03,.08,.06,.17,.06,.25,0,.03,0,.08-.03,.11v.03s-.03,.06-.06,.08c-.03,.03-.06,.08-.08,.11s-.06,.06-.08,.06c-.03,.03-.08,.06-.14,.06-1.67,.67-3.35,1.34-5.02,2.01-.14,.06-.25,.08-.33,.08-.03,0-.08,0-.11-.03-.03,0-.06-.03-.08-.06-.03,0-.03-.03-.06-.06-.02-.02-.04-.04-.06-.06-.03-.03-.06-.08-.08-.17-.03-.03-.03-.08-.06-.14-.56-1.34-1.06-2.7-1.59-4.04-2.79-6.97-5.55-13.94-8.34-20.91-.22-.56-.42-1.12-.67-1.84,1.64,.03,3.04,.31,4.49,.5,4.21,.56,8.42,1.14,12.63,1.76,3.23,.45,6.44,.92,9.65,1.37,1.78,.25,3.57,.5,5.35,.75s3.57,.47,5.35,.72h.14s.06,0,.08-.03,.06-.03,.08-.06c.03-.03,.06-.03,.06-.06,.03-.03,.06-.08,.06-.14,.03-.06,0-.14-.03-.2-.06-.17-.11-.33-.17-.5s-.14-.33-.2-.5c-1-2.57-2.04-5.1-3.04-7.67s-2.04-5.1-3.04-7.67l-.33-.84c-.03-.08-.03-.2-.03-.25,0,0,0-.03,.03-.03,0-.03,.03-.06,.06-.08,.03-.03,.03-.06,.06-.08,.03-.03,.06-.03,.08-.06,.2-.08,.42-.17,.61-.25,.22-.08,.42-.14,.64-.22,1.2-.47,2.4-.98,3.62-1.45,.89-.36,.89-.33,1.28,.59,.36,.92,.72,1.87,1.09,2.79,1.53,3.85,3.07,7.72,4.6,11.57s3.07,7.72,4.6,11.57c.03,.06,.03,.08,.06,.14,.03,.08,.08,.2,.14,.28,.03,.06,.03,.08,.06,.14,.03,.06,.03,.08,.06,.14,.03,.03,.03,.08,.03,.11,.03,.06,.03,.08,.03,.14-.03,.22-.03,.39-.06,.53l.02,.02Zm348.07-11.79c-.03,.17-.03,.31-.08,.45-.2,.47-.36,.92-.56,1.39-.39,.92-.75,1.87-1.12,2.79-.2,.47-.36,.92-.56,1.39-.03,.06-.03,.11-.06,.14s-.03,.06-.06,.08c-.03,.03-.03,.06-.03,.06-.03,.03-.03,.06-.06,.08-.03,.03-.06,.08-.08,.11-.08,.08-.17,.14-.28,.2-.08,.03-.17,.08-.28,.11-.03,.03-.08,.03-.14,.03-.03,0-.08,.03-.14,.03-1.62,.25-3.26,.5-4.88,.78-3.07,.5-6.13,.98-9.17,1.48-.08,.03-.17,.03-.22,.06-.06,.03-.11,.03-.17,.06-.2,.11-.17,.28,.11,.67,1.45,1.98,2.93,3.96,4.38,5.91,1.31,1.76,2.62,3.54,3.96,5.3,.03,.06,.06,.08,.08,.14,.06,.08,.11,.17,.17,.25,.08,.17,.14,.31,.17,.47,0,.06,.03,.11,.03,.2,0,.11,0,.22-.03,.33s-.08,.22-.14,.36c-.86,1.98-1.62,3.96-2.45,6.02-.06-.03-.08-.03-.14-.06-.03-.03-.06-.03-.08-.06-.06-.03-.08-.06-.14-.08s-.11-.08-.14-.14c-.03-.03-.08-.08-.11-.14l-.08-.11c-.06-.08-.14-.2-.2-.28-.03-.06-.06-.08-.08-.14-.5-.64-.98-1.31-1.48-1.95-2.82-3.76-5.6-7.53-8.42-11.29-1.06-1.39-2.12-2.79-3.12-4.24-.08-.14-.2-.25-.31-.36-.03-.06-.08-.08-.14-.14l-.14-.14-.08-.08s-.08-.06-.11-.08c-.08-.08-.2-.14-.31-.2-.06-.03-.11-.06-.17-.08s-.11-.06-.17-.08-.14-.06-.2-.08c-.56-.22-1.12-.45-1.67-.67-3.71-1.48-7.42-2.98-11.12-4.49-1.2-.5-2.4-.98-3.6-1.48-.25-.11-.47-.28-.36-.56,.72-1.9,1.45-3.82,2.37-5.72,.95,.39,1.84,.72,2.7,1.09,2.31,.95,4.63,1.9,6.94,2.82,2.31,.95,4.63,1.9,6.94,2.84,.75,.31,1.48,.39,2.31,.25,3.54-.61,7.11-1.12,10.68-1.67,3.35-.53,6.72-1.09,10.07-1.62,.64-.11,1.25-.31,1.95-.11v.17h.02Zm9.34-48.72c-.11,1-.25,1.98-.36,2.98-.14,1-.25,1.98-.39,2.98-.56,4.27-1.12,8.53-1.67,12.8-.2,1.45-.39,2.87-.59,4.32,0,.03,0,.08-.03,.11,0,.03-.03,.06-.03,.08-.03,.03-.03,.06-.06,.08-.02,.01-.04,.02-.06,.03-.03,.01-.03,.03-.06,.03s-.06,.03-.08,.03-.08,.03-.11,.03h-.08c-.39-.06-.78-.11-1.17-.17v.03c-1.45-.2-2.87-.42-4.29-.61-.03,0-.08-.03-.11-.03-.08-.03-.14-.06-.2-.08l-.11-.11s-.03-.06-.03-.08-.03-.06-.03-.08v-.22c.17-1.39,.33-2.79,.53-4.15,.11-.78,.22-1.56,.33-2.34,.03-.25,.08-.53,.11-.78,0-.06,0-.11,.03-.14,0-.06,0-.11,.03-.14v-.31c0-.08-.03-.17-.06-.22-.08-.14-.2-.2-.39-.25-.06-.03-.11-.03-.17-.03-.89-.11-1.76-.22-2.65-.33-.7-.08-1.39-.2-2.12-.28-3.01-.39-6.05-.78-9.06-1.17s-6.05-.78-9.06-1.17c-2.68-.33-5.35-.7-8.03-1.03-.14-.03-.31-.03-.45-.06-1.09-.17-1.14-.2-1-1.34,.2-1.59,.42-3.18,.61-4.77,.06-.33,.25-.53,.61-.47,.31,.03,.61,.08,.92,.11,.47,.06,.92,.11,1.39,.17s.92,.11,1.39,.17c5.69,.75,11.4,1.51,17.09,2.23,3.71,.47,7.44,.95,11.15,1.42,.2,.03,.33,.03,.45,.03h.08s.06-.03,.08-.03c.06-.03,.08-.08,.11-.17,.03-.06,.03-.11,.06-.2,0-.06,.03-.11,.03-.17,.14-1.06,.28-2.12,.42-3.21,.14-1.06,.28-2.12,.42-3.21,.03-.11,.03-.2,.03-.31,.03-.28,.08-.59,.14-.89,.08-.47,.2-.59,.59-.56,.03,0,.08,0,.11,.03,.86,.11,1.73,.22,2.59,.33s1.73,.22,2.59,.36c.22,.03,.36,.06,.47,.14l.06,.06s0,.03,.03,.03c.03,.03,.06,.08,.06,.14-.06,.06-.06,.2-.08,.39h.02Zm.06-24.48c-.03,.06-.06,.11-.08,.14-.06,.08-.17,.14-.31,.14-.78,.08-1.59,.2-2.37,.22-4.18,.22-8.36,.45-12.57,.67-4.13,.25-8.25,.56-12.41,.81-2.7,.17-5.38,.28-8.09,.42-1.14,.06-2.29,.17-3.43,.22-.22,.03-.39,0-.5-.08-.03-.03-.06-.03-.08-.08-.06-.06-.08-.11-.11-.2-.03-.06-.03-.08-.03-.14s0-.11-.03-.2c-.11-1.7-.22-3.37-.31-5.07-.03-.64,.14-.78,.78-.84,2.15-.14,4.29-.22,6.44-.36,2.4-.14,4.8-.33,7.17-.47,1.39-.08,2.79-.14,4.18-.22,3.35-.17,6.69-.33,10.04-.56,1.98-.11,3.99-.28,5.97-.42v.03l4.77-.33c.2-.03,.36,.03,.45,.11,.03,.03,.06,.06,.06,.08,.06,.08,.08,.2,.08,.31,.14,1.84,.25,3.68,.36,5.52,.06,.17,.06,.22,.03,.31h-.01Z"/>
        <path class="cls-4" d="M59.02,123.12c2.17,1.09,4.38,2.17,6.55,3.32,2.57,1.34,5.13,2.68,7.72,4.01,5.1,2.65,10.2,5.3,15.31,7.95,1.56,.81,3.12,1.59,4.66,2.4,.5,.28,.56,.39,.28,.95-.78,1.56-1.59,3.12-2.4,4.68-.22,.45-.39,.5-.84,.28s-.86-.47-1.31-.7c-3.65-1.87-7.28-3.76-10.93-5.63-.84-.42-1.62-1-2.54-1.23-.11-.14-.2-.22-.33-.03,0,.03,.11,.11,.17,.2,.03,.47,.33,.84,.56,1.23,2.84,5.07,5.69,10.12,8.5,15.2,.25,.45,.47,.89,.67,1.34,.08,.22-.03,.42-.25,.45-.84,.11-1.67,.2-2.54,.28-3.43,.36-6.86,.7-10.29,1.06-2.04,.2-4.07,.39-6.11,.64-.42,.06-.86,.03-1.34,.36,.45,.36,.86,.59,1.31,.81,3.74,1.92,7.47,3.85,11.21,5.77,.92,.47,1.84,1,2.76,1.53-.06,1.12-.86,1.87-1.28,2.82-.36,.86-.86,1.7-1.31,2.54-.25,.45-.36,.47-.84,.25-1.95-1-3.9-2.01-5.86-3.04-2.48-1.28-4.96-2.59-7.44-3.9-5.83-3.01-11.65-6.02-17.48-9.03-1.06-.56-2.12-1.12-3.21-1.67-.11-.06-.22-.17-.42-.33,1.17-.53,2.4-.33,3.54-.56,1.17-.22,2.37-.28,3.57-.39,1.25-.11,2.48-.22,3.74-.36,1.2-.14,2.37-.28,3.57-.42s2.4-.25,3.57-.36c1.2-.11,2.4-.22,3.57-.36,1.25-.11,2.48-.25,3.74-.39,1.2-.14,2.4-.22,3.57-.39s2.4-.11,3.54-.45c.17-.45-.11-.7-.28-1-3.49-6.25-7-12.49-10.48-18.74-1.42-2.54-2.84-5.07-4.27-7.61-.22-.39-.5-.75-.56-1.23,.08-.08,.17-.17,.2-.22v-.03Z"/>
        <path class="cls-4" d="M398.89,152.2c-3.21,6.08-6.33,12.02-9.48,18.04-.2-.25-.33-.39-.42-.56-1-1.9-2.01-3.79-3.04-5.69-.25-.5-.22-.89,.06-1.39,2.4-4.52,4.77-9.03,7.14-13.55,.56-1.06,1.12-2.12,1.67-3.21,.17-.33,.22-.64,.06-1-.67-1.28-1.34-2.57-2.01-3.85-.56-.06-.92,.25-1.28,.45-3.21,1.67-6.38,3.35-9.56,5.05-1.31,.7-2.65,1.37-4.07,2.12-.98-1.87-1.9-3.62-2.82-5.38-.14-.28-.03-.5,.2-.64,1-.56,2.04-1.09,3.04-1.62,4.82-2.54,9.65-5.1,14.47-7.64,4.57-2.4,9.12-4.8,13.69-7.19,1.03-.53,2.04-1.06,3.07-1.62,.75-.42,.78-.42,1.23,.42,1.06,1.98,2.09,3.99,3.15,5.97,1.34,2.51,2.65,5.05,4.01,7.56,1.2,2.2,1.87,4.49,1.73,7.05-.17,2.76-1.14,5.16-3.01,7.17-2.09,2.26-4.68,3.54-7.78,3.74-3.37,.22-6.3-.81-8.81-3.09-.45-.31-.75-.64-1.23-1.12v-.02Zm14.29-7.28c0-.75-.22-1.51-.59-2.23-.56-1.06-1.09-2.15-1.64-3.21-.98-1.87-1.98-3.71-2.93-5.58-.53-1.03-.67-.81-1.34-.47-2.43,1.28-4.88,2.54-7.3,3.82-.17,.08-.33,.2-.5,.33s-.22,.31-.11,.53c.08,.17,.17,.36,.28,.53,1,1.9,2.01,3.82,3.01,5.72,.61,1.14,1.17,2.34,1.87,3.43,1.23,1.9,3.54,2.68,5.66,2.01,2.45-.81,3.49-2.84,3.6-4.88h-.01Z"/>
        <path class="cls-4" d="M53.84,196.31c6.19-2.62,12.27-5.41,18.49-8.09,.03,.28,.08,.47,.06,.67-.39,2.12-.81,4.24-1.2,6.33-.11,.64-.5,.89-1.03,1.14-4.07,1.78-8.14,3.6-12.24,5.38-1.56,.7-3.09,1.39-4.68,2.04-.56,.22-.89,.53-.98,1.17-.17,1.2-.45,2.37-.64,3.54-.08,.53-.03,.64,.45,.75,1.09,.22,2.15,.42,3.23,.64,3.79,.72,7.58,1.42,11.35,2.15,.11,.03,.2,.06,.31,.06,1.03,.25,.95,.25,.75,1.2-.31,1.56-.59,3.15-.92,4.71-.11,.61-.22,.7-.81,.59-1.39-.22-2.76-.5-4.13-.75-6.13-1.17-12.3-2.34-18.43-3.51-4.91-.95-9.84-1.87-14.75-2.82-.25-.06-.5-.08-.72-.14-.56-.14-.64-.25-.56-.84,.39-2.06,.78-4.13,1.17-6.19,.59-3.09,1.2-6.19,1.76-9.28,.39-2.09,1.09-4.07,2.43-5.74,2.31-2.84,5.27-4.35,8.98-4.43,3.01-.06,5.6,.86,7.86,2.79,2.15,1.84,3.37,4.18,3.88,6.94,.11,.53,.06,1.12,.39,1.7h-.02Zm-6.78,.44c.06-2.4-1.17-4.27-3.07-5.1-1.92-.84-4.01-.45-5.55,1.03-.86,.84-1.34,1.84-1.53,3.01-.47,2.59-.98,5.21-1.48,7.81-.11,.59-.25,1.17-.33,1.76-.08,.61,.03,.78,.67,.92,.92,.2,1.87,.36,2.79,.53,1.81,.33,3.62,.7,5.44,1.03,.89,.17,.98,.03,1.12-.72,.47-2.57,.98-5.1,1.45-7.67,.2-.98,.39-1.95,.5-2.59h0Z"/>
        <path class="cls-4" d="M151.09,78.18c-.08,4.82-1.7,9.09-4.8,12.8-1.34,1.59-2.93,2.87-4.66,3.99-2.96,1.87-5.94,3.71-8.92,5.58-.22,.14-.42,.25-.64,.36-.14,.06-.31,.03-.39-.11-.17-.25-.33-.5-.5-.75-6.64-10.62-13.27-21.22-19.91-31.84-.7-1.12-.7-1.14,.36-1.81,3.37-2.09,6.64-4.29,10.09-6.22,2.84-1.59,5.97-2.4,9.2-2.37,5.3,.03,9.98,1.78,13.88,5.46,3.74,3.54,5.74,7.86,6.25,12.94,.08,.67,.03,1.31,.03,1.98h.01Zm-6.5-.07c0-1.17-.11-2.17-.33-3.15-1.25-5.63-5.86-9.9-11.88-10.51-2.79-.31-5.49,.28-7.92,1.76-1.2,.72-2.4,1.45-3.57,2.2-1.23,.75-1.28,.64-.47,1.9,3.46,5.52,6.89,11.04,10.34,16.56,.95,1.53,1.9,3.07,2.87,4.57,.31,.47,.39,.5,.84,.22,1.48-.92,3.01-1.78,4.43-2.82,3.68-2.7,5.52-6.38,5.69-10.73h0Z"/>
        <path class="cls-4" d="M247.7,27.1c.61,.31,.84,.78,1.12,1.14,3.01,3.93,6.02,7.86,9.03,11.82,3.43,4.49,6.89,8.98,10.32,13.47,.14,.2,.28,.42,.47,.59,.08,.08,.22,.2,.36,.2,.2,0,.2-.2,.22-.33,.22-1.48,.42-2.98,.64-4.46,.56-3.96,1.14-7.92,1.7-11.88,.25-1.78,.5-3.57,.75-5.35,.06-.45,.14-.89,.22-1.34,.06-.39,.31-.47,.67-.42,1.78,.25,3.57,.53,5.35,.78,.39,.06,.47,.31,.45,.64-.17,1.28-.33,2.59-.5,3.88-.67,4.71-1.34,9.4-2.04,14.11-.64,4.52-1.31,9.01-1.98,13.52-.36,2.43-.7,4.85-1.03,7.28-.5,.14-.61-.28-.81-.53-2.43-3.12-4.82-6.27-7.22-9.42-4.21-5.49-8.39-10.99-12.6-16.48-.14-.2-.31-.39-.47-.59-.06-.06-.2-.06-.28-.03-.08,.03-.14,.11-.17,.2-.03,.03-.03,.08-.03,.14-.61,4.35-1.23,8.73-1.87,13.08-.47,3.21-.95,6.44-1.42,9.65-.08,.61-.14,.67-.78,.59-1.73-.22-3.46-.45-5.21-.7-.42-.06-.59-.31-.53-.75,.39-2.76,.81-5.55,1.2-8.31,.64-4.52,1.28-9.01,1.95-13.52,.67-4.6,1.34-9.2,2.01-13.8,.17-.98,.31-2.01,.47-3.15v-.03Z"/>
        <path class="cls-4" d="M66.11,345.61c1.34-1.34,2.34-2.51,3.54-3.51s1.64-2.12,1.51-3.65c-.11-1.28-.03-2.59-.03-3.9,0-.5,.11-.61,.61-.64,1.76,0,3.51-.03,5.27,0,.64,0,1.14-.2,1.59-.64,1.09-1.12,2.17-2.2,3.29-3.29,.28-.28,.59-.53,.86-.81,.56,.2,.81,.64,1.17,.98,1.06,1,2.12,1.98,3.12,3.04,.59,.59,1.23,.78,2.01,.75,1.31-.06,2.59,0,3.9,0h1.06c.36,.03,.53,.22,.53,.59v1.51c0,1.12,.06,2.2-.03,3.32-.06,.92,.2,1.62,.89,2.23,1.23,1.12,2.34,2.31,3.51,3.49,.36,.36,.36,.5-.03,.86-.84,.84-1.73,1.67-2.57,2.51-.08,.06-.17,.14-.22,.2-1.53,1.39-1.56,1.51-1.56,3.62,0,1.25,.03,2.51,0,3.76-.03,.89-.17,1.03-1.03,1.06h-4.35c-1.76,.03-1.28-.2-2.48,1-1.03,1.03-2.06,2.06-3.09,3.07-.22,.2-.45,.39-.64,.56-.47,0-.64-.33-.89-.56-1.06-1.06-2.15-2.09-3.18-3.18-.59-.64-1.28-.89-2.12-.89h-4.96c-.5-.03-.61-.14-.64-.61-.03-.7,0-1.39,0-2.09,0-1.12-.03-2.2,0-3.32,0-.5-.14-.86-.5-1.2-1.23-1.2-2.4-2.4-3.62-3.6-.25-.22-.5-.36-.92-.64v-.02Z"/>
        <path class="cls-4" d="M367.95,345.61c1.34-1.34,2.34-2.51,3.54-3.51s1.64-2.12,1.51-3.65c-.11-1.28-.03-2.59-.03-3.9,0-.5,.11-.61,.61-.64,1.76,0,3.51-.03,5.27,0,.64,0,1.14-.2,1.59-.64,1.09-1.12,2.17-2.2,3.29-3.29,.28-.28,.59-.53,.86-.81,.56,.2,.81,.64,1.17,.98,1.06,1,2.12,1.98,3.12,3.04,.59,.59,1.23,.78,2.01,.75,1.31-.06,2.59,0,3.9,0h1.06c.36,.03,.53,.22,.53,.59v1.51c0,1.12,.06,2.2-.03,3.32-.06,.92,.2,1.62,.89,2.23,1.23,1.12,2.34,2.31,3.51,3.49,.36,.36,.36,.5-.03,.86-.84,.84-1.73,1.67-2.57,2.51-.08,.06-.17,.14-.22,.2-1.53,1.39-1.56,1.51-1.56,3.62,0,1.25,.03,2.51,0,3.76-.03,.89-.17,1.03-1.03,1.06h-4.35c-1.76,.03-1.28-.2-2.48,1-1.03,1.03-2.06,2.06-3.09,3.07-.22,.2-.45,.39-.64,.56-.47,0-.64-.33-.89-.56-1.06-1.06-2.15-2.09-3.18-3.18-.59-.64-1.28-.89-2.12-.89h-4.96c-.5-.03-.64-.14-.64-.61-.03-.7,0-1.39,0-2.09,0-1.12-.03-2.2,0-3.32,0-.5-.14-.86-.5-1.2-1.23-1.2-2.4-2.4-3.62-3.6-.22-.22-.5-.36-.92-.64v-.02Z"/>
        <path class="cls-4" d="M365.66,105.78c-2.37,2.17-4.63,4.21-6.89,6.27-.47,.45-.47,.61-.03,1.12,2.59,2.84,5.21,5.66,7.81,8.5,1.23,1.34,2.43,2.65,3.65,3.99,.36,.39,.33,.5-.03,.86-.03,.03-.08,.08-.11,.11-1.42,1.25-2.82,2.54-4.24,3.79-1.48-1.12-2.57-2.62-3.82-3.96-2.76-2.96-5.46-5.97-8.22-8.95-1.59-1.73-3.18-3.46-4.77-5.19,.14-.56,.59-.84,.95-1.14,3.49-3.21,7-6.41,10.51-9.62,2.76-2.54,5.52-5.07,8.31-7.61,3.07-2.82,6.13-5.6,9.17-8.42,.14-.14,.31-.25,.53-.42,5.6,6.11,11.15,12.18,16.73,18.26-.56,.92-1.45,1.45-2.15,2.15-.7,.72-1.48,1.34-2.23,2.01-.28,.25-.53,.25-.78-.03-.22-.22-.42-.45-.61-.67-2.7-2.96-5.41-5.91-8.11-8.84-.98-1.06-1.95-2.15-2.96-3.21-.08-.11-.22-.17-.42-.33-2.45,2.2-4.88,4.43-7.3,6.69,.53,1.03,1.39,1.73,2.12,2.54,2.57,2.87,5.21,5.69,7.81,8.5,.39,.42,.42,.53-.08,.98-1.39,1.28-2.79,2.57-4.15,3.82-.53-.06-.75-.42-1-.7-3.04-3.32-6.08-6.64-9.09-9.98-.14-.14-.33-.31-.59-.53h-.01Z"/>
        <path class="cls-4" d="M115.68,106.67c.56,.5,1.14,1.03,1.7,1.59,.84,.78,1.7,1.56,2.51,2.37,.36,.33,.36,.53,.03,.89-.67,.75-1.37,1.48-2.04,2.2-3.32,3.54-6.64,7.08-9.95,10.62-1.2,1.28-2.37,2.57-3.6,3.82-1.28,1.31-.89,1.06-2.2,.03-.7-.56-1.31-1.23-1.98-1.84-3.32-3.12-6.61-6.25-9.93-9.37-3.6-3.4-7.22-6.78-10.85-10.15-1.45-1.37-2.93-2.7-4.41-4.07-.25-.25-.5-.5-.7-.78-.06-.08-.06-.31,0-.42,.17-.25,.39-.45,.59-.67,2.68-2.84,5.33-5.72,8-8.56,1.95-2.09,3.9-4.15,5.88-6.22,.5-.56,1.03-1.09,1.53-1.64,1-1.03,.89-.75,1.64-.08,1.23,1.09,2.4,2.26,3.62,3.4,.31,.31,.2,.56,0,.78-.78,.84-1.59,1.67-2.37,2.51-2.06,2.2-4.1,4.38-6.13,6.58-.86,.92-1.73,1.81-2.59,2.7-.33,.36-.72,.67-.92,1.23,1.14,1.12,2.29,2.23,3.46,3.32,1.12,1.06,2.26,2.12,3.4,3.18,.28,.25,.5,.25,.75-.03,1.06-1.12,2.15-2.26,3.21-3.37,2.34-2.48,4.66-4.96,7-7.44,.53,.2,.81,.61,1.17,.95,.98,.86,1.92,1.76,2.87,2.65,.98,.95,.84,.78,0,1.76-.64,.75-1.37,1.48-2.04,2.2-2.43,2.59-4.88,5.16-7.3,7.75-.11,.11-.17,.25-.28,.39,.06,.14,.08,.31,.2,.39,2.15,2.01,4.32,4.04,6.47,6.05,.08,.06,.14,.14,.22,.2,.28,.28,.53,.22,.78-.03,.61-.64,1.25-1.31,1.87-1.95,2.15-2.31,4.29-4.6,6.44-6.91,1.03-1.09,2.04-2.2,3.07-3.29,.2-.31,.42-.61,.86-.72l.02-.02Z"/>
        <path class="cls-4" d="M35.72,297.27c1.62,.03,3.04,.31,4.46,.5,4.21,.56,8.42,1.14,12.63,1.76,3.21,.45,6.44,.92,9.65,1.37,3.57,.5,7.14,.98,10.71,1.48,.28,.03,.47-.2,.39-.47-.11-.33-.25-.67-.36-.98-2.04-5.1-4.07-10.23-6.11-15.33l-.33-.84c-.08-.22,.03-.42,.2-.5,.42-.2,.84-.33,1.25-.5,1.2-.47,2.43-.98,3.62-1.45,.59-.22,1.02-.02,1.28,.59,.36,.92,.72,1.87,1.09,2.79,3.07,7.72,6.13,15.45,9.2,23.17,.17,.45,.47,.89,.39,1.42-.56,.2-1.12,.06-1.64-.03-4.71-.64-9.4-1.34-14.11-1.98-4.6-.64-9.2-1.25-13.83-1.9-2.54-.33-5.05-.72-7.58-1.06-.36-.06-.59,.2-.45,.53,.33,.89,.67,1.78,1,2.68,1.64,4.13,3.29,8.28,4.93,12.41l.33,.84c.14,.33,0,.56-.33,.7-1.67,.67-3.35,1.34-5.02,2.01-.45,.17-.64,.08-.81-.36-.56-1.34-1.06-2.7-1.59-4.04-2.79-6.97-5.55-13.94-8.34-20.91-.17-.59-.36-1.14-.64-1.87v-.03Z"/>
        <path class="cls-4" d="M218.48,53.73c-.11-1-.22-1.98-.36-2.98-.64-4.91-1.31-9.81-1.98-14.72-.31-2.34-.61-4.66-.92-7-.03-.31-.06-.59-.06-.89,0-.2,.08-.39,.33-.42,.2-.03,.39-.06,.59-.08,1.64-.22,3.26-.47,4.91-.67,.42-.06,.64,.14,.7,.59,.33,2.48,.64,4.96,.98,7.44,.45,3.43,.89,6.83,1.34,10.26,.33,2.54,.72,5.05,.95,7.58,.36,4.04-.86,7.64-3.46,10.71-2.17,2.57-4.93,4.18-8.22,4.91-8,1.73-16.23-3.54-17.62-12.04-.36-2.17-.61-4.35-.89-6.55-.56-4.27-1.12-8.53-1.7-12.8-.22-1.67-.45-3.37-.67-5.05-.03-.25-.06-.5-.06-.75,0-.36,.2-.53,.53-.56,1.73-.22,3.46-.45,5.21-.67,.56-.06,.72,.08,.78,.64,.22,1.64,.45,3.26,.64,4.91,.45,3.43,.89,6.83,1.34,10.26,.36,2.82,.78,5.66,1.12,8.48,.28,2.29,1.12,4.24,2.84,5.77,3.35,2.98,8.5,2.68,11.49-.59,1.59-1.76,2.29-3.9,2.2-5.77h0Z"/>
        <path class="cls-4" d="M432.02,196.12c-1.14-1.09-3.54-3.93-4.24-4.99,.2-.28,.45-.59,.67-.89,.7-1,.95-2.12,.7-3.29-.17-.89-.36-1.76-.7-2.62-.72-1.95-2.59-3.04-4.8-2.84-1.84,.17-3.43,1.59-3.88,3.49-.11,.47-.17,.98-.22,1.48-.25,2.15-.47,4.27-.72,6.41-.28,2.4-1.09,4.54-2.7,6.38-1.64,1.87-3.68,3.09-6.08,3.62-3.71,.81-7.03-.06-9.93-2.51-1.45-1.23-2.45-2.79-3.07-4.54-.67-1.95-1.17-3.93-1.06-6.02,.22-4.07,2.09-7.11,5.6-9.17,.17-.11,.36-.17,.56-.25,.22-.08,.39,.03,.5,.2,.08,.11,.17,.25,.22,.39,.67,1.51,1.34,3.01,1.98,4.54,.25,.59,.25,.64-.22,.98-.7,.5-1.28,1.12-1.64,1.9-.08,.2-.17,.36-.25,.56-.56,1.73,.33,4.96,1.59,6.3,2.12,2.26,6.86,1.62,7.75-2.15,.28-1.17,.36-2.37,.5-3.57,.22-1.78,.39-3.57,.64-5.35,.64-4.54,4.43-8.36,8.98-9.14,5.83-1,11.38,2.51,12.83,8.25,.39,1.56,.81,3.09,.75,4.71-.08,3.26-1.39,5.91-3.76,8.14v-.02Z"/>
        <path class="cls-4" d="M65.69,233.95c.08,.45,.17,.84,.2,1.23,.17,1.48,.36,2.98,.45,4.49,.11,1.56,.2,1.2-.98,1.87-1.78,1-3.62,1.95-5.44,2.9-4.93,2.65-9.87,5.27-14.83,7.92-.17,.08-.33,.22-.5,.33,.11,.39,.45,.39,.67,.47,7.08,2.2,14.14,4.38,21.22,6.55,2.29,.7,1.78,.42,2.01,2.54,.14,1.45,.28,2.87,.42,4.32,.06,.67-.08,.78-.78,.56-3.43-1.06-6.89-2.12-10.32-3.21-9.59-2.98-19.21-5.94-28.8-8.92-.33-.11-.67-.2-1-.33-.14-.06-.28-.14-.33-.25-.11-.28,.17-.31,.33-.39,1.98-1.09,3.96-2.15,5.94-3.21,5.83-3.12,11.65-6.22,17.48-9.34,4.54-2.43,9.09-4.85,13.63-7.28,.2-.11,.39-.17,.64-.25h0Z"/>
        <path class="cls-4" d="M332.7,78.21c.39,.06,.64-.25,.92-.45,5.99-4.18,11.96-8.39,17.96-12.57,.45-.31,.89-.61,1.34-.89,1.7,.89,4.99,3.01,5.86,3.76-.08,.11-.14,.25-.25,.33-11.63,8.17-23.25,16.31-34.82,24.42-.17-.06-.22-.06-.25-.08s-.06-.08-.03-.14c2.34-13.91,4.68-27.8,7.05-41.71,.03-.2,.11-.36,.17-.53,.33-.06,.5,.14,.72,.25,1.53,.95,3.04,1.95,4.57,2.87,.5,.31,.67,.64,.56,1.23-.42,2.37-.81,4.74-1.2,7.11-.75,4.49-1.53,8.98-2.29,13.47-.17,.95-.42,1.87-.42,2.82-.11,.08-.14,.2-.03,.31,.06-.08,.11-.14,.14-.2h0Z"/>
        <path class="cls-4" d="M390.28,294.73c.95,.39,1.84,.72,2.7,1.09,4.63,1.87,9.26,3.76,13.88,5.66,.75,.31,1.48,.39,2.31,.25,3.54-.61,7.11-1.12,10.68-1.67,3.35-.53,6.72-1.09,10.07-1.62,.64-.11,1.25-.31,1.95-.11-.03,.22-.03,.42-.11,.61-.75,1.87-1.51,3.71-2.23,5.58-.22,.56-.56,.75-1.12,.84-1.62,.25-3.26,.5-4.88,.78-3.07,.5-6.13,.98-9.17,1.48-.59,.08-.64,.25-.28,.78,1.45,1.98,2.93,3.93,4.38,5.91,1.31,1.76,2.62,3.54,3.96,5.3,.45,.56,.59,1.06,.28,1.76-.86,1.95-1.62,3.96-2.45,6.02-.53-.2-.72-.61-.98-.95-3.29-4.41-6.58-8.84-9.87-13.24-1.06-1.39-2.12-2.79-3.12-4.24-.42-.59-.95-.98-1.62-1.25-4.27-1.7-8.53-3.43-12.8-5.16-1.2-.5-2.4-.98-3.6-1.48-.25-.11-.47-.28-.36-.56,.75-1.98,1.45-3.88,2.37-5.77h0Z"/>
        <path class="cls-4" d="M436.53,273.09c-1.42-.2-2.87-.42-4.29-.61-.39-.06-.5-.28-.47-.61,.17-1.39,.33-2.79,.53-4.15,.14-1.03,.28-2.09,.45-3.12,0-.11,.03-.2,.03-.31,.03-.53-.11-.75-.61-.81-1.59-.2-3.18-.39-4.77-.61-6.05-.78-12.1-1.56-18.15-2.37-2.68-.33-5.35-.7-8.03-1.03-.14-.03-.31-.03-.45-.06-1.09-.17-1.14-.2-1-1.34,.2-1.59,.42-3.18,.61-4.77,.06-.33,.25-.53,.61-.47,1.25,.14,2.48,.28,3.74,.45,5.69,.75,11.4,1.51,17.09,2.23,3.71,.47,7.44,.95,11.15,1.42,.64,.08,.7,.06,.78-.56,.28-2.12,.56-4.27,.84-6.38,.06-.39,.11-.78,.17-1.17,.11-.5,.22-.61,.7-.53,1.73,.22,3.46,.45,5.21,.7,.56,.08,.64,.17,.56,.81-.22,1.98-.5,3.96-.75,5.97-.56,4.27-1.12,8.53-1.67,12.8-.2,1.45-.39,2.87-.59,4.32-.03,.28-.22,.45-.5,.39-.39-.06-.78-.11-1.2-.17-.28-.04-.27-.04,.03,0l-.02-.02Z"/>
        <path class="cls-4" d="M435.56,219.34l4.77-.33c.39-.03,.59,.11,.61,.47,.14,1.84,.25,3.68,.36,5.52,.03,.28-.11,.47-.42,.5-.78,.08-1.59,.2-2.37,.22-4.18,.22-8.39,.45-12.57,.67-4.13,.25-8.28,.56-12.41,.81-2.7,.17-5.38,.28-8.09,.42-1.14,.06-2.29,.17-3.43,.22-.56,.03-.72-.11-.75-.7-.11-1.7-.22-3.4-.31-5.07-.03-.64,.14-.78,.78-.84,2.15-.14,4.29-.22,6.44-.36,2.4-.14,4.77-.33,7.17-.47,1.39-.08,2.79-.14,4.18-.22,3.35-.17,6.69-.36,10.01-.56,1.98-.11,3.99-.28,5.97-.42l.06,.14h0Z"/>
        <path class="cls-4" d="M294.06,78.26s-.17-.03-.31-.08c-1.59-.59-3.21-1.17-4.8-1.76-.56-.2-.61-.33-.42-.89,.86-2.4,1.73-4.8,2.62-7.19,3.37-9.26,6.72-18.51,10.09-27.77,.22-.64,.25-1.53,.86-1.84s1.31,.31,1.95,.53c1.14,.39,2.26,.84,3.37,1.23,.72,.25,.67,.47,.5,.98-.28,.81-.59,1.59-.86,2.4-3.99,10.99-8,21.97-12.02,32.98-.17,.42-.33,.84-.53,1.25-.06,.11-.17,.2-.47,.17h.02Z"/>
        <path class="cls-4" d="M58.86,123.32l-.17-.17c.11-.17,.22-.11,.33,0l-.17,.17h0Z"/>
        <path class="cls-1" d="M386.07,229.6c-.17-3.79-.36-7.58-.75-11.38-.5-5.02-1.25-10.04-2.26-14.97-1.39-6.72-3.18-13.33-5.44-19.82-3.04-8.73-6.83-17.09-11.38-25.12-7.83-13.83-17.59-26.12-29.22-36.97-3.99-3.74-8.2-7.19-12.57-10.46-7.97-5.94-16.42-11.07-25.4-15.36-7.78-3.71-15.81-6.75-24.12-9.12-7.36-2.09-14.86-3.6-22.47-4.57-4.71-.61-9.45-.98-14.19-1.09-4.41-.11-8.81-.11-13.22,.17-2.2,.14-4.38,.33-6.58,.53-4.63,.39-9.23,1.09-13.8,1.98-7.08,1.37-14.02,3.23-20.86,5.6-7.47,2.59-14.72,5.74-21.72,9.48-8.67,4.63-16.84,10.07-24.48,16.28-5.52,4.49-10.73,9.31-15.56,14.55-5.1,5.52-9.81,11.35-14.08,17.57-5.6,8.14-10.4,16.76-14.33,25.82-2.9,6.66-5.3,13.49-7.22,20.52-1.34,4.88-2.43,9.81-3.29,14.8-.59,3.4-1.06,6.83-1.39,10.26-.28,2.68-.5,5.38-.61,8.06-.11,3.35-.2,6.69-.14,10.04,.06,3.85,.28,7.7,.59,11.54,.36,4.35,.92,8.64,1.67,12.94,1.25,7.22,3.04,14.3,5.33,21.25,2.73,8.25,6.08,16.2,10.15,23.87,3.68,6.91,7.81,13.52,12.49,19.8,5.91,7.95,12.52,15.22,19.82,21.89,4.21,3.85,8.64,7.44,13.24,10.82,6.78,4.93,13.94,9.26,21.41,13.02,2.9,1.45,5.86,2.79,8.87,4.07,5.21,2.2,10.54,4.1,15.98,5.69,7.78,2.29,15.72,3.9,23.78,4.93,3.71,.47,7.44,.78,11.18,1.03,2.59,.17,5.21,.14,8.17,.22,.78-.03,1.92-.11,3.07-.11,2.57,.06,5.1-.14,7.64-.31,4.38-.31,8.75-.81,13.1-1.51,4.91-.78,9.73-1.78,14.53-3.07,6.64-1.76,13.13-3.93,19.46-6.55,4.35-1.81,8.59-3.82,12.77-5.99,7.36-3.88,14.36-8.36,20.99-13.38,6.58-5.02,12.74-10.51,18.43-16.51,4.1-4.32,7.97-8.84,11.54-13.61,5.88-7.83,10.96-16.14,15.25-24.95,2.82-5.77,5.27-11.68,7.33-17.76,1.48-4.32,2.73-8.67,3.82-13.1,1.92-7.89,3.21-15.86,3.85-23.98,.28-3.4,.42-6.78,.53-10.18,.25-2.34,.2-4.6,.08-6.86h.01Zm-1.64,8.84c-.11,6.41-.75,12.77-1.73,19.1-1.37,8.84-3.49,17.45-6.38,25.93-1.95,5.74-4.27,11.32-6.89,16.78-2.84,5.91-6.08,11.63-9.67,17.12-4.29,6.55-9.03,12.74-14.3,18.54-1.98,2.2-3.99,4.35-6.11,6.41-6.55,6.41-13.61,12.27-21.22,17.43-3.76,2.57-7.64,4.93-11.63,7.17-6.86,3.85-14,7.11-21.38,9.81-7.44,2.73-15.06,4.85-22.83,6.36-5.21,1-10.46,1.73-15.75,2.17-5.33,.47-10.68,.64-16.03,.53-5.99-.11-11.96-.61-17.93-1.45-8.7-1.2-17.23-3.18-25.57-5.88-6.27-2.04-12.41-4.52-18.37-7.39-5.38-2.59-10.59-5.46-15.61-8.64-6.86-4.35-13.33-9.23-19.41-14.61-3.12-2.76-6.11-5.66-8.98-8.67-4.54-4.74-8.73-9.76-12.63-15.06-4.01-5.49-7.7-11.24-10.96-17.23-4.01-7.42-7.44-15.08-10.18-23.06-2.31-6.78-4.18-13.69-5.55-20.72-.86-4.46-1.53-8.98-1.95-13.52-.28-2.84-.5-5.69-.61-8.53-.08-2.51-.28-4.99-.22-7.5,.08-4.85,.31-9.67,.78-14.53,.78-8.09,2.2-16.06,4.27-23.92,2.2-8.45,5.16-16.62,8.78-24.56,4.52-9.87,10.07-19.13,16.56-27.83,3.23-4.32,6.72-8.48,10.43-12.41,5.19-5.52,10.71-10.68,16.64-15.39,3.18-2.54,6.47-4.88,9.84-7.17,4.41-2.98,8.95-5.69,13.66-8.17,5.72-3.01,11.6-5.63,17.68-7.89,7.53-2.79,15.22-4.96,23.06-6.55,4.52-.92,9.06-1.62,13.63-2.06,3.74-.36,7.47-.7,11.24-.7h4.66c3.85-.17,7.7,.03,11.54,.33,10.2,.84,20.21,2.59,30.06,5.44,7.47,2.15,14.72,4.88,21.75,8.17,8,3.74,15.64,8.11,22.86,13.19,5.6,3.96,10.93,8.25,15.98,12.94,8.59,7.97,16.14,16.81,22.7,26.51,3.21,4.74,6.11,9.65,8.73,14.72,3.82,7.33,7.03,14.94,9.59,22.81,1.92,5.86,3.46,11.82,4.63,17.87,.98,5.02,1.67,10.07,2.17,15.14,.72,6.36,.81,12.63,.67,18.96h-.02Z"/>
        <path class="cls-1" d="M75.36,139.27c-.06-.06-.2-.17-.17-.2,.11-.17,.22-.08,.33,.03-.06,.08-.11,.11-.17,.17h0Z"/>
        <path class="cls-1" d="M413.2,144.93c-.11,2.04-1.14,4.1-3.65,4.88-2.12,.67-4.43-.11-5.66-2.01-.7-1.09-1.25-2.26-1.87-3.43-1-1.9-2.01-3.79-3.01-5.72-.08-.17-.17-.36-.28-.53-.11-.2-.06-.39,.11-.53,.17-.11,.33-.25,.5-.33,2.43-1.28,4.88-2.54,7.3-3.82,.67-.36,.81-.59,1.34,.47,.95,1.87,1.95,3.71,2.93,5.58,.56,1.06,1.12,2.12,1.64,3.21,.42,.72,.64,1.48,.64,2.23h.01Z"/>
        <path class="cls-1" d="M47.06,196.76c-.11,.64-.31,1.62-.47,2.59-.47,2.57-.98,5.1-1.45,7.67-.14,.75-.2,.89-1.12,.72-1.81-.33-3.62-.7-5.44-1.03-.92-.17-1.87-.33-2.79-.53-.64-.14-.75-.31-.67-.92,.08-.59,.22-1.17,.33-1.76,.5-2.59,1-5.21,1.48-7.81,.22-1.17,.7-2.17,1.53-3.01,1.51-1.48,3.62-1.87,5.55-1.03,1.9,.84,3.09,2.7,3.04,5.1h0Z"/>
        <path class="cls-1" d="M144.59,78.12c-.17,4.35-2.01,8.06-5.72,10.71-1.42,1.03-2.96,1.9-4.43,2.82-.45,.28-.56,.25-.84-.22-.98-1.53-1.92-3.04-2.87-4.57-3.46-5.52-6.89-11.04-10.34-16.56-.78-1.25-.72-1.14,.47-1.9s2.37-1.48,3.57-2.2c2.45-1.45,5.13-2.04,7.92-1.76,6.02,.64,10.62,4.91,11.88,10.51,.25,1,.36,1.98,.36,3.18h0Z"/>
        <path class="cls-1" d="M332.7,78.21c-.06,.06-.11,.11-.14,.17-.11-.11-.11-.22,.03-.31,.03,.06,.08,.11,.11,.14h0Z"/>
        <path class="cls-1" d="M311.1,177.83c.03-3.49-.47-6.89-1.42-10.23-.81-2.9-2.26-5.44-4.1-7.78-2.09-2.62-4.43-5.02-6.89-7.3-3.23-3.01-6.66-5.77-10.26-8.31-4.01-2.84-8.2-5.38-12.55-7.67-6.55-3.46-13.08-6.97-19.46-10.73-4.24-2.48-8.39-5.07-12.49-7.78-3.01-1.98-5.94-4.07-8.84-6.22-1.48-1.09-1.06-1.14-2.65,.03-7.22,5.41-14.8,10.26-22.61,14.78-6.72,3.9-13.55,7.53-20.41,11.18-5.66,3.01-11.01,6.55-15.98,10.62-2.43,2.01-4.82,4.07-7,6.36-2.34,2.45-4.66,4.96-6.38,7.92-1.98,3.43-3.23,7.11-3.49,11.07-.11,1.95-.03,3.9-.06,5.86,0,.64,0,1.31-.03,1.95,0,.22-.14,.36-.36,.39-.11,.03-.2,.03-.31,.03h-6.02c-.64,0-.75-.14-.75-.84,0-1-.08-2.01,.11-2.98,.08-.39,.08-.81,.03-1.2-.33-2.15-.08-4.29,.28-6.41,1.03-6.27,3.74-11.79,7.78-16.64,2.96-3.54,6.22-6.78,9.73-9.79,5.27-4.52,10.96-8.42,16.98-11.82,2.87-1.62,5.83-3.09,8.73-4.66,7.97-4.27,15.86-8.75,23.5-13.63,4.82-3.07,9.54-6.27,14.02-9.81,1.06-.84,2.09-1.7,3.12-2.57,.28-.22,.5-.31,.78-.06,.28,.22,.56,.45,.81,.67,4.41,3.62,9.03,6.94,13.83,10.09,8.25,5.41,16.78,10.34,25.48,14.97,2.96,1.56,5.94,3.12,8.84,4.77,7.36,4.21,14.19,9.17,20.44,14.94,3.4,3.12,6.55,6.47,9.23,10.23,1.84,2.59,3.18,5.44,3.99,8.5,.56,2.04,1.03,4.07,1.34,6.16,.2,1.34,.28,2.68,.31,4.04,.06,1.76,.03,3.51,0,5.27,0,.67-.11,.78-.81,.78h-5.86c-.59,0-.7-.14-.7-.72,.08-1.14,.08-2.29,.08-3.46h.02Z"/>
        <polygon class="cls-5" points="297.77 205.12 273.37 205.04 286.59 208.49 271.84 207.21 295.9 215.77 271.87 211.56 284.33 217.19 270.03 213.46 292.25 225.95 269.28 217.72 280.62 225.39 267.18 219.28 286.95 235.37 265.68 223.38 275.58 232.83 263.36 224.58 280.18 243.76 261.19 228.32 269.36 239.33 258.71 229.13 272.04 250.87 255.95 232.44 262.11 244.68 253.38 232.83 262.81 256.51 250.07 235.62 254.11 248.75 247.47 235.62 252.77 260.49 243.74 237.74 245.46 251.4 241.17 237.32 242.17 262.75 237.13 238.8 236.57 252.55 234.7 237.96 231.41 263.17 230.46 238.72 227.59 252.18 228.21 237.49 220.71 261.75 223.88 237.49 218.78 250.26 221.85 235.9 210.36 258.6 217.64 235.18 210.39 246.91 215.91 233.28 200.74 253.66 211.84 231.86 202.75 242.2 210.45 229.71 192.07 247.25 206.71 227.57 196 236.26 205.71 225.25 184.63 239.39 202.36 222.52 190.32 229.27 201.78 220.04 178.58 230.41 198.93 216.8 185.94 221.4 198.79 214.24 174.17 220.57 196.51 210.59 182.93 212.9 196.81 208.02 171.5 210.11 195.17 204.03 181.39 204.06 195.95 201.58 170.6 199.35 195 197.34 181.39 195.06 196.14 195.06 171.55 188.59 195.89 190.73 182.93 186.19 197.48 188.67 174.31 178.13 197.93 184.38 185.91 177.69 199.82 182.62 178.8 168.32 200.99 178.44 190.32 169.85 203.22 177.04 184.88 159.37 205.01 173.11 195.95 162.8 207.46 172.11 192.35 151.59 209.89 168.51 202.7 156.89 212.48 167.98 201.05 145.18 215.49 164.83 210.36 152.15 218.14 164.78 210.72 140.35 221.63 162.16 218.73 148.8 224.25 162.57 221.1 137.23 228.12 160.54 227.51 146.88 230.66 161.4 231.8 135.86 234.79 160.04 236.51 146.49 237.16 161.35 242.57 136.39 241.48 160.68 245.44 147.63 243.57 162.38 253.13 138.68 247.92 162.46 254.02 150.28 249.7 164.5 263.17 142.75 254 165.31 262.08 154.35 255.42 167.59 272.31 148.44 259.52 169.13 269.33 159.67 260.49 171.61 280.43 155.6 264.28 173.81 275.55 166.17 264.84 176.46 287.2 164.02 268.19 179.25 280.62 173.62 268.3 181.92 292.44 173.5 271.12 185.3 284.33 181.81 270.81 187.92 295.99 183.68 273.01 191.71 286.56 190.51 272.23 194.28 297.8 194.33 273.76 198.37 287.34 199.52 272.59 200.77 297.77 205.12"/>
        <path class="cls-1" d="M192.02,180.98c.56,.03,1.09,.06,1.64,.06h20.44c4.85,0,9.4,1.25,13.69,3.49,1.7,.89,3.29,1.9,4.82,3.04,.31,.25,.67,.45,.98,.7,.36,.28,.72,.25,1.09-.03,.98-.72,1.92-1.45,2.93-2.12,3.46-2.29,7.22-3.9,11.29-4.66,1.48-.28,2.96-.45,4.46-.45h18.04c.56,0,1.09-.03,1.64-.06,1.42,.08,2.84,.11,4.27,0,2.09,.11,4.18,.11,6.27,0,.56,.03,1.09,.06,1.64,.06h20.58c.59,.03,.67,.11,.7,.72,.03,1.7,.08,3.4,.08,5.1v88.83c0,2.12,.28,1.87-1.81,1.87h-51.55c-4.54,0-8.95,.89-13.19,2.51-.78,.31-1.56,.64-2.34,.98-1.28,.56-2.51,1.25-3.43,2.29-.17-.03-.28-.03-.33-.08-1.25-1.28-2.87-1.98-4.49-2.65-3.88-1.59-7.89-2.57-12.04-2.93-1.34-.11-2.7-.14-4.04-.14h-50.8c-.81-.03-.84-.06-.84-.86v-78.01c0-5.27-.06-10.51-.08-15.78v-1.2c.03-.56,.14-.67,.75-.67h9.01c.56,0,1.09-.06,1.64-.08h1.64c.84,.03,1.7,.06,2.54,.06,2.76,0,5.49-.03,8.25-.06,.53,.08,1.06,.08,1.59,0,1.62,.2,3.29,.17,4.96,.08h0Zm-28.22,48.45v43.75c0,2.54-.39,2.17,2.26,2.17h47.62c1.84,0,3.71,.08,5.55,.33,4.88,.61,9.51,1.95,13.8,4.32,.56,.31,1.06,.47,1.64,.03,.31-.22,.7-.36,1.06-.56,5.52-2.7,11.35-4.13,17.51-4.13h48.99c2.31,0,2.06,.33,2.06-2.09v-88.66c-.03-1.12-.08-1.2-1.17-1.25h-49.6c-1.09,0-2.2,.06-3.29,.22-3.54,.53-6.89,1.73-9.98,3.54-1.98,1.17-3.88,2.48-5.6,4.04-.59,.5-.7,.53-1.28,.03-1.56-1.34-3.21-2.54-4.96-3.6-4.6-2.79-9.54-4.24-14.94-4.24-15.59,.03-31.14,0-46.73,0h-1.81c-.76,.02-1.15,.41-1.17,1.17v1.06c.06,14.58,.06,29.22,.06,43.86h-.02Z"/>
        <path class="cls-1" d="M311.99,234.7v47.04c0,2.09,.25,1.81-1.84,1.81-19.49,0-38.98-.03-58.44,.03-5.46,.03-10.85,.98-16.09,2.65-1.14,.72-2.23,.45-3.4,.03-3.23-1.12-6.55-1.78-9.95-2.2-2.98-.36-5.97-.5-8.98-.5-18.54,.03-37.05,0-55.59,0h-1.34c-.36,0-.53-.22-.53-.56v-96.05c.02-.85,.43-1.28,1.23-1.28h.61c.56,.03,.67,.17,.7,.75v92.45c0,.64-.25,1.42,.17,1.9,.47,.56,1.31,.22,1.98,.22,18.23,.03,36.47,0,54.7,.03,5.38,0,10.65,.84,15.81,2.45,.72,.22,1.45,.42,2.15,.7s1.34,.22,2.04-.03c2.68-1,5.44-1.73,8.25-2.2,2.43-.42,4.85-.7,7.3-.84,2.45-.14,4.91-.08,7.36-.08h49.88c2.2,0,1.95,.25,1.95-1.9v-92.9c0-.39,.22-.53,.59-.53h1.06c.28,0,.47,.17,.47,.45,.03,.45,0,.89,0,1.37-.08,15.72-.08,31.48-.08,47.2h-.01Z"/>
        <path class="cls-1" d="M157.03,360.61c-.81-.53-1.37-.84-1.9-1.23-1.48-1.03-2.93-2.09-4.43-3.07-.72-.47-1-1.06-.89-1.87,.03-.14,0-.31,0-.45v-56.63c0-2.12-.22-1.84,1.81-1.87h4.21c.8,0,1.2,.43,1.2,1.28v63.84Z"/>
        <path class="cls-1" d="M310.76,359.67v-62.31c0-2.06-.28-1.84,1.84-1.84h4.66c.64,0,.7,.08,.72,.67,.03,.36,0,.7,0,1.06v56.15c0,.2-.03,.39,0,.61,.06,.64-.14,1.12-.72,1.51-1.95,1.31-3.85,2.7-5.77,4.04-.14,.08-.31,.22-.72,.11h-.01Z"/>
        <path class="cls-1" d="M307.72,176.24c.03,.75-.06,.86-.39,.92-.7,.06-.98-.06-1.06-.53-.11-.53-.2-1.09-.31-1.62-.33-1.51-.67-3.04-1.2-4.49-.59-1.67-1.37-3.21-2.37-4.68-2.29-3.32-5.05-6.22-7.97-8.95-4.49-4.15-9.4-7.81-14.55-11.07-2.84-1.78-5.8-3.4-8.75-4.93-4.66-2.43-9.26-4.99-13.8-7.61-4.82-2.79-9.54-5.69-14.14-8.81-2.62-1.76-5.19-3.6-7.67-5.52-.45-.33-.86-.67-1.34-.98-.22-.17-.47-.14-.7,.03-.28,.22-.56,.42-.84,.64-6.44,5.02-13.33,9.4-20.35,13.55-6.58,3.9-13.36,7.5-20.1,11.07-6.61,3.51-12.71,7.78-18.26,12.83-2.62,2.4-5.1,4.93-7.28,7.75-2.79,3.6-4.6,7.58-5.27,12.1-.03,.11-.03,.2-.06,.31-.17,.89-.28,.98-1.2,.92-.36-.03-.5-.2-.45-.61,.22-1.17,.39-2.37,.7-3.54,1.14-4.32,3.26-8.14,6.16-11.57,4.71-5.52,10.18-10.18,16.14-14.28,4.01-2.76,8.25-5.1,12.55-7.36,8.53-4.43,16.9-9.14,24.98-14.36,4.41-2.84,8.75-5.8,12.85-9.12,.56-.45,.64-.7,1.51,0,2.79,2.2,5.66,4.29,8.62,6.3,6.38,4.32,12.96,8.34,19.71,12.04,4.46,2.45,8.98,4.82,13.47,7.3,3.82,2.12,7.44,4.49,10.99,7.08,4.29,3.15,8.28,6.61,11.96,10.46,1.87,1.95,3.6,4.04,5.02,6.36,1.59,2.59,2.54,5.41,3.12,8.39,.08,.78,.2,1.51,.28,1.98h0Z"/>
        <path class="cls-1" d="M307.25,329.08v31.87c0,1.37-.08,1.45-1.37,1.95-.36,.14-.59,0-.61-.39-.03-.31,0-.61-.03-.89-.25-15.08-.2-30.17-.11-45.22,.03-4.8,.11-9.62,.11-14.41,0-1.64-.11-3.29-.14-4.93,0-.36,0-.7,.03-1.06,0-.31,.22-.42,.47-.47h.14c1.59,0,1.51-.14,1.51,1.42v32.13Z"/>
        <path class="cls-1" d="M162.66,329.41v32.45c-.03,1.31-.11,1.34-1.37,.81-.53-.22-.84-.5-.78-1.12,.03-.33,0-.7,0-1.06v-63.51c0-1.59-.11-1.51,1.59-1.48,.39,0,.53,.22,.53,.56v1.34c.03,10.68,.03,21.36,.03,32.01Z"/>
        <path class="cls-2" d="M228.71,327.27c.03,.06,.03,.11,.08,.14-.06-.03-.08-.08-.08-.14Z"/>
        <path class="cls-4" d="M163.8,229.43v-44.94c.02-.76,.41-1.15,1.17-1.17h1.81c15.59,0,31.14,.03,46.73,0,5.41,0,10.34,1.45,14.94,4.24,1.76,1.06,3.4,2.29,4.96,3.6,.59,.5,.7,.47,1.28-.03,1.73-1.53,3.6-2.87,5.6-4.04,3.09-1.81,6.44-3.01,9.98-3.54,1.09-.17,2.2-.22,3.29-.22h49.6c1.06,.06,1.14,.14,1.17,1.25v88.66c0,2.43,.25,2.09-2.06,2.09h-48.99c-6.16,0-11.99,1.42-17.51,4.13-.36,.17-.75,.31-1.06,.56-.59,.45-1.09,.28-1.64-.03-4.32-2.34-8.95-3.71-13.8-4.32-1.84-.22-3.68-.33-5.55-.33h-47.62c-2.65,0-2.26,.36-2.26-2.17-.06-14.55-.06-29.14-.06-43.72l.02-.02Zm9.31-10.43c.45,.86,.53,.95,1,.89,.7-.06,1.39-.2,2.09-.25,2.23-.25,4.46-.61,6.72-.7,5.41-.22,10.79-.17,16.17,.5,6.27,.81,12.41,2.15,18.43,4.13,.67,.22,1.34,.45,2.01,.67,.42,.11,.72-.06,.98-.5,.08-.17,.03-.31-.08-.39-.39-.2-.81-.39-1.23-.56-2.62-.98-5.33-1.73-8.06-2.43-3.88-.98-7.81-1.7-11.79-2.17-2.93-.36-5.88-.56-8.81-.67-3.79-.11-7.61,.03-11.38,.45-2.04,.25-4.01,.5-6.05,1.03h0Zm15.33-18.32c-1.81,.03-3.6,.03-5.41,.14-2.98,.2-5.97,.56-8.92,1.03-.25,.03-.47,.11-.72,.22-.22,.08-.25,.31-.17,.5,.08,.22,.25,.45,.53,.45,.5-.03,1-.06,1.48-.14,3.85-.7,7.75-.84,11.63-1,1.51-.06,2.98,0,4.49,.11,1.78,.11,3.6,.2,5.38,.36,5.74,.53,11.38,1.64,16.92,3.21,1.78,.5,3.51,1.12,5.3,1.7,.33,.11,.64,.28,1,.14,.22-.11,.47-.22,.5-.5,.03-.25-.2-.33-.36-.42-.5-.25-.98-.5-1.51-.7-.84-.31-1.7-.56-2.57-.81-8.95-2.82-18.15-4.35-27.57-4.29h0Zm92.29,34.63c2.31-.03,5.86,.14,9.37,.67,1.03,.17,2.09,.28,3.12,.42,.25,.03,.5,.06,.75,.03,.28-.03,.45-.25,.47-.53,.03-.22-.11-.36-.33-.45-.33-.11-.67-.22-1-.28-3.9-.64-7.83-.95-11.77-1.12-2.51-.11-4.99,.03-7.5,.17-5.55,.33-11.01,1.2-16.42,2.48-2.73,.64-5.41,1.45-8.06,2.31-.72,.22-1.42,.47-2.04,.92-.2,.14-.2,.33-.03,.5,.25,.28,.56,.42,.95,.31,.59-.17,1.14-.36,1.7-.56,9.56-3.18,19.41-4.91,30.78-4.88h0Zm-92.51-.02c1.39,.06,2.79,.11,4.21,.14,3.35,.08,6.69,.47,9.98,1,4.91,.78,9.7,1.9,14.41,3.46,.75,.25,1.53,.5,2.29,.75,.39,.14,.78,.17,1.14-.08,.11-.08,.2-.22,.25-.33,.06-.17-.08-.28-.22-.33-.92-.36-1.84-.78-2.79-1.09-5.58-1.81-11.26-3.12-17.09-3.9-4.21-.56-8.45-.86-12.71-.84-1.06,0-2.09,.14-3.15,.14-2.82,.03-5.58,.36-8.36,.75-.84,.11-1.67,.28-2.51,.45-.25,.06-.5,.14-.47,.47,.03,.36,.33,.7,.67,.67,.39-.03,.78-.11,1.2-.17,4.38-.75,8.75-1.12,13.16-1.09h-.01Zm90.47-34.6c-1.09,.03-2.68,.03-4.29,.11-3.04,.17-6.08,.5-9.09,.95-5.66,.86-11.18,2.23-16.56,4.07-.47,.17-.92,.39-1.37,.61-.17,.08-.39,.2-.25,.45,.08,.17,.28,.28,.45,.39,.25,.14,.5,.03,.72-.03,.75-.22,1.53-.47,2.29-.72,5.16-1.64,10.4-2.87,15.75-3.65,4.27-.61,8.53-.92,12.83-1,1.2-.03,2.4,.08,3.6,.11,2.54,.08,5.07,.28,7.61,.64,1.03,.14,2.09,.28,3.12,.42,.25,.03,.5,.03,.7-.17,.14-.14,.28-.31,.22-.53-.03-.11-.17-.28-.28-.31-.33-.11-.67-.17-1.03-.22-4.63-.75-9.26-1.2-14.41-1.12h0Zm.53,41.71c-.7-.14-1.62,.17-2.57,.17-3.32-.03-6.58,.36-9.87,.78-5.46,.75-10.82,1.95-16.09,3.62-1.09,.36-2.17,.75-3.26,1.17-.2,.06-.36,.2-.28,.45s.22,.47,.5,.5c.14,.03,.31-.03,.45-.03,1-.14,1.92-.56,2.87-.86,4.74-1.48,9.54-2.62,14.44-3.4,4.29-.67,8.64-1.06,12.99-1.12,1.64-.03,3.29,0,4.93,.11,3.01,.17,5.97,.42,8.95,.92,.39,.06,.81,.08,1.2,.14,.59,.06,.81-.06,.92-.47,.08-.31-.11-.53-.64-.67-.14-.03-.31-.06-.45-.08-4.54-.84-9.2-1.09-14.11-1.23h.02Zm-.72-33.79v.11c-1.14,0-2.31-.06-3.46,0-1.9,.11-3.79,.33-5.66,.5-2.54,.25-5.05,.64-7.56,1.12-3.74,.72-7.42,1.64-11.04,2.82-1.06,.33-2.09,.72-3.12,1.09-.28,.11-.59,.25-.5,.64,.06,.33,.45,.53,.84,.45,.31-.06,.59-.14,.86-.25,.75-.25,1.53-.5,2.29-.72,5.69-1.78,11.49-3.07,17.43-3.79,2.82-.33,5.66-.56,8.5-.64,1.56-.06,3.09-.03,4.66,0,2.09,.06,4.18,.17,6.27,.39,1.64,.17,3.26,.45,4.91,.67,.31,.03,.59,.06,.89,.06,.33,0,.61-.25,.64-.53,.03-.31-.17-.47-.42-.56-.22-.08-.47-.11-.72-.17-2.65-.53-5.33-.81-8.03-1-2.29-.06-4.52-.08-6.78-.17v-.02Zm-89.08,.11h-2.4c-3.76-.06-7.47,.36-11.18,.89-.75,.11-1.48,.25-2.2,.39-.25,.06-.45,.28-.39,.56,.03,.25,.22,.47,.47,.5,.39,.03,.81,0,1.2-.08,4.41-.75,8.81-1.06,13.27-1.09,1.78,0,3.6,.11,5.38,.2,3.96,.2,7.86,.75,11.74,1.45,4.49,.84,8.87,2.04,13.19,3.43,.39,.11,.75,.25,1.14,.33,.33,.08,.56-.08,.75-.36,.14-.2,.11-.42-.06-.5-.53-.25-1.09-.5-1.64-.7-3.4-1.17-6.86-2.15-10.4-2.9-4.29-.92-8.64-1.62-13.02-1.92-1.98-.11-3.9-.2-5.86-.2h0Zm105.03,52.11c0-.14-.03-.33-.17-.36-.39-.11-.78-.22-1.17-.28-4.6-.75-9.23-1.06-13.88-1.14-1.06-.03-2.09,.11-3.15,.11-2.2,0-4.41,.22-6.58,.45-4.18,.45-8.31,1.2-12.41,2.2-2.93,.72-5.8,1.59-8.64,2.57-.33,.11-.64,.25-.98,.39-.31,.14-.33,.47-.08,.75,.17,.22,.39,.31,.67,.22,.53-.14,1.06-.28,1.59-.47,5.66-1.87,11.46-3.23,17.37-4.07,3.26-.45,6.55-.75,9.84-.86,4.01-.11,8,0,11.99,.5,1.53,.2,3.07,.42,4.6,.64,.56,.08,.92-.17,1-.64h0Zm-109.74-18.3c-3.57,.17-6.94,.53-10.29,1.09-.33,.06-.67,.14-1,.25-.17,.06-.2,.22-.17,.36,.06,.36,.28,.61,.56,.59,.59-.06,1.2-.14,1.78-.22,3.51-.53,7.05-.84,10.59-.92,4.35-.11,8.7,.17,13.02,.7,4.21,.53,8.39,1.34,12.49,2.4,2.37,.61,4.71,1.31,7.03,2.12,.33,.11,.67,.22,1,.31,.31,.06,.7-.2,.81-.56,.11-.42-.25-.47-.5-.59-.56-.22-1.12-.42-1.7-.61-2.98-1.03-6.02-1.87-9.09-2.57-4.54-1.06-9.12-1.76-13.75-2.15-3.68-.28-7.3-.25-10.79-.2h0Zm94.66-25.01c-2.76-.08-5.66,.11-8.53,.39-4.93,.45-9.81,1.31-14.61,2.51-2.9,.72-5.77,1.59-8.59,2.68-.22,.08-.5,.14-.47,.47,.03,.31,.47,.64,.75,.59,.39-.08,.78-.2,1.14-.33,.86-.28,1.7-.56,2.57-.84,4.82-1.48,9.73-2.62,14.75-3.35,3.9-.59,7.83-.86,11.79-.98,1.7-.06,3.4,.03,5.1,.11,2.7,.11,5.38,.39,8.06,.72,.75,.08,1.48,.22,2.23,.33,.2,.03,.42,0,.59-.06,.2-.08,.33-.25,.31-.47-.03-.14-.08-.31-.2-.39-.22-.2-.53-.22-.84-.28-4.63-.72-9.26-1.2-14.05-1.12v.02Zm-91.28,42.8c3.57-.06,7.05,.2,10.54,.61,4.99,.56,9.87,1.53,14.69,2.9,1.92,.56,3.82,1.2,5.72,1.78,.28,.08,.59,.2,.86,.2,.33,0,.5-.31,.59-.59,.08-.25-.14-.36-.31-.45-.64-.25-1.28-.53-1.95-.75-4.91-1.62-9.9-2.82-14.97-3.68-4.85-.81-9.7-1.2-14.61-1.28-3.09-.06-6.19,.17-9.28,.5-1.9,.22-3.76,.56-5.63,.84-.2,.03-.39,.06-.45,.31-.06,.36,.22,.78,.53,.75,.25,0,.5-.06,.75-.08,4.52-.7,9.03-1.12,13.52-1.06Zm91.23-34.63c-1.2,0-2.4,.06-3.6,.08-3.21,.11-6.38,.45-9.54,.89-5.8,.81-11.49,2.15-17.04,4.07-.61,.22-1.2,.47-1.81,.72-.22,.08-.25,.28-.11,.47,.22,.31,.45,.53,.86,.39,.28-.08,.59-.14,.86-.25,4.68-1.62,9.48-2.82,14.36-3.71,3.65-.67,7.3-1.14,11.01-1.28,2.43-.08,4.88-.25,7.33-.14,2.73,.14,5.49,.25,8.22,.61,1.14,.14,2.29,.31,3.4,.47,.31,.06,.61,.06,.86-.11,.11-.06,.22-.2,.28-.31,.08-.22-.08-.39-.22-.5-.33-.22-.72-.28-1.14-.33-4.57-.7-9.15-1.14-13.75-1.09l.03,.02Zm-92.12-.03c-2.62-.03-6.55,.28-10.46,.78-1.03,.14-2.06,.33-3.09,.53-.22,.03-.36,.2-.39,.42-.03,.28,.14,.47,.39,.59,.39,.17,.78,.06,1.17,0,1.78-.31,3.57-.47,5.35-.7,2.48-.31,4.99-.2,7.47-.45,.39-.03,.81-.06,1.2,.03,.7,.14,1.39,.11,2.09,.11,2.4-.06,4.8,.2,7.17,.45,6.16,.7,12.21,1.98,18.15,3.88,1.06,.33,2.09,.7,3.12,1.06,.53,.17,.72,.11,1.03-.33,.14-.2,.17-.42-.06-.5-.39-.22-.81-.39-1.23-.53-3.15-1.12-6.38-2.01-9.65-2.79-6.89-1.64-13.86-2.48-22.28-2.54h.02Zm91.37,25.33c-.98,.06-2.79,.14-4.57,.22-3.04,.14-6.08,.5-9.09,.98-5.55,.86-10.96,2.26-16.28,4.07-.36,.14-.75,.31-1.09,.5-.2,.11-.47,.25-.33,.56,.11,.22,.36,.39,.61,.36,.31-.03,.59-.08,.86-.2,1-.31,2.01-.64,3.01-.98,4.27-1.31,8.59-2.37,12.96-3.07,5.44-.89,10.9-1.34,16.42-1.23,1.25,.03,2.51,.06,3.74,.14,2.79,.22,5.58,.47,8.34,.98,.28,.06,.61,.06,.89-.03,.25-.06,.39-.28,.39-.56,0-.22-.14-.39-.33-.45-.59-.14-1.17-.28-1.76-.36-4.27-.59-8.62-.89-13.77-.95v.02Zm-90.67-58.88c-1.7-.03-3.99,.03-6.3,.22-2.48,.22-4.96,.53-7.42,.98-.25,.06-.5,.08-.72,.17-.28,.08-.31,.53-.08,.75,.39,.36,.81,.25,1.28,.17,4.24-.72,8.53-1.09,12.83-1.12,3.65-.03,7.28,.2,10.93,.61,4.63,.53,9.2,1.39,13.69,2.62,2.31,.64,4.6,1.37,6.89,2.06,.25,.08,.47,.17,.72,.22,.33,.08,.64-.17,.78-.56,.11-.36-.2-.42-.39-.5-.64-.28-1.28-.53-1.95-.75-4.43-1.45-8.92-2.59-13.49-3.4-5.38-1-10.73-1.53-16.76-1.48h-.01Zm.89,60.15c2.73-.03,5.91,.22,9.09,.56,4.04,.42,8.03,1.12,11.96,2.06,3.01,.72,5.99,1.59,8.92,2.57,.33,.11,.67,.22,1,.28,.31,.06,.72-.28,.75-.59,.03-.33-.25-.39-.47-.47-.42-.17-.84-.33-1.25-.47-6.3-2.23-12.8-3.62-19.41-4.49-3.57-.47-7.17-.67-10.76-.7-4.41-.03-8.78,.31-13.16,1-.64,.11-1.28,.22-1.9,.39-.17,.06-.33,.22-.31,.45,.03,.28,.17,.53,.42,.53,.33,.03,.7-.03,1.03-.08,4.52-.67,9.03-1.06,14.08-1.03h0Zm90.39-60.15c-3.54-.11-7.39,.22-11.21,.67-5.97,.72-11.82,2.04-17.54,3.9-.95,.31-1.9,.64-2.82,1-.36,.14-.5,.42-.39,.7,.14,.31,.42,.45,.72,.36,.39-.08,.78-.2,1.14-.31,1.48-.47,2.96-.98,4.43-1.39,6.16-1.76,12.43-2.96,18.85-3.46,1.78-.14,3.6-.22,5.38-.28,2.26-.08,4.49,0,6.75,.14,2.98,.2,5.97,.47,8.92,1.03,.25,.06,.5,.06,.72-.08,.17-.11,.33-.28,.28-.5-.03-.14-.11-.31-.22-.36-.22-.11-.47-.17-.7-.22-4.63-.86-9.28-1.28-14.33-1.2h.02Z"/>
        <path class="cls-1" d="M228.71,327.27c.03,.06,.03,.11,.08,.14-.06-.03-.08-.08-.08-.14Z"/>
        <path class="cls-1" d="M317.98,290.55c-.03,.78-.06,.81-.89,.81h-16.53c-.56,0-1.12,0-1.64,.03-.28,0-.45,.2-.45,.47-.03,.5-.03,1-.03,1.51v70.96c0,2.12,.36,1.51-1.56,2.62-6.61,3.79-13.55,6.91-20.74,9.42-5.33,1.87-10.79,3.37-16.34,4.52-5.63,1.14-11.32,1.98-17.09,2.34-1.64,.11-3.29,.11-4.93,.22-1.45,.08-2.9,.17-4.35,.14-5.13-.17-10.29-.39-15.39-1.03-7.42-.92-14.69-2.48-21.83-4.68-6.16-1.9-12.18-4.24-18.01-7.08-2.57-1.25-5.1-2.54-7.58-3.96-.25-.14-.53-.31-.78-.45-.28-.17-.42-.42-.42-.72v-73.69c-.03-.33-.17-.56-.56-.59h-17.29c-.39,0-.81,0-1.2-.03-.28,0-.47-.17-.47-.45-.03-.5-.03-1-.03-1.51v-99.95c.03-.75,.11-.84,.89-.84,1.03,0,1.06,.03,1.09,1.09v97.72c0,.5,0,1,.03,1.51,0,.22,.17,.36,.39,.39,.14,.03,.31,.03,.45,.03h161.24c.5,0,1,0,1.51-.03,.39,0,.53-.22,.53-.59v-99.23c.03-.86,.08-.92,.95-.95,1.03,0,1.06,0,1.09,1.09v99.37c-.03,.53,0,1.03-.03,1.53h-.03Z"/>
        <path class="cls-1" d="M173.11,219.01c2.04-.53,4.01-.78,6.02-1,3.79-.42,7.58-.59,11.38-.45,2.96,.08,5.88,.31,8.81,.67,3.99,.47,7.92,1.2,11.79,2.17,2.7,.7,5.41,1.45,8.06,2.43,.42,.17,.84,.33,1.23,.56,.11,.06,.17,.22,.08,.39-.25,.45-.56,.61-.98,.5-.67-.2-1.34-.45-2.01-.67-5.99-1.98-12.13-3.35-18.43-4.13-5.38-.7-10.79-.75-16.17-.5-2.23,.08-4.46,.45-6.72,.7-.7,.08-1.39,.2-2.09,.25-.45,.03-.53-.06-.98-.92h0Z"/>
        <path class="cls-1" d="M188.45,200.69c9.42-.06,18.6,1.51,27.6,4.24,.86,.25,1.73,.53,2.57,.81,.5,.2,1,.45,1.51,.7,.17,.08,.39,.17,.36,.42-.03,.28-.28,.42-.5,.5-.36,.17-.67-.03-1-.14-1.76-.56-3.51-1.17-5.3-1.7-5.55-1.59-11.18-2.68-16.92-3.21-1.78-.17-3.6-.25-5.38-.36-1.51-.08-3.01-.17-4.49-.11-3.9,.17-7.78,.33-11.63,1-.5,.08-1,.11-1.48,.14-.28,.03-.45-.2-.53-.45-.08-.2-.03-.42,.17-.5,.22-.11,.47-.17,.72-.22,2.96-.47,5.94-.84,8.92-1.03,1.78-.08,3.6-.08,5.38-.08h0Z"/>
        <path class="cls-1" d="M280.73,235.32c-11.38-.06-21.22,1.7-30.84,4.88-.56,.2-1.14,.39-1.7,.56-.36,.11-.7-.03-.95-.31-.14-.17-.17-.36,.03-.5,.61-.45,1.34-.67,2.04-.92,2.65-.86,5.35-1.67,8.06-2.31,5.41-1.28,10.87-2.15,16.42-2.48,2.48-.14,4.99-.28,7.5-.17,3.93,.17,7.86,.47,11.77,1.12,.33,.06,.67,.17,1,.28,.2,.06,.36,.22,.33,.45-.03,.25-.2,.47-.47,.53-.25,.03-.5,.03-.75-.03-1.03-.14-2.09-.25-3.12-.42-3.46-.53-7-.7-9.31-.67h-.01Z"/>
        <path class="cls-1" d="M188.22,235.29c-4.41-.03-8.78,.33-13.13,1.03-.39,.06-.78,.14-1.2,.17-.33,.03-.67-.28-.67-.67-.03-.31,.22-.42,.47-.47,.84-.17,1.67-.31,2.51-.45,2.76-.39,5.55-.72,8.36-.75,1.06,0,2.09-.14,3.15-.14,4.27-.03,8.5,.25,12.71,.84,5.8,.78,11.51,2.09,17.09,3.9,.95,.31,1.87,.72,2.79,1.09,.14,.06,.28,.17,.22,.33-.03,.14-.14,.28-.25,.33-.36,.25-.75,.22-1.14,.08-.75-.25-1.53-.5-2.29-.75-4.71-1.56-9.54-2.7-14.41-3.46-3.32-.53-6.64-.92-9.98-1-1.45,.03-2.84-.03-4.24-.08h.01Z"/>
        <path class="cls-1" d="M278.7,200.69c5.16-.08,9.79,.33,14.39,1.12,.33,.06,.7,.11,1.03,.22,.11,.03,.25,.2,.28,.31,.06,.2-.08,.36-.22,.53-.2,.2-.45,.2-.7,.17-1.03-.14-2.09-.28-3.12-.42-2.54-.36-5.07-.56-7.61-.64-1.2-.03-2.4-.14-3.6-.11-4.29,.11-8.56,.39-12.83,1-5.35,.78-10.59,2.04-15.75,3.65-.75,.25-1.51,.5-2.29,.72-.22,.06-.47,.2-.72,.03-.17-.11-.33-.22-.45-.39-.14-.25,.11-.36,.25-.45,.45-.22,.89-.45,1.37-.61,5.41-1.87,10.93-3.23,16.56-4.07,3.01-.45,6.05-.78,9.09-.95,1.64-.08,3.23-.08,4.32-.11h0Z"/>
        <path class="cls-1" d="M279.23,242.4c4.91,.14,9.56,.42,14.14,1.23,.14,.03,.31,.06,.45,.08,.53,.14,.72,.36,.64,.67-.11,.42-.36,.53-.92,.47-.39-.06-.81-.08-1.2-.14-2.96-.5-5.94-.75-8.95-.92-1.64-.08-3.29-.11-4.93-.11-4.35,.06-8.67,.45-12.99,1.12-4.91,.78-9.7,1.92-14.44,3.4-.95,.31-1.87,.72-2.87,.86-.14,.03-.31,.06-.45,.03-.28-.06-.42-.28-.5-.5-.08-.25,.08-.36,.28-.45,1.09-.39,2.15-.81,3.26-1.17,5.24-1.7,10.62-2.9,16.09-3.62,3.26-.45,6.55-.81,9.87-.78,.92,0,1.84-.31,2.54-.17h-.02Z"/>
        <path class="cls-1" d="M278.5,208.61c2.26,.08,4.49,.08,6.75,.25,2.7,.17,5.38,.47,8.03,1,.25,.06,.5,.06,.72,.17,.25,.08,.45,.25,.42,.56-.03,.28-.31,.53-.64,.53-.31,0-.61-.03-.89-.06-1.64-.22-3.26-.5-4.91-.67-2.09-.22-4.18-.36-6.27-.39-1.56-.03-3.09-.06-4.66,0-2.84,.08-5.69,.28-8.5,.64-5.91,.72-11.71,2.01-17.43,3.79-.75,.25-1.53,.5-2.29,.72-.28,.08-.59,.2-.86,.25-.42,.08-.78-.14-.84-.45-.06-.39,.22-.53,.5-.64,1.03-.36,2.06-.75,3.12-1.09,3.62-1.17,7.3-2.09,11.04-2.82,2.51-.47,5.02-.89,7.56-1.12,1.9-.17,3.76-.39,5.66-.5,1.14-.08,2.31,0,3.46,0,.03-.11,.03-.14,.03-.2v.03Z"/>
        <path class="cls-1" d="M189.42,208.72c1.95,0,3.88,.08,5.83,.22,4.41,.31,8.73,1,13.02,1.92,3.51,.75,6.97,1.73,10.4,2.9,.56,.2,1.12,.45,1.64,.7,.17,.08,.2,.31,.06,.5-.2,.25-.42,.45-.75,.36-.39-.08-.78-.22-1.14-.33-4.32-1.42-8.7-2.62-13.19-3.43-3.88-.72-7.78-1.25-11.74-1.45-1.78-.08-3.6-.22-5.38-.2-4.46,.03-8.87,.33-13.27,1.09-.39,.06-.78,.08-1.2,.08-.28,0-.45-.22-.47-.5-.06-.28,.14-.5,.39-.56,.72-.17,1.48-.28,2.2-.39,3.71-.53,7.44-.95,11.18-.89,.81-.03,1.62-.03,2.43-.03h0Z"/>
        <path class="cls-1" d="M294.48,260.83c-.11,.47-.47,.72-1,.64-1.53-.22-3.07-.45-4.6-.64-3.99-.5-7.97-.61-11.99-.5-3.29,.11-6.58,.39-9.84,.86-5.91,.84-11.68,2.2-17.37,4.07-.53,.17-1.06,.33-1.59,.47-.25,.06-.47-.03-.67-.22-.22-.28-.2-.61,.08-.75,.31-.14,.64-.28,.98-.39,2.84-.95,5.72-1.84,8.64-2.57,4.1-1,8.22-1.76,12.41-2.2,2.17-.22,4.38-.45,6.58-.45,1.06,0,2.09-.14,3.15-.11,4.66,.06,9.28,.39,13.88,1.14,.39,.06,.78,.17,1.17,.28,.14,.06,.14,.22,.17,.36h0Z"/>
        <path class="cls-1" d="M184.71,242.54c3.46-.06,7.11-.08,10.73,.2,4.63,.36,9.23,1.09,13.75,2.15,3.07,.7,6.11,1.53,9.09,2.57,.56,.2,1.14,.39,1.7,.61,.28,.11,.64,.17,.5,.59-.11,.36-.5,.61-.81,.56-.33-.08-.67-.17-1-.31-2.31-.81-4.66-1.51-7.03-2.12-4.13-1.06-8.28-1.87-12.49-2.4-4.32-.53-8.64-.78-13.02-.7-3.54,.08-7.08,.39-10.59,.92-.59,.08-1.2,.17-1.78,.22-.28,.03-.5-.25-.56-.59-.03-.14,0-.31,.17-.36,.33-.11,.67-.2,1-.25,3.4-.56,6.78-.92,10.34-1.09h0Z"/>
        <path class="cls-1" d="M279.37,217.53c4.8-.08,9.42,.39,14,1.12,.31,.06,.61,.08,.84,.28,.11,.08,.17,.25,.2,.39,.03,.22-.11,.39-.31,.47-.17,.08-.39,.08-.59,.06-.75-.08-1.48-.22-2.23-.33-2.68-.33-5.35-.59-8.06-.72-1.7-.08-3.4-.14-5.1-.11-3.93,.11-7.86,.39-11.79,.98-5.02,.72-9.93,1.87-14.75,3.35-.86,.25-1.7,.56-2.57,.84-.39,.11-.75,.25-1.14,.33-.28,.06-.75-.31-.75-.59-.03-.31,.25-.36,.47-.47,2.79-1.09,5.66-1.95,8.59-2.68,4.8-1.2,9.67-2.06,14.61-2.51,2.93-.25,5.83-.45,8.59-.39v-.02Z"/>
        <path class="cls-1" d="M188.09,260.33c-4.49-.06-9.01,.36-13.52,1.06-.25,.03-.5,.08-.75,.08-.31,0-.59-.39-.53-.75,.03-.25,.25-.28,.45-.31,1.87-.28,3.76-.61,5.63-.84,3.07-.36,6.16-.56,9.28-.5,4.91,.06,9.79,.47,14.61,1.28,5.07,.86,10.09,2.06,14.97,3.68,.67,.22,1.31,.5,1.95,.75,.17,.08,.39,.2,.31,.45-.08,.28-.25,.59-.59,.59-.28,0-.59-.08-.86-.2-1.9-.59-3.79-1.23-5.72-1.78-4.82-1.39-9.7-2.34-14.69-2.9-3.49-.39-6.97-.64-10.54-.61Z"/>
        <path class="cls-1" d="M279.31,225.7c4.6-.06,9.17,.39,13.75,1.06,.39,.06,.81,.11,1.14,.33,.17,.11,.33,.28,.22,.5-.06,.11-.17,.25-.28,.31-.28,.14-.56,.14-.86,.11-1.14-.17-2.29-.33-3.4-.47-2.73-.36-5.46-.47-8.22-.61-2.45-.11-4.88,.03-7.33,.14-3.71,.14-7.36,.64-11.01,1.28-4.88,.89-9.67,2.09-14.36,3.71-.28,.11-.59,.17-.86,.25-.42,.14-.67-.08-.86-.39-.14-.2-.11-.39,.11-.47,.59-.25,1.2-.5,1.81-.72,5.55-1.9,11.24-3.23,17.04-4.07,3.18-.45,6.33-.78,9.54-.89,1.2,0,2.4-.06,3.6-.06h-.03Z"/>
        <path class="cls-1" d="M187.19,225.67c8.42,.06,15.39,.89,22.28,2.51,3.26,.75,6.47,1.67,9.65,2.79,.42,.14,.84,.33,1.23,.53,.2,.11,.2,.33,.06,.5-.31,.42-.5,.5-1.03,.33-1.03-.33-2.09-.72-3.12-1.06-5.91-1.9-11.99-3.15-18.15-3.88-2.37-.28-4.77-.5-7.17-.45-.7,.03-1.39,.03-2.09-.11-.39-.08-.81-.06-1.2-.03-2.48,.25-4.99,.14-7.47,.45-1.78,.22-3.57,.39-5.35,.7-.39,.06-.78,.2-1.17,0-.25-.11-.42-.31-.39-.59,.03-.2,.17-.36,.39-.42,1.03-.2,2.06-.39,3.09-.53,3.93-.47,7.86-.78,10.46-.75h-.02Z"/>
        <path class="cls-1" d="M278.56,251.01c5.16,.06,9.51,.36,13.8,1,.59,.08,1.17,.22,1.76,.36,.2,.06,.33,.22,.33,.45,0,.28-.17,.5-.39,.56-.28,.06-.61,.06-.89,.03-2.76-.5-5.55-.75-8.34-.98-1.25-.11-2.51-.11-3.74-.14-5.52-.11-10.99,.33-16.42,1.23-4.41,.72-8.73,1.76-12.96,3.07-1,.31-2.01,.64-3.01,.98-.28,.08-.59,.17-.86,.2-.25,.03-.5-.14-.61-.36-.14-.31,.11-.45,.33-.56,.36-.2,.72-.36,1.09-.5,5.3-1.81,10.71-3.21,16.28-4.07,3.01-.47,6.05-.84,9.09-.98,1.76-.14,3.57-.22,4.54-.28h0Z"/>
        <path class="cls-1" d="M187.89,192.13c6.02-.06,11.38,.5,16.7,1.45,4.57,.84,9.09,1.95,13.49,3.4,.67,.22,1.31,.47,1.95,.75,.2,.08,.5,.14,.39,.5-.14,.39-.45,.64-.78,.56-.25-.06-.47-.17-.72-.22-2.29-.7-4.57-1.45-6.89-2.06-4.49-1.23-9.06-2.09-13.69-2.62-3.62-.42-7.28-.64-10.93-.61-4.29,.03-8.59,.39-12.83,1.12-.45,.08-.89,.2-1.28-.17-.22-.22-.2-.67,.08-.75,.22-.08,.47-.11,.72-.17,2.45-.45,4.93-.75,7.42-.98,2.37-.17,4.66-.22,6.36-.2h0Z"/>
        <path class="cls-1" d="M188.78,252.27c-5.05-.03-9.56,.36-14.05,1.09-.33,.06-.7,.11-1.03,.08-.28-.03-.42-.28-.42-.53-.03-.22,.14-.42,.31-.45,.64-.17,1.25-.28,1.9-.39,4.35-.67,8.73-1,13.16-1,3.6,.03,7.19,.22,10.76,.7,6.61,.86,13.1,2.26,19.41,4.49,.42,.14,.84,.31,1.25,.47,.22,.08,.5,.11,.47,.47-.03,.31-.45,.64-.75,.59-.33-.06-.67-.17-1-.28-2.96-.98-5.91-1.84-8.92-2.57-3.96-.95-7.92-1.64-11.96-2.06-3.21-.39-6.41-.64-9.12-.61h0Z"/>
        <path class="cls-1" d="M279.17,192.13c5.02-.06,9.7,.36,14.33,1.2,.25,.06,.47,.11,.7,.22,.11,.06,.2,.22,.22,.36,.06,.22-.11,.36-.28,.5-.22,.17-.47,.14-.72,.08-2.96-.53-5.94-.84-8.92-1.03-2.26-.14-4.49-.22-6.75-.14-1.78,.06-3.6,.14-5.38,.28-6.41,.5-12.66,1.7-18.85,3.46-1.48,.42-2.96,.95-4.43,1.39-.39,.11-.75,.22-1.14,.31-.33,.08-.59-.06-.72-.36-.11-.25,.03-.56,.39-.7,.95-.33,1.87-.7,2.82-1,5.72-1.84,11.57-3.15,17.54-3.9,3.85-.47,7.67-.78,11.21-.67h-.02Z"/>
        <path class="cls-3" d="M252.04,356.43c-.33-.22-.61-.47-.92-.75-.45-.42-.86-.78-1.17-1.23-.84-1.14-1.31-2.45-1.98-3.96-.5-.72-1.48-.95-2.51-.98-1.45-.06-3.15-.06-4.54,.31-2.15,3.9-1.12,7.11,.11,11.1,.22,.67,.08,1.39-.03,2.09-.22,1.12-.61,2.09-1.12,3.18-.14,.33-.47,1.17-.95,1.09-.08-.03-.45-.22-.59-.33-.11,.08-.22,.2-.33,.28,.25,.14,.56,.33,.59,.36,.2,.11,.39,.22,.59,.33,.08,.06,.14,.11,.14,.22,.03,.14-.06,.28-.17,.33-.72,.45-2.31-1.14-2.73-1.42-1.9-.53-2.45,.95-2.87,2.43-.25,.86-.28,2.04,.92,2.23-.03-.95,.03-2.51,.67-3.32,.33-.42,1.06-.72,1.53-.36,.31,.25,.03,.36-.25,.42-.78,.14-1.17,.95-1.25,1.73-.03,.47-.06,1,.14,1.39,.14,.22,.59,.25,.75,.28-.11-.78,.17-1.87,.75-2.43,.33-.31,.81-.36,1.45,.03,.06,.03,.06,.14,.03,.2-.28,.22-.61,.17-.86,.22s-.45,.39-.59,1.14c-.11,.64,.06,1.12,1.64,.98,.33-.31,.72-.47,1.03-.45,.31,0,.64,.22,1.2,.53,2.2,0,3.4-1.76,4.71-3.29,1.45-1.76,2.84-3.57,4.13-5.46,.25-.33,.22-.67,.11-1.09-.56-2.01-.08-3.71,1.34-5.02,.31-.39,.61-.61,1.03-.78h0Zm-43.8-36.58c-.14-1-.5-1.95-.64-2.96s-.2-2.01-.22-3.04c-.03-.36,.03-.67-.08-.92-.25-.5-.86-.75-1.56-.84-.95-.14-1.31,.36-2.01,1.34-.45,.67-.75,.89-1.59,.64-.61-.2-1.2-.33-1.76-.42-.17-.03-.14,0-.22,.14-.22,.36-.47,.78-.75,.78-.36,0-.59-.42-.81-.78-.11-.17-.27-.24-.47-.22-.61,.06-1.23,.14-1.95,.25-.59,.08-.92-.22-1.25-.75-.17-.28-.47-.72-.53-.78-.47-.47-1.37-.33-1.84-.14-.61,.25-.92,.81-.98,1.81,.06,.67,.06,1.28-.03,1.87-.14,1.12-.61,2.06-.72,3.18-.39,3.35-.06,5.52,2.37,8.22,.95,.84,1.67,1.64,2.48,2.01,1.14,.5,2.96-.28,3.09-1.62,.08-.72-.33-1.28-.78-1.87-.31-.42-.56-.7-.59-1.23-.06-1.06,.11-3.07-1.06-3.51-.5,0-.98-.03-1.45-.06-.95-.03-1.62-.5-2.06-1.34-.17-.36-.33-.75-.92-.84v-.64c1.76,.14,3.18-.53,4.8,.42,.5,.28,.72,.47,.86,1.03,.42,1.48-.08,3.57,.39,4.6,.14,.25,.22,.36,.47,.39,.78,.06,.95,.06,1.45,.06,.42-.03,.5-.17,.64-.59,.42-1.12,.2-2.7,.42-3.93,.14-.92,.42-1.53,1.59-1.81,1.62-.36,3.01,.33,4.6,.36v.47c-1.37,.25-1.34,1.81-3.01,1.9-.72,.06-1.48,.03-2.15,.22-.53,.17-.59,.36-.7,.92-.17,.78-.08,1.67-.28,2.51-.06,.2-.08,.39-.17,.56-.17,.2-.33,.36-.47,.53-.53,.64-.84,1.17-.84,1.73,.06,1.62,2.34,2.43,3.49,1.87,.98-.47,1.92-.98,2.7-1.67,.84-.75,1.51-1.51,1.92-2.43,.36-.78,.53-1.73,.67-2.68,.08-.84,.08-1.76-.06-2.76v.02Zm-13.26,4.68c.17-.03,.28,.14,.42,.22,.72,.42,.53,.36,1.23,.75,.2,.08,.25,.08,.28,.14,.17,.22-.08,.36-.39,.28-.86-.22-1.39-.39-1.67-1.06-.08-.11-.03-.31,.14-.33h0Zm-.5,1.12c.17-.06,.22,.08,.33,.2,.56,.56,1.03,.72,1.81,.95,.2,.06,.22,.17,.28,.22,.17,.22-.06,.31-.36,.25-.89-.14-2.09-.33-2.17-1.25-.03-.14-.06-.33,.11-.36h0Zm-.39,1.16c.17-.06,.22,.08,.33,.2,.59,.56,1.17,.78,1.95,1,.22,.06,.25,.06,.31,.14,.17,.22-.08,.39-.39,.36-.89-.14-2.23-.42-2.34-1.31,0-.14,0-.33,.14-.39Zm3.09-9.2c-.59-.25-1.14-.95-.86-1.34,.28-.42,.72-.42,1.03,0,.17,.22,.33,.7,.28,1.14,.03,.17-.11,.33-.45,.2h0Zm4.29,0c-.06,0-.17-.03-.17-.08,.06-1.03,.95-1.84,1.64-1.23,.64,.56-.72,1.2-1.48,1.31h0Zm0,8.25c.06-.06,.08-.06,.28-.14,.7-.42,.47-.36,1.23-.75,.11-.08,.25-.25,.42-.22s.22,.22,.17,.36c-.28,.67-.78,.84-1.67,1.06-.33,.06-.56-.08-.42-.31h0Zm.28,1.34c.06-.06,.06-.17,.25-.22,.78-.22,1.23-.36,1.81-.95,.08-.08,.17-.25,.33-.2,.17,.03,.14,.22,.14,.36-.08,.92-1.31,1.12-2.17,1.25-.31,.06-.56-.03-.36-.25h0Zm2.84,.43c-.22,.89-1.56,1.03-2.45,1.03-.31,.03-.53-.2-.33-.39,.06-.06,.11-.06,.33-.08,.78-.14,1.39-.28,2.04-.78,.11-.08,.2-.22,.36-.17,.14,.06,.08,.25,.06,.39h0Zm-.45-8.25c.06,.08,.06,.17,.06,.25,0,.36-.28,.64-.64,.64s-.64-.28-.64-.64c0-.08,.03-.17,.06-.25-.14,.03-.25,.03-.39,.03-.36,.03-.64,.17-.42,.72,.22,.53,.84,.72,1.34,.72,.64,0,1.48-.28,1.45-1.34-.25-.11-.53-.14-.81-.14h0Zm-8.17-.05c-.08-.03-.22-.03-.33-.03v.08c0,.36-.28,.64-.64,.64s-.64-.28-.64-.64c0-.06,0-.11,.03-.17-.39,0-.7,.03-.72,.06,.06,.84,.33,1.31,1.25,1.37,.47,.06,1.23-.03,1.48-.64,.11-.31,.03-.59-.42-.67h0Zm27.55,3.43c-1,0-1.81,.81-1.81,1.81s.81,1.81,1.81,1.81,1.81-.81,1.81-1.81-.81-1.81-1.81-1.81Zm2.62,3.09c-1,0-1.81,.81-1.81,1.81s.81,1.81,1.81,1.81,1.81-.81,1.81-1.81c.03-1-.81-1.81-1.81-1.81Zm2.45,3.26c-1,0-1.81,.81-1.81,1.81s.81,1.81,1.81,1.81,1.81-.81,1.81-1.81-.81-1.81-1.81-1.81Zm2.2,3.49c-1,0-1.84,.81-1.84,1.81s.84,1.81,1.84,1.81,1.81-.81,1.81-1.81-.84-1.81-1.81-1.81Zm1.78,3.82c-1,0-1.81,.81-1.81,1.81s.81,1.81,1.81,1.81,1.81-.81,1.81-1.81-.81-1.81-1.81-1.81Zm4.01-28.97c.89,.98,1.14,2.29,.98,3.54,.61-.39,.95-.72,1.17-1.14,.45-1.2-.47-2.65-2.15-2.4Zm-2.45-.14l-.28,.03,.25,.25c.47,.72,.67,1.42,.72,2.06,.08,1.51-.33,2.96-1.2,4.21,.98-.61,1.95-1.31,2.76-1.92,1-1.84,.08-4.71-2.26-4.63h0Zm-5.52,1.84c-.03,.7,.14,1.31,.72,1.64,.45,.28,.64,.17,.75,0,.11-.2-.03-.42-.06-.61-.08-.47-.17-.89,0-1.23,.67-1.28,2.06-.72,2.59,.22,.36,.64,.25,2.2-.53,3.35-1.14,1.67-3.6,3.12-4.63,3.71-1.87,1.06-3.93,2.15-5.8,3.26-3.96,2.4-7.39,4.82-7.95,5.52,.25,.17,.7,.33,1.12,.36,4.29-3.32,9.01-5.99,13.72-8.59,1.84-1.03,3.96-2.23,4.93-4.15,.42-.81,.64-1.81,.56-3.18-.56-3.54-5.27-2.93-5.44-.31h.02Zm-27.99,20.87c-.31-.56-.92-.75-1.53-.75-.53-.03-1.2,.14-1.56,.59-.59,.72,.67,1.34,1.53,1.31,.56-.03,2.04-.25,1.56-1.14h0Zm35.86,8.74c-2.15,1.2-3.4,1.92-4.18,2.37-1.06,.61-2.26,1.17-3.12,2.06,.28,.25,.53,.5,.84,.78,7.64-5.24,15.5-7.61,22.03-12.35,3.71-2.68,7.05-5.58,8.11-9.34-5.74,8-13.8,11.54-23.67,16.48h-.01Zm6.38-37.05c-1.06-1.73-2.54-2.17-4.41-1.78-1.53,.33-2.37,1.56-2.37,3.12,0,.64,.31,1.25,1.23,1.67,.95,0,1.23-.42,.42-1.06-.95-1.56,.47-2.54,1.7-2.59,.72-.03,1.42,.36,1.95,.84,.45,.42,.7,.92,.84,1.45,1.59,7-10.12,12.46-18.99,17.4-3.09,1.73-5.99,3.57-8.67,5.91-5.41,4.71-9.23,12.35-7.64,20.05,.31-.33,.64-.61,.98-.86,4.27-3.35,7.22-1.64,10.59,1.06,1.31,1.03,2.26,2.04,3.88,2.82,.33-.72,.75-1.31,1.14-1.98,.7-1.17,.98-1.62,1.64-2.15,.56-.45,1.28-.86,2.04-.84,.33,.03,.64,.14,.92,.39,.56,.53,.84,1.31,.22,1.9-.08,.08-.17,.14-.25,.22-.17,.14-.67,.33-.64,.7,.06,.31,.45,.39,.72,.45,1.14,.2,1.73-1,1.76-2.26,0-1.42-.67-2.37-2.12-2.7-1.73-.42-3.32,.89-4.63,2.43-.86,1-1.06,1.34-1.42,1.84-6.64-6.66-10.32-5.46-13.52-4.54-.36-11.26,8.48-17.79,17.37-22.53,2.62-1.39,8.59-4.24,12.96-7.83,2.68-2.2,4.43-4.74,4.8-7.33,.14-1.25,.28-2.48-.5-3.76v-.04Zm-44.8,46.92c-1.17-1.25-2.12-2.62-2.82-4.18-.06-.14-.11-.28-.17-.42-.61,.98-1.34,1.95-2.12,2.87-1.76,2.01-3.82,3.57-5.83,5.35-.28,.28-.61,.56-.89,.84-.67,.64-1.34,1.28-2.01,1.95-.84,.86-1.64,1.76-2.34,2.73-.84,1.17-1.64,2.43-2.43,3.68-.92,1.51-1.73,3.35-.86,5.1,.17,.33,.67,.92,1.17,1.31,.31,.28,.53,.5,.95,.47,.53-.06,.86-.14,1.37-.36,.22-.11,.17-.14,.14-.36-.56-.22-.72,.03-1.23-.36-.75-.61-1.64-1.67-1.62-2.45,.03-.28,.08-.47,.28-.56,.36-.11,.39,.14,.45,.45,.28,1.25,1.25,2.17,2.57,1.81,.22-.06,.36-.14,.36-.42,0-.14-.14-.22-.22-.28-.7-.59-2.17-1.87-1.64-2.68,.08-.08,.25-.31,.39-.28,.17,.03,.22,.08,.22,.17,.06,.28,.06,.45,.17,.72,.22,.42,.5,.72,.89,1.03,.28,.22,.42,.25,.78,.17,.42-.08,.61-.33,.75-.67,.31-.67,.22-1.12,.39-1.31,.17-.22,.61-.22,1.12-.72,.31-.84,.03-1.53,.08-2.06,.08-.78,1.09-1.73,2.4-2.31,1.34-.59,2.59-.67,4.01-.75,1.37-.11,2.73-.11,4.1-.2,1.98-.14,3.96-.36,5.86-.84,.33-1.73,.7-2.01,2.31-2.87v-.42c-2.73-.64-4.68-2.12-6.58-4.15h0Zm8.03-8.22c.72-5.49,3.79-10.09,7.58-14.02-1.25-.56-1.62-.95-2.06-1.34-.81-.72-1.25-1.37-1.78-2.26-.14-.25-.31-.47-.47-.7-.17,1.06-.33,2.31-.75,3.32-.14,.31-.28,.64-.45,.95-1.06,2.12-3.79,3.57-5.88,4.43-1.17,.47-2.26,.84-3.32,.86-2.29,.08-3.57-1.23-5.05-2.51,.22,.98,.47,2.12,.61,2.73,.36,1.81,.56,3.46,.61,5.33,.03,1.42,.03,2.7,.33,4.1,1.03,4.71,4.15,8.5,8.7,10.51,.67,.28,1.25,.45,1.98,.45,.03-1.37,.08-2.7,.14-4.04-.47-2.68-.53-5.24-.2-7.81h.01Zm73.94-6.5c-1.64-1.56-3.32-2.45-5.1-3.23-1.14-.5-2.34-.95-3.62-1.48-1.45-.61-2.84-1.17-3.15-2.87-.33-1.87,1.34-3.09,3.62-1.84,.17,.92,.14,1.42,.92,2.06,.84,.7,1.9,.86,2.96,.64,1.73-.42,3.51-2.12,3.12-4.15-1.87-.17-2.37-2.01-3.57-2.79-.75-.5-1.48-.47-2.15,.14-.42,.36-.67,.89-.98,1.48-2.43-.42-4.54-.75-6.36,1-.7,.67-.98,1.81-1,2.76-.03,2.01,1.34,3.65,3.07,5.1,1.03,.84,2.51,1.34,3.68,1.92,1.92,.95,3.76,2.01,5.02,3.57,.86,1.12,1.23,1.95,.92,3.32-.11,.59-.36,1.2-.78,1.62-.78,.75-1.67,.95-2.68,.7-2.26-.56-4.74-3.15-6.11-4.85-1.42-1.73-3.76-4.24-5.99-5.21-2.06-.89-4.29-1.48-6.55-1.48-7.89,6.44-16.76,8.45-24.26,13.97-.17,.14-.36,.28-.53,.42,.22,.92,.25,2.01-.28,3.09-.5,1.03-1.76,2.01-3.07,1.09-.78-.56-.78-1.34-.03-1.84,.36-.22,.72-.42,.67-.72-.14-1.06-1.06-.98-1.87-.42-.92,.64-1.67,1.78-1.87,2.06-.75,1.23-1.14,2.26-1.59,3.82,2.26-.45,4.1,.03,6.13,.03,1.53,0,3.09-.22,4.57-.61,2.43-.64,4.41-1.64,6.83-2.17,1.87-.45,3.71-.53,5.6-.33,1.12,.08,2.17,.33,3.07,.89,.17,.47,.36,.95,.56,1.42,.28,.78,.61,1.62,1.03,2.23,.86,1.23,1.84,2.04,3.23,2.93,2.62,1.73,5.72,2.79,8.56,4.21,1.37,.7,2.62,1.53,3.49,2.62,.92,1.17,1.39,2.65,1.56,4.35,.11,.95,.03,1.76-.36,2.17-1.42,0-2.62-1.64-3.99-.81-.59,.36-.72,1.06-.92,1.67-.22,.67-.31,1.34,.11,1.9,.36,.53,.56,.36,.61-.25,.06-.64,.22-1.09,.53-1.67,.33-.67,.81-1.28,1.39-1.03,.2,.08,.53,.36,.2,.56-.56,.28-.75,.14-.95,.72-.25,.7-.64,1.53-.08,2.12,1.42,1.56,.84-2.62,2.68-2.4,.22,.03,.42,.03,.47,.14,.06,.14,.03,.42-.22,.47-.08,.03-.22,.06-.47,.11-.25,.31-.42,.61-.53,.89-.08,.31-.14,.64-.14,1.03,.14,.08,.25,.25,.42,.33,.03,.03,.06,.03,.11,.06,.28,.08,.61-.03,.92-.03,.03,0,.03-.03,.03-.03,1.48-.86,1.51-.22,3.01-.22,.75-.25,1.06-.81,1.53-1.37,1.87-3.26,3.01-8.59,2.93-12.38-.11-.11-.59-.39-1.42-.84-1.81-1.23-4.21-2.57-5.46-4.41-2.65-3.88-1.92-8.59-2.26-13.1-.14-1.62-.56-3.51-1.42-4.96-.59-.98-1.23-1.76-1.87-2.82,1.62,.61,2.26,1.53,2.93,2.65,.95,1.62,1.37,3.21,1.53,5.05,.08,.78,.14,1.17,.22,2.01,2.17,1.76,4.43,3.09,7.25,3.46,3.01,0,5.21-.95,7.03-3.4,1.56-3.07,1.34-6.44-.89-9.06h0Zm-5.16-12.81c.56,.14,.84,.78,1.2,1.25,.36,.5,.78,.75,1.62,1.06,.2,.08,.14,.33,0,.45-.2,.14-.42,.17-.59,.22-.84,.28-1.25,.06-1.84-.61-.28-.33-.47-.81-.98-.81-.5,.03-.72-.11-.75-.59-.06-.78,.53-1.14,1.34-.98h0Zm-1.62,2.83c.47-.33,.92-.14,1.25,.25,.39,.45,.36,.78,.98,.89,.47,.08,.95,.03,1.45,.06,.14,0,.11,.22,.08,.31-.06,.2-.56,.59-.75,.64-1.06,.45-2.48,.56-3.21-.53-.31-.47-.31-1.28,.2-1.62h0Zm-52.81,.53l-1.23,.84c5.1,5.38,9.09,11.12,10.9,16.42,.06-.03,.08-.06,.14-.06,.33-.22,.72-.45,1.14-.67-1.81-5.33-5.83-11.12-10.96-16.53h.01Zm5.19-3.07c-.45,.22-.92,.47-1.37,.72,5.13,5.44,9.14,11.26,10.93,16.59,.42-.22,1.09-.53,1.45-.75-1.81-5.33-5.86-11.15-11.01-16.56Zm16.34-24.06c-1.17,.08-2.04,.53-2.62,1.64,1.42-.11,2.57,.31,3.65,1.2,1.67,2.12,1.62,3.9,1.09,5.86-.67,2.54-2.45,5.13-5.1,7.25-4.35,3.46-10.04,6.19-12.77,7.72,.81,.86,1.59,1.73,2.34,2.57,6.55-3.23,14.55-7.28,17.98-14.11,2.82-5.6,.45-12.43-4.57-12.13h0Zm9.81,4.32c-.86-3.57-3.43-6.13-6.8-5.94-.53,.03-.98,.2-1.48,.59,6.05,1.95,7.33,11.01,.95,17.7-2.37,2.48-4.35,3.85-6.41,5.13-2.51,1.56-5.13,2.9-8.98,4.96,.75,.89,1.48,1.81,2.15,2.7,2.51-1.23,8.14-3.85,12.91-7.72,5.13-4.18,9.37-10.43,7.67-17.43h0Zm4.29-.32c-1.03-3.26-3.26-6.75-7.7-5.99,5.52,3.65,5.94,12.02,2.12,17.93-4.49,6.94-11.82,10.4-18.9,14.14,.67,.92,1.42,1.98,2.01,2.9,6.8-3.37,14.05-7.33,18.43-12.96,4.04-5.19,5.58-11.15,4.04-16v-.02Zm3.65,.59c-.67-1.14-2.31-4.21-4.27-4.32,4.29,6.78,1.59,15.56-3.85,21.47-4.93,5.41-12.27,9.31-17.68,11.77,.61,.98,1.17,1.98,1.64,2.96,12.41-5.49,25.82-13.86,24.95-29.3-.25-.86-.53-1.73-.81-2.57h.02Zm1.64,3.84c.5,14.78-13.49,23.22-25.46,28.63,.53,1.12,.98,2.2,1.34,3.26,.31-.17,.64-.33,.92-.47,9.37-4.68,17.17-7.97,22.97-17.98,.86-2.34,1.64-4.6,1.73-7.14,.06-2.09-.31-4.18-1.51-6.3h.01Zm-43.24,32.65c-.64-.89-2.06-.78-2.73,.06l-.28,.47c.75,.39,1.25,1.23,1.34,2.06,0,.06,.03,.14,.03,.2,.11-.06,.25-.14,.42-.2,.42-.17,.84-.22,1.25-.14,.22-.28,.36-.56,.42-.95,0-.5-.14-1.09-.45-1.51h0Zm2.4,2.13c-.67-.03-1.14,.28-1.62,.67,.17,.11,.33,.28,.47,.45,.42,.53,.56,1.25,.45,1.92,.06-.03,.08-.03,.14-.06,.61-.2,1.23-.14,1.76,.14,.22-.14,.36-.78,.39-1.03,.11-1-.5-2.04-1.59-2.09h0Zm.47-10.32c-.42-.22-.75-.17-1.14-.06-.5,.14-.81,.45-1.17,.78,.06,.08,.08,.17,.14,.25,.25,.56,.22,1.17,0,1.73,.72-.2,1.53,0,2.12,.47,.45-.36,.95-.72,1.03-1.34,.06-.72-.33-1.51-.98-1.84h0Zm2.45,3.22c-.72-.36-1.53-.03-2.12,.45,.11,.14,.2,.33,.28,.47,.25,.64,.17,1.17,.03,1.73,.61-.22,1.28-.14,1.84,.14,.39-.31,.75-.61,.84-1.14,.08-.64-.25-1.37-.86-1.64h0Zm1.95,3.22c-.5-.25-.89-.14-1.37,0,.17,.2,.31,.42,.42,.67,.33,.84,.06,1.51-.25,2.26,.25,.08,.47,.25,.67,.42,.47-.28,1-.61,1.28-1.09,.45-.78,.03-1.87-.75-2.26h0Zm-7.11-4.93c-.14-.81-1.03-1.25-1.81-1.17-.84,.11-1.31,.84-1.81,1.45,.03,.03,.06,.08,.08,.14,.39,.59,.45,1.12,.42,1.73,.53-.28,1.17-.36,1.76-.22,.03,0,.42,.17,.45,.17,.25-.31,.53-.64,.7-1,.2-.33,.31-.67,.22-1.09h0Zm2.12,2.11c-.36-.28-.86-.42-1.31-.33-.5,.08-.78,.39-1.06,.78,.39,.42,.64,.98,.67,1.59,.03,.28,0,.56-.06,.84,.64-.28,1.34-.22,1.92,.06,.14-.17,.25-.36,.31-.53,.31-.89,.45-1.76-.47-2.4h0Zm3.51,4c-.11-.84-.95-1.37-1.76-1.25-.22,.03-.42,.08-.59,.2-.14,.08-.25,.2-.39,.31,.28,.25,.53,.53,.7,.84,.33,.67,.31,1.23,.17,1.81,.28-.17,.56-.28,.86-.33,.22-.03,.45-.06,.64-.03,.25-.47,.45-.95,.36-1.53v-.02Zm-5.85-2.01c-.06-.64-.42-1.2-.98-1.48-.59-.28-1.31-.2-1.81,.2-.39,.28-.64,.64-.86,1.03,.2,.14,.36,.31,.47,.53,.33,.47,.45,.95,.45,1.45,.33-.22,.72-.36,1.23-.42,.33-.03,.86,.03,1.17,.14,.2-.47,.42-.95,.33-1.45Zm3.43,2.93c-.17-.84-.86-1.53-1.76-1.62-.31-.03-.64,.03-.92,.17-.17,.08-.31,.25-.45,.36,.53,.47,.81,1.23,.84,1.92,0,.2-.03,.39-.06,.59,.36-.2,.78-.31,1.31-.31,.33,0,.64,.06,.92,.2,.08-.45,.2-.84,.11-1.31h0Zm3.12,1.87l-.06-.06-.03-.03c-.22-.22-.47-.42-.78-.47-.7-.2-1.37,.08-1.73,.45,.47,.47,.75,1.14,.75,1.81,0,.25-.03,.47-.08,.72,.72-.25,1.48-.17,2.12,.22,.14-.25,.28-.53,.33-.84,.08-.61-.11-1.31-.53-1.81h0Zm-6.36-13.4c-.33-.14-.67-.2-1.03-.17l-.64,.17c-.08,.06-.14,.14-.22,.2-.2,.14-.36,.31-.56,.47,.08,.11,.14,.22,.2,.33,.25,.56,.22,1.2,0,1.76,.75-.22,1.64-.06,2.23,.47,.47-.39,.98-.72,1.06-1.39,.11-.72-.33-1.53-1.03-1.84h0Zm-2.9,1.12c-.56,.53-1.06,1.09-1.56,1.59-.36,.39-.72,.78-1.06,1.2,.53-.03,1.06,.14,1.51,.45l.36-.45c.42-.61,1.06-1.59,.92-2.34-.03-.17-.08-.31-.17-.45Zm-.86,4.63c-.25-.75-.95-1.31-1.81-1.23-.22,.03-.42,.08-.61,.2-.56,.78-1.06,1.62-1.51,2.51,.47,.25,.84,.67,.98,1.17,.17-.14,.33-.28,.59-.36,.56-.22,1.2-.22,1.76,.03,.5-.75,.95-1.34,.61-2.31h0Zm-4.13,2.11l-.06-.03c-.47,1.09-.86,2.26-1.12,3.49,.11-.06,.22-.11,.36-.17,.22-.08,.47-.14,.7-.14l.61-1.7c.2-.61,.08-1.09-.5-1.45h0Zm.42,3.85c-.67-.22-1.23,.14-1.76,.47-.17,.95-.25,1.95-.28,3.01,1.06-.25,2.01-.42,2.87-.45,0-.06,.03-.08,.06-.14,.08-.17,.2-.31,.25-.47,.2-.92-.22-2.15-1.14-2.43h0Zm3.49,.43c-.36-.03-.75,.08-1.06,.31-.28,.22-.45,.47-.67,.72,.03,.08,.03,.17,.03,.25,.03,.5-.08,.86-.28,1.28,1.12,.03,2.12,.22,3.04,.56,.14-.22,.28-.42,.36-.67,.33-.98-.31-2.34-1.42-2.45h0Zm3.88,2.15c-.36-.08-.72-.06-1.06,.08-.72,.33-.78,.59-1.12,1.14,.95,.42,1.84,1,2.73,1.73l.33-.45c.39-.86,.11-2.2-.89-2.51h0Zm3.01,2.6c-.33-.08-.64-.06-.98,.03-.47,.14-.7,.42-.95,.75,.75,.61,1.51,1.25,2.34,2.01,.25-.39,.53-.78,.81-1.14-.03-.72-.53-1.45-1.23-1.64h0Zm2.79-.51c-.67-.14-1.14,.11-1.67,.45l.14,.14c.22,.25,.39,.59,.47,.92,.45-.53,.95-.98,1.45-1.34-.11-.08-.25-.14-.39-.17h0Zm3.65-3.09c-.28-.25-.64-.45-1-.47-.61,0-.86,.17-1.31,.45,.42,.61,.61,1.34,.5,2.04-.03,.17-.06,.36-.14,.53,.7-.25,1.42-.36,2.2-.25,.03-.06,.08-.14,.11-.22,.31-.67,.17-1.53-.36-2.06v-.02Zm-8.95-14.8c-.33,.25-.67,.47-1.03,.72-.24,.17-.22,.18,.06,.03,1.37,.08,2.43,1.34,2.26,2.7,0,.11-.03,.22-.06,.33,.2-.06,.42-.06,.64-.06,1.31,.14,2.23,1.45,2.04,2.73-.03,.22-.08,.36-.17,.53,.2-.06,.42-.06,.64-.06,1.23,.11,2.06,1.37,1.9,2.54-.03,.22-.11,.47-.22,.67,.08,0,.17,0,.25,.03,1.39,.11,2.34,1.67,1.92,3.01-.06,.17-.14,.36-.25,.5,.17,.03,.33,.03,.47,.08,1.17,.36,1.87,1.62,1.64,2.82-.06,.25-.11,.45-.22,.64l.03,.03c.28-.28,.7-.61,1.03-.84-1.84-5.3-5.85-11.07-10.93-16.42v.02Zm-4.1,11.12c-.28-.67-.95-1.17-1.76-1.09-.39,.06-.72,.25-1,.53-.47,.47-.67,1.42-.92,2.04,.17,.06,.33,.14,.5,.22,.45,.25,.75,.67,.98,1.17,.14-.17,.28-.33,.53-.5,.45-.36,1-.5,1.56-.42,.25-.56,.36-1.39,.11-1.95Zm6.25,12.74c-.95-.53-1.73-1.28-2.57-1.95-2.7-2.15-4.93-3.85-8.53-2.06-.45,.47-1,.89-1.34,1.45-.72,1.17-.84,2.48-.78,3.82,.08,2.06,.75,4.21,1.67,5.99,1.53,2.96,4.13,5.55,4.74,8.84,.11,.59,.25,1.73,0,2.43-.25-.17-.53-.28-.78-.36,0,.14-.03,.22-.03,.33,.08,.06,.7,.33,.84,.47,.25,.28,.06,.45-.25,.56-.67,.2-1.39-.5-2.04-.78-1.84-.53-2.79,1.17-2.7,2.79,.03,.56,.17,1.7,1.34,1.73-.31-.98-.33-3.62,1.34-3.76,.36-.03,.33,.36,.17,.59-.92,1.12-1.64,3.04,.53,3.26-.08-.84,.14-3.43,1.64-2.87,.33,.14,.31,.42-.03,.56-1,.45-.81,.92-.81,2.12,.36,1.12,1.87,.22,2.26-.2,.17-.17,.47-.08,.67,0,2.54,1.31,3.46-.95,4.04-3.01,.45-1.56,.56-3.09,.67-4.71,.25-3.26,.36-6.5,.47-9.76,.06-1.56,.14-3.12,.64-4.63-.36-.33-.73-.59-1.17-.84h.01Z"/>
        <path class="cls-2" d="M134.39,375.17l-11.93,15.06c-3.88,4.88-10.96,5.69-15.84,1.84-4.88-3.88-5.69-10.96-1.84-15.84l11.93-15.06,3.99,3.15-11.93,15.06c-2.12,2.68-1.67,6.58,1,8.7s6.58,1.67,8.7-1l11.93-15.06,3.99,3.15Z"/>
        <path class="cls-2" d="M147.3,411.83l-2.45,4.46-20.49-11.29,24.84-15.31-12.13-6.66,2.45-4.46,19.77,10.87-24.84,15.31,12.85,7.08h0Z"/>
        <path class="cls-2" d="M176.85,410.86c2.57,3.07,2.79,7.47,.5,10.73-2.26,3.29-6.47,4.66-10.23,3.35l-12.49-4.38,10.04-28.72,9.87,3.46c3.12,1.09,5.35,3.82,5.86,7.08,.5,3.26-.86,6.52-3.54,8.48h0Zm-3.21,6.94c.7-1.98-.36-4.13-2.31-4.82l-7.7-2.7-2.51,7.17,7.7,2.7c1.95,.7,4.13-.36,4.82-2.34h0Zm-8.36-12.33l5.07,1.78c1.98,.7,4.15-.36,4.82-2.34,.7-1.98-.36-4.15-2.34-4.82l-5.07-1.78-2.48,7.17h0Z"/>
        <path class="cls-2" d="M195.2,406.42l-1.37,7.5,11.57,2.12-.92,4.99-11.6-2.12-1.37,7.47,13.66,2.51-.92,4.99-18.65-3.43,5.52-29.97,18.65,3.43-.92,4.99-13.66-2.48h0Z"/>
        <path class="cls-2" d="M239.02,435.61l-7.03-.08-12.13-13.05-.17,12.88-5.07-.06,.39-30.47,5.07,.06-.17,12.88,12.35-12.71,7,.08-14.58,15.03,14.33,15.45h0Z"/>
        <path class="cls-2" d="M248.87,434.8l-2.96-30.33,5.05-.5,2.96,30.33-5.05,.5Z"/>
        <path class="cls-2" d="M279.56,420.98l.03,.14c.95,4.6-2.01,9.09-6.61,10.04l-1.31,.28c-4.04,.84-8.11-1.37-9.62-5.21l4.71-1.87c.61,1.53,2.23,2.43,3.85,2.09l1.31-.28c1.84-.39,3.04-2.17,2.65-4.04l-.03-.14c-.28-1.39-1.42-2.45-2.82-2.68l-5.83-.92c-4.04-.64-7.08-4.1-7.17-8.2-.08-4.1,2.76-7.7,6.78-8.5l1.31-.28c3.18-.67,6.44,.56,8.42,3.12l-4.01,3.12c-.81-1.03-2.12-1.53-3.37-1.25l-1.31,.28c-1.62,.33-2.76,1.78-2.73,3.43,.03,1.64,1.25,3.04,2.87,3.29l5.83,.92c3.54,.53,6.33,3.21,7.05,6.66h0Z"/>
        <path class="cls-2" d="M298.36,391.78l1.73,4.77-6.36,2.31,8.62,23.87-4.77,1.73-8.62-23.87-6.36,2.31-1.73-4.77,17.48-6.36h0Z"/>
        <path class="cls-2" d="M336.69,406.42l-4.88,2.57-4.21-3.49-9.2,4.85,.47,5.46-4.88,2.57-2.93-33.15,25.62,21.19h.01Zm-13.33-4.43l-6.16-5.1,.7,7.97,5.46-2.87Z"/>
        <path class="cls-2" d="M346.12,361.59l18.79,24.12-26.46-2.98,11.38,14.58-4.01,3.12-18.79-24.12,26.46,2.98-11.38-14.61,4.01-3.09Z"/>
      </g>
    </g>
  </g>
</svg>