<svg width="24" height="25" viewBox="0 0 24 25" fill="none" xmlns="http://www.w3.org/2000/svg">
<g clip-path="url(#clip0_226_13471)">
<path d="M19.269 7.64425L20.706 6.20725L19.292 4.79275L17.7548 6.33C16.3504 5.33479 14.7117 4.72143 12.999 4.55V2.5H14.999V0.5H8.99903V2.5H10.999V4.55C9.28637 4.72143 7.64761 5.33479 6.24328 6.33L4.70603 4.79275L3.29203 6.20725L4.72903 7.64425C3.38768 9.06445 2.49167 10.8464 2.15166 12.7701C1.81165 14.6938 2.04253 16.675 2.81579 18.4689C3.58905 20.2629 4.87082 21.7911 6.5028 22.8648C8.13479 23.9385 10.0455 24.5106 11.999 24.5106C13.9525 24.5106 15.8633 23.9385 17.4953 22.8648C19.1272 21.7911 20.409 20.2629 21.1823 18.4689C21.9555 16.675 22.1864 14.6938 21.8464 12.7701C21.5064 10.8464 20.6104 9.06445 19.269 7.64425ZM11.999 22.5C10.4168 22.5 8.87006 22.0308 7.55447 21.1518C6.23887 20.2727 5.21349 19.0233 4.60799 17.5615C4.00249 16.0997 3.84407 14.4911 4.15275 12.9393C4.46143 11.3874 5.22335 9.96197 6.34218 8.84315C7.461 7.72433 8.88646 6.9624 10.4383 6.65372C11.9902 6.34504 13.5987 6.50346 15.0605 7.10896C16.5223 7.71447 17.7717 8.73985 18.6508 10.0554C19.5298 11.371 19.999 12.9178 19.999 14.5C19.9966 16.621 19.153 18.6544 17.6533 20.1542C16.1535 21.654 14.12 22.4976 11.999 22.5Z" fill="#D53939"/>
<path d="M11.998 8.50006V14.5001H5.99805C5.99805 15.6867 6.34994 16.8468 7.00923 17.8335C7.66852 18.8202 8.60559 19.5892 9.70195 20.0433C10.7983 20.4975 12.0047 20.6163 13.1686 20.3848C14.3325 20.1533 15.4016 19.5818 16.2407 18.7427C17.0798 17.9036 17.6512 16.8345 17.8828 15.6706C18.1143 14.5067 17.9955 13.3003 17.5413 12.204C17.0872 11.1076 16.3182 10.1705 15.3315 9.51124C14.3448 8.85196 13.1847 8.50006 11.998 8.50006Z" fill="#D53939"/>
</g>
<defs>
<clipPath id="clip0_226_13471">
<rect width="24" height="24" fill="white" transform="translate(0 0.5)"/>
</clipPath>
</defs>
</svg>
