<svg width="28" height="28" viewBox="0 0 28 28" fill="none" xmlns="http://www.w3.org/2000/svg">
<g clip-path="url(#clip0_84_360)">
<path d="M22.3213 8.48749C19.5585 5.72468 15.0785 5.72523 12.3157 8.48749C9.55341 11.2503 9.55287 15.7303 12.3157 18.4931C15.0876 21.265 19.5706 21.2462 22.3208 18.4926C25.0748 15.742 25.0927 11.2589 22.3213 8.48749ZM21.6869 12.5984L18.5851 15.7002C18.2645 16.0208 17.7445 16.0195 17.4251 15.7002L15.8408 14.1159L14.2068 15.75C13.8883 16.0684 13.3681 16.0718 13.0463 15.75C12.7264 15.4295 12.7264 14.9105 13.0463 14.5901L15.2606 12.3758C15.5816 12.0548 16.1006 12.0553 16.4211 12.3758L18.0054 13.9601L20.527 11.4384C20.8469 11.118 21.3665 11.118 21.6869 11.4384C22.0074 11.7589 22.0074 12.2779 21.6869 12.5984Z" fill="#1C89C1"/>
<path d="M27.3733 23.6217C26.5377 24.4573 25.1815 24.4574 24.3458 23.6217L21.7312 21.0071H21.7317C22.9728 20.279 24.0291 19.2376 24.7784 17.9993L27.3733 20.5942C28.2089 21.4304 28.2089 22.7855 27.3733 23.6217Z" fill="#1C89C1"/>
<path d="M4.70192 4.70204H0.480591L4.70192 0.480713V4.70204Z" fill="#1C89C1"/>
<path d="M17.319 4.77477C18.1995 4.77477 19.0624 4.90492 19.8948 5.1625V0.820312C19.8948 0.3675 19.5273 0 19.0745 0H6.34266V5.52234C6.34266 5.97516 5.97516 6.34266 5.52234 6.34266H0V27.1797C0 27.6325 0.3675 28 0.820312 28H19.0745C19.5273 28 19.8948 27.6325 19.8948 27.1797V21.817C19.0641 22.0735 18.1951 22.2059 17.3173 22.2059C12.5048 22.2059 8.60289 18.3055 8.60289 13.4903C8.60289 8.69094 12.4901 4.77477 17.319 4.77477ZM6.26828 21.3828H2.84375C2.39094 21.3828 2.02344 21.0153 2.02344 20.5625C2.02344 20.1097 2.39094 19.7422 2.84375 19.7422H6.26828C6.72164 19.7422 7.08859 20.1097 7.08859 20.5625C7.08859 21.0153 6.72164 21.3828 6.26828 21.3828ZM6.26828 18.1016H2.84375C2.39094 18.1016 2.02344 17.7341 2.02344 17.2812C2.02344 16.8284 2.39094 16.4609 2.84375 16.4609H6.26828C6.72164 16.4609 7.08859 16.8284 7.08859 17.2812C7.08859 17.7341 6.72164 18.1016 6.26828 18.1016ZM6.26828 14.8203H2.84375C2.39094 14.8203 2.02344 14.4528 2.02344 14C2.02344 13.5472 2.39094 13.1797 2.84375 13.1797H6.26828C6.72164 13.1797 7.08859 13.5472 7.08859 14C7.08859 14.4528 6.72164 14.8203 6.26828 14.8203ZM6.26828 11.5391H2.84375C2.39094 11.5391 2.02344 11.1716 2.02344 10.7188C2.02344 10.2659 2.39094 9.89844 2.84375 9.89844H6.26828C6.72164 9.89844 7.08859 10.2659 7.08859 10.7188C7.08859 11.1716 6.72164 11.5391 6.26828 11.5391Z" fill="#1C89C1"/>
</g>
<defs>
<clipPath id="clip0_84_360">
<rect width="28" height="28" fill="white"/>
</clipPath>
</defs>
</svg>
