<?xml version="1.0" encoding="UTF-8"?>
<!DOCTYPE svg PUBLIC "-//W3C//DTD SVG 1.1//EN" "http://www.w3.org/Graphics/SVG/1.1/DTD/svg11.dtd">
<!-- Creator: CorelDRAW 2020 (64-Bit) -->
<svg xmlns="http://www.w3.org/2000/svg" xml:space="preserve" width="2134px" height="2400px" version="1.1" style="shape-rendering:geometricPrecision; text-rendering:geometricPrecision; image-rendering:optimizeQuality; fill-rule:evenodd; clip-rule:evenodd"
viewBox="0 0 1452.24 1632.97"
 xmlns:xlink="http://www.w3.org/1999/xlink"
 xmlns:xodm="http://www.corel.com/coreldraw/odm/2003">
 <defs>
  <style type="text/css">
   <![CDATA[
    .str0 {stroke:white;stroke-width:7.71;stroke-miterlimit:22.9256;stroke-opacity:0.078431}
    .fil6 {fill:none}
    .fil5 {fill:none;fill-rule:nonzero}
    .fil0 {fill:#17406C}
    .fil8 {fill:#FEFEFE;fill-rule:nonzero}
    .fil7 {fill:#FEFEFE;fill-rule:nonzero}
    .fil1 {fill:#1C89C1;fill-rule:nonzero}
    .fil4 {fill:white;fill-rule:nonzero;fill-opacity:0.078431}
    .fil2 {fill:url(#id1);fill-rule:nonzero}
    .fil3 {fill:url(#id2);fill-rule:nonzero}
   ]]>
  </style>
   <clipPath id="id0">
    <path d="M0 1632.97l1452.24 0 0 -1632.97 -1452.24 0 0 1632.97z"/>
   </clipPath>
  <linearGradient id="id1" gradientUnits="userSpaceOnUse" x1="725.05" y1="184.99" x2="725.05" y2="1447.98">
   <stop offset="0" style="stop-opacity:0.0588235; stop-color:white"/>
   <stop offset="1" style="stop-opacity:0; stop-color:white"/>
  </linearGradient>
  <linearGradient id="id2" gradientUnits="userSpaceOnUse" xlink:href="#id1" x1="725.06" y1="361.46" x2="725.06" y2="1265.12">
  </linearGradient>
 </defs>
 <g id="Слой_x0020_1">
  <metadata id="CorelCorpID_0Corel-Layer"/>
  <polygon class="fil0" points="0,1632.97 1452.24,1632.97 1452.24,0 0,0 "/>
  <g style="clip-path:url(#id0)">
   <g id="_2631737839168">
    <rect class="fil1" width="1452.24" height="1632.97"/>
    <circle class="fil2" cx="725.05" cy="816.48" r="631.5"/>
    <circle class="fil3" cx="726.61" cy="814.93" r="451.51"/>
    <polygon class="fil4" points="112.69,191.36 240.27,191.36 240.27,63.79 112.69,63.79 "/>
    <polygon class="fil5 str0" points="180.34,251.29 300.2,251.29 300.2,131.43 180.34,131.43 "/>
    <path class="fil4" d="M1511.25 1223.69c-19.91,-2.77 -40.18,-1.6 -59.63,3.46 -19.46,5.06 -37.73,13.9 -53.77,26.02 -16.04,12.12 -29.54,27.28 -39.72,44.61 -10.18,17.34 -16.85,36.51 -19.62,56.42 -2.78,19.91 -1.6,40.17 3.46,59.63 5.05,19.46 13.89,37.73 26.02,53.77 12.11,16.04 27.27,29.54 44.61,39.72 17.33,10.18 36.5,16.85 56.42,19.62l21.11 -151.62 21.12 -151.63z"/>
   </g>
  </g>
  <polygon class="fil6" points="0,1632.97 1452.24,1632.97 1452.24,0 0,0 "/>
  <g id="_2631737780080">
   <path class="fil7" d="M584.24 847.46l61.57 0 0 -285.45 -61.57 0 0 285.45zm221.09 0l64.36 0 0 -285.45 -64.36 0 0 285.45zm-72.76 0l61.56 0 0 -285.45 -61.56 0 0 285.45zm-75.56 -103.55l64.36 0 0 -181.9 -64.36 0 0 181.9z"/>
  </g>
  <g id="_2631737789680">
   <g id="_2701927166656">
    <polygon class="fil8" points="893.87,963.28 883.71,980.03 873.69,963.28 864.88,963.28 879.37,987.95 879.37,1007.23 887.89,1007.23 887.89,987.8 902.69,963.28 "/>
    <path class="fil8" d="M563.84 989.59c0,5.83 -2.99,10.32 -9.72,10.32 -6.88,0 -10.02,-4.19 -10.02,-10.47l0 -26.16 -8.07 0 0 25.71c0,7.78 2.69,18.69 17.94,18.69 15.1,0 17.94,-10.32 17.94,-18.54l0 -25.86 -8.07 0 0 26.31 0 0z"/>
    <polygon class="fil8" points="613.16,989.89 584.91,963.28 583.72,963.28 583.72,1007.23 591.64,1007.23 591.64,980.62 619.74,1007.23 620.93,1007.23 620.93,963.28 613.16,963.28 "/>
    <path class="fil8" d="M633.19 1003.49c0,1.95 1.79,3.74 3.74,3.74l0.6 0c2.09,0 3.73,-1.79 3.73,-3.74l0 -36.47c0,-2.09 -1.64,-3.74 -3.73,-3.74l-0.6 0c-1.95,0 -3.74,1.65 -3.74,3.74l0 36.47z"/>
    <polygon class="fil8" points="669.21,994.97 657.7,963.28 649.18,963.28 666.22,1007.23 672.2,1007.23 689.84,963.28 681.32,963.28 "/>
    <path class="fil8" d="M780.57 974.94c0,-2.39 1.95,-4.93 6.58,-4.93 3.89,0.15 7.62,1.64 10.46,4.19l0 -8.23c-3.29,-2.09 -7.02,-3.28 -10.91,-3.13 -9.42,0 -14.5,5.83 -14.5,12.7 0,13.3 18.69,11.51 18.69,19.58 0,2.69 -2.1,4.93 -6.58,4.93 -4.49,-0.14 -8.82,-1.94 -12.41,-4.78l0 8.37c3.89,2.69 8.37,4.04 13.16,4.04 9.26,0 14.79,-5.23 14.79,-12.56 0,-13.75 -19.28,-12.7 -19.28,-20.18l0 0z"/>
    <path class="fil8" d="M810.17 1003.49c0,1.95 1.64,3.74 3.73,3.74l0.45 0c2.1,0 3.74,-1.79 3.74,-3.74l0 -36.47c0,-2.09 -1.64,-3.74 -3.74,-3.74l-0.45 0c-2.09,0 -3.73,1.65 -3.73,3.74l0 36.47z"/>
    <polygon class="fil8" points="826.16,970.76 838.57,970.76 838.57,1007.23 846.49,1007.23 846.49,970.76 857.55,970.76 859.94,963.28 826.16,963.28 "/>
    <path class="fil8" d="M763.08 976.74c0,-8.22 -5.08,-13.46 -14.5,-13.46l-14.94 0 0 43.95 7.62 0 0 -37.22 6.28 0c1.04,0 1.94,0.15 2.84,0.45 0.9,0.3 1.79,0.9 2.39,1.49 0.75,0.6 1.35,1.5 1.64,2.4 0.45,0.89 0.6,1.79 0.6,2.69 0,1.04 -0.15,1.94 -0.6,2.84 -0.3,0.89 -0.89,1.64 -1.64,2.39 -0.6,0.6 -1.49,1.19 -2.39,1.49 -0.9,0.3 -1.8,0.45 -2.84,0.3l-5.53 0 0 0.6 14.95 22.57 8.66 0 -11.5 -17.19c2.84,-0.9 5.08,-2.69 6.72,-5.08 1.65,-2.54 2.39,-5.38 2.24,-8.22l0 0z"/>
    <polygon class="fil8" points="721.53,970.46 723.92,963.28 697.61,963.28 697.61,1007.23 723.47,1007.23 723.47,999.91 705.54,999.91 705.54,987.8 721.68,987.8 721.68,981.22 705.54,981.22 705.54,970.46 "/>
    <path class="fil8" d="M772.87 925.2l-6.58 0 0 -14.2 7.17 0c1.05,0 1.95,0 2.84,0.3 0.9,0.29 1.8,0.74 2.4,1.49 0.74,0.6 1.19,1.49 1.64,2.24 0.3,0.9 0.45,1.95 0.3,2.84 0.15,1.05 -0.15,2.09 -0.45,2.99 -0.45,0.9 -1.05,1.8 -1.79,2.54 -0.75,0.6 -1.65,1.2 -2.54,1.5 -1.05,0.3 -1.95,0.45 -2.99,0.3l0 0zm15.84 -7.33c0,-8.82 -5.23,-13.6 -14.2,-13.6l-15.84 0 0 43.94 7.77 0 -0.15 -15.99 7.77 0c9.27,0 14.65,-5.53 14.65,-14.35l0 0z"/>
    <path class="fil8" d="M849.01 930.95c2.84,-0.9 5.08,-2.69 6.73,-5.08 1.64,-2.39 2.39,-5.23 2.09,-8.22 0,-8.07 -4.93,-13.45 -14.35,-13.45l-15.25 0 0 44.09 7.78 0 0 -37.22 6.12 0c1.05,0 1.95,0 2.84,0.45 0.9,0.3 1.8,0.75 2.54,1.49 0.6,0.6 1.2,1.35 1.65,2.25 0.3,0.89 0.45,1.94 0.45,2.84 0,0.89 -0.15,1.94 -0.45,2.84 -0.45,0.89 -1.05,1.64 -1.65,2.24 -0.74,0.75 -1.64,1.19 -2.54,1.49 -0.89,0.3 -1.79,0.45 -2.84,0.45l-5.38 0 0 0.6 14.8 22.42 8.82 0 -11.36 -17.19 0 0z"/>
    <path class="fil8" d="M962.25 945.29l0 -8.23c-3.14,2.55 -7.18,3.89 -11.36,3.89l-0.9 0c-1.94,0 -3.74,-0.45 -5.53,-1.2 -1.64,-0.59 -3.14,-1.64 -4.48,-2.98 -1.35,-1.35 -2.25,-2.99 -2.99,-4.64 -0.6,-1.79 -0.9,-3.59 -0.9,-5.53 0,-1.94 0.3,-4.03 1.05,-5.98 0.74,-1.79 1.94,-3.59 3.28,-4.93 1.5,-1.5 3.29,-2.54 5.09,-3.29 1.94,-0.75 4.03,-1.05 5.98,-1.05 2.54,0 5.08,0.6 7.47,1.65l2.24 -6.88c-3.29,-1.49 -7.02,-2.24 -10.61,-2.24 -12.26,-0.45 -22.57,9.12 -23.02,21.23 0,0.74 0,1.34 0,1.94 -0.6,11.36 8.07,20.93 19.43,21.52 0.15,0 0.3,0 0.45,0l2.24 0c4.49,0.3 8.82,-0.89 12.56,-3.28l0 0z"/>
    <polygon class="fil8" points="872.8,930.05 887.15,930.05 887.15,923.18 872.8,923.18 872.8,911.37 887.15,911.37 889.54,904.34 864.88,904.34 864.88,948.14 872.8,948.14 "/>
    <polygon class="fil8" points="920.47,940.97 902.54,940.97 902.54,928.86 918.68,928.86 918.68,922.13 902.54,922.13 902.54,911.37 918.68,911.37 920.92,904.34 894.61,904.34 894.61,948.14 920.47,948.14 "/>
    <polygon class="fil8" points="820.11,940.97 802.17,940.97 802.17,928.86 818.31,928.86 818.31,922.13 802.17,922.13 802.17,911.37 818.16,911.37 820.55,904.34 794.25,904.34 794.25,948.14 820.11,948.14 "/>
    <polygon class="fil8" points="646.92,941.12 628.98,941.12 628.98,928.86 645.12,928.86 645.12,922.28 628.98,922.28 628.98,911.37 644.97,911.37 647.37,904.2 620.91,904.2 620.91,948.29 646.92,948.29 "/>
    <path class="fil8" d="M469.34 915.11l6.13 15.99 -12.11 0 5.98 -15.99 0 0zm-12.55 33.18l3.73 -10.01 17.79 0 3.74 10.01 8.82 0 -17.94 -44.09 -6.88 0 -18.08 44.09 8.82 0z"/>
    <path class="fil8" d="M523.45 936.18c0,-13.75 -19.43,-12.7 -19.43,-20.18 0,-2.39 1.94,-4.93 6.73,-4.93 3.59,0 7.32,1.35 10.46,4.04l0 -8.22c-2.54,-1.65 -6.43,-3.14 -10.91,-3.14 -9.42,0 -14.65,5.83 -14.65,12.7 0,13.45 18.83,11.66 18.83,19.73 0,2.69 -2.09,5.08 -6.57,5.08 -3.89,0 -8.22,-1.64 -12.56,-4.93l0 8.37c3.59,2.69 8.22,4.04 13.15,4.04 9.42,0 14.95,-5.23 14.95,-12.56l0 0z"/>
    <polygon class="fil8" points="540.19,929.9 560.37,929.9 560.37,948.29 568.44,948.29 568.44,904.2 560.37,904.2 560.37,922.73 540.19,922.73 540.19,904.2 532.12,904.2 532.12,948.29 540.19,948.29 "/>
    <polygon class="fil8" points="587.28,926.32 604.92,948.29 615.08,948.29 595.95,924.52 613.29,904.2 603.72,904.2 587.28,923.63 587.28,904.2 579.21,904.2 579.21,948.29 587.28,948.29 "/>
    <polygon class="fil8" points="685.33,930.95 657.08,904.2 655.89,904.2 655.89,948.29 663.81,948.29 663.81,921.68 692.06,948.29 693.26,948.29 693.26,904.2 685.33,904.2 "/>
    <polygon class="fil8" points="1000.62,904.34 966.84,904.34 966.84,911.67 979.09,911.67 979.09,948.14 987.17,948.14 987.17,911.67 998.23,911.67 "/>
    <polygon class="fil8" points="429.13,948.29 437.21,948.29 437.21,911.67 448.27,911.67 450.66,904.2 416.73,904.2 416.73,911.67 429.13,911.67 "/>
    <polygon class="fil8" points="720.16,948.29 720.16,911.67 731.37,911.67 733.76,904.2 699.83,904.2 699.83,911.67 712.09,911.67 712.09,948.29 "/>
   </g>
  </g>
 </g>
</svg>
