<?xml version="1.0" encoding="UTF-8"?>
<!DOCTYPE svg PUBLIC "-//W3C//DTD SVG 1.1//EN" "http://www.w3.org/Graphics/SVG/1.1/DTD/svg11.dtd">
<!-- Creator: CorelDRAW 2020 (64-Bit) -->
<svg xmlns="http://www.w3.org/2000/svg" xml:space="preserve" width="564.62mm" height="634.886mm" version="1.1" style="shape-rendering:geometricPrecision; text-rendering:geometricPrecision; image-rendering:optimizeQuality; fill-rule:evenodd; clip-rule:evenodd"
viewBox="0 0 24786.36 27871"
 xmlns:xlink="http://www.w3.org/1999/xlink"
 xmlns:xodm="http://www.corel.com/coreldraw/odm/2003">
 <defs>
  <style type="text/css">
   <![CDATA[
    .str0 {stroke:white;stroke-width:131.59;stroke-miterlimit:22.9256;stroke-opacity:0.078431}
    .fil7 {fill:none}
    .fil6 {fill:none;fill-rule:nonzero}
    .fil8 {fill:#FEFEFE}
    .fil0 {fill:#17406C}
    .fil1 {fill:#1A4266}
    .fil10 {fill:#1A4266}
    .fil9 {fill:#FEFEFE;fill-rule:nonzero}
    .fil2 {fill:#1A4266;fill-rule:nonzero}
    .fil5 {fill:white;fill-rule:nonzero;fill-opacity:0.078431}
    .fil4 {fill:url(#id1);fill-rule:nonzero}
    .fil3 {fill:url(#id2);fill-rule:nonzero}
   ]]>
  </style>
   <clipPath id="id0">
    <path d="M-0 27871l24786.36 0 0 -27871 -24786.36 0 0 27871z"/>
   </clipPath>
  <linearGradient id="id1" gradientUnits="userSpaceOnUse" x1="12373.62" y1="6160.71" x2="12373.62" y2="21590.28">
   <stop offset="0" style="stop-opacity:0.0588235; stop-color:white"/>
   <stop offset="1" style="stop-opacity:0; stop-color:white"/>
  </linearGradient>
  <linearGradient id="id2" gradientUnits="userSpaceOnUse" xlink:href="#id1" x1="12373.62" y1="3140.02" x2="12373.62" y2="24696.39">
  </linearGradient>
 </defs>
 <g id="Слой_x0020_1">
  <metadata id="CorelCorpID_0Corel-Layer"/>
  <polygon class="fil0" points="-0,27871 24786.36,27871 24786.36,0 -0,0 "/>
  <polygon class="fil1" points="-0,27871 24786.36,27871 24786.36,0 -0,0 "/>
  <polygon class="fil1" points="-0,27871 24786.36,27871 24786.36,0 -0,0 "/>
  <g style="clip-path:url(#id0)">
   <g id="_1416343453936">
    <rect class="fil2" width="24786.36" height="27871"/>
    <circle class="fil3" cx="12374.92" cy="13935.42" r="10778.23"/>
    <circle class="fil4" cx="12401.54" cy="13908.96" r="7706.22"/>
    <polygon class="fil5" points="1923.35,3266.07 4100.85,3266.07 4100.85,1088.75 1923.35,1088.75 "/>
    <polygon class="fil6 str0" points="3077.98,4288.93 5123.71,4288.93 5123.71,2243.21 3077.98,2243.21 "/>
    <path class="fil5" d="M25793.52 20885.55c-339.82,-47.28 -685.78,-27.31 -1017.75,59.05 -332.13,86.36 -643.97,237.24 -917.73,444.1 -273.76,206.86 -504.18,465.6 -677.93,761.39 -173.75,295.96 -287.59,623.14 -334.87,962.96 -47.45,339.82 -27.31,685.61 59.05,1017.75 86.2,332.13 237.07,643.97 444.1,917.73 206.69,273.76 465.44,504.18 761.39,677.93 295.78,173.75 622.97,287.59 962.96,334.87l360.3 -2587.8 360.47 -2587.97 -0 0z"/>
   </g>
  </g>
  <polygon class="fil7" points="-0,27871 24786.36,27871 24786.36,0 -0,0 "/>
  <polygon class="fil7" points="-0,27871 24786.36,27871 24786.36,0 -0,0 "/>
  <polygon class="fil7" points="-0,27871 24786.36,27871 24786.36,0 -0,0 "/>
  <polygon class="fil7" points="-0,27871 24786.36,27871 24786.36,0 -0,0 "/>
  <g id="_2712290017872">
   <path class="fil8" d="M14300.7 11057.59l-3866.12 0 0 0c0,2126.3 1739.74,3865.99 3866.12,3865.99l0 0 0 -3865.99zm-3866.12 2943.96l0 0 0 922.16 922.06 0 0 -0.13c0,-507.07 -414.84,-922.03 -922.06,-922.03l0 0z"/>
   <path class="fil9" d="M10731.56 15174.8c52.05,0 98.06,5.13 138.15,15.38 40.16,10.24 75.95,23.47 107.56,39.63l-39.71 130.58c-34.95,-17.07 -68.67,-30.13 -101.11,-39.04 -32.45,-8.98 -63.99,-13.44 -94.64,-13.44 -40.97,0 -72.75,8.1 -95.38,24.28 -22.56,16.26 -33.93,38.01 -33.93,65.32 0,28.13 9.88,49.45 29.46,63.99 19.6,14.47 51.14,28.58 94.72,42.17l76.76 24.36c63.99,21.3 114.1,51.59 150.32,90.87 36.29,39.28 54.41,87.46 54.41,144.61 0,34.14 -6.38,66.14 -19.15,95.98 -12.84,29.85 -31.99,55.89 -57.61,78.03 -25.62,22.2 -57.61,39.71 -95.98,52.48 -38.37,12.84 -83.21,19.22 -134.37,19.22 -96.44,0 -184.7,-19.67 -264.95,-58.88l39.71 -130.58c36.67,17.95 72.53,31.85 107.49,41.64 34.95,9.79 71.63,14.71 110.02,14.71 45.19,0 79.36,-8.31 102.38,-24.95 23.09,-16.64 34.6,-39.94 34.6,-69.79 0,-10.25 -1.93,-20.27 -5.8,-30.06 -3.8,-9.79 -10.84,-19.14 -21.08,-28.13 -10.24,-8.97 -24.11,-17.88 -41.57,-26.88 -17.52,-8.97 -40.3,-17.74 -68.52,-26.28l-67.78 -23.02c-29.92,-10.25 -57.16,-22.2 -81.97,-35.86 -24.71,-13.59 -45.79,-29.39 -63.32,-47.3 -17.52,-17.95 -31.11,-39.04 -40.97,-63.39 -9.79,-24.28 -14.71,-52.62 -14.71,-85.07 0,-34.96 6.37,-67.19 19.22,-96.65 12.77,-29.39 31.78,-54.79 56.94,-76.09 25.17,-21.37 56.27,-38.01 93.38,-49.97 37.13,-11.96 79.58,-17.88 127.38,-17.88l0.07 0.03zm423.58 263.61c36.67,-21.3 75.5,-37.72 116.39,-49.21 40.97,-11.58 84.47,-17.29 130.58,-17.29 36.67,0 70.15,4.23 100.45,12.77 30.3,8.55 56.35,21.97 78.1,40.3 21.75,18.34 38.37,41.81 49.88,70.39 11.51,28.58 17.28,62.96 17.28,103.05l0 396.72 -131.84 0 -15.38 -62.65 -5.13 0c-19.6,23.83 -44.55,42.62 -74.83,56.27 -30.3,13.66 -65.47,20.49 -105.56,20.49 -33.33,0 -62.72,-4.89 -88.34,-14.71 -25.62,-9.89 -47.37,-23.09 -65.25,-39.71 -17.88,-16.64 -31.4,-36.46 -40.3,-59.47 -8.98,-23.09 -13.44,-47.8 -13.44,-74.23 0,-35.05 7.43,-65.11 22.35,-90.27 15,-25.17 35.62,-45.8 62.13,-62.06 26.43,-16.19 57.3,-28.13 92.71,-35.79 35.4,-7.71 73.63,-11.58 114.55,-11.58l76.83 0 0 -37.13c0,-28.13 -8.76,-48.85 -26.29,-62.05 -17.45,-13.2 -42.02,-19.82 -73.56,-19.82 -24.71,0 -50.12,3.87 -76.17,11.51 -25.98,7.71 -54.79,20.04 -86.33,37.13l-58.88 -112.62 0 0 0.04 -0.05zm322.47 289.23l-55.01 1.26c-52.05,1.72 -88.34,10.46 -108.82,26.29 -20.49,15.73 -30.66,34.74 -30.66,56.94 0,29.03 8.69,48.85 26.22,59.54 17.52,10.62 37.34,15.95 59.54,15.95 22.13,0 43.28,-6.37 63.32,-19.14 20.03,-12.84 35.19,-27.77 45.44,-44.84l0 -95.98 0 0 -0.03 -0.02zm314.83 267.48l0 -610.44 131.77 0 19.22 110.09c14.47,-32.45 37.56,-61.03 69.12,-85.74 31.54,-24.81 71.27,-37.13 119,-37.13 19.61,0 37.13,2.15 52.48,6.38 15.38,4.22 28.13,9.36 38.37,15.38l-28.13 134.37c-9.43,-5.13 -21.37,-9.57 -35.87,-13.44 -14.47,-3.87 -31.54,-5.8 -51.14,-5.8 -41.88,0 -76.62,13.87 -104.32,41.64 -27.77,27.7 -41.64,73.13 -41.64,136.3l0 308.38 -168.87 0 0 0 0 0zm1104.4 -303.32c0,48.71 -7.28,92.64 -21.75,131.84 -14.47,39.28 -34.52,72.75 -60.12,100.45 -25.62,27.77 -55.89,48.85 -90.88,63.39 -34.95,14.47 -72.96,21.75 -113.96,21.75 -40.08,0 -74.15,-6.23 -102.38,-18.55 -28.13,-12.39 -52.86,-29.63 -74.23,-51.81l-5.04 0 -11.58 56.27 -122.87 0 0 -913.68 168.97 0 0 353.15c21.3,-19.6 46.24,-34.95 74.83,-46.03 28.58,-11.12 59.09,-16.64 91.54,-16.64 83.59,0 149.06,28.13 196.43,84.47 47.37,56.27 71.06,134.73 71.06,235.39l0 0 -0.03 0zm-175.34 3.87c0,-63.1 -12.32,-111.12 -37.13,-143.95 -24.71,-32.88 -59.69,-49.3 -104.89,-49.3 -23.9,0 -46.1,5.8 -66.59,17.28 -20.49,11.51 -36.67,24.5 -48.64,39.04l0 280.23c11.13,12.77 25.38,23.47 42.91,31.99 17.45,8.55 36.01,12.77 55.68,12.77 20.41,0 40.3,-3.8 59.47,-11.51 19.22,-7.64 36.29,-19.15 51.22,-34.52 14.92,-15.38 26.64,-34.81 35.19,-58.28 8.55,-23.47 12.77,-51.38 12.77,-83.8l0 0 0 0.04zm890.75 -10.24c0,50.33 -8.17,95.62 -24.35,135.71 -16.19,40.09 -38.61,74.01 -67.19,101.71 -28.58,27.77 -62.05,49.07 -100.45,63.99 -38.37,14.92 -79.79,22.42 -124.13,22.42 -44.39,0 -85.59,-6.83 -123.53,-20.48 -37.94,-13.66 -70.82,-33.71 -98.51,-60.12 -27.77,-26.5 -49.52,-59.09 -65.32,-97.91 -15.73,-38.82 -23.61,-82.99 -23.61,-132.44 0,-52.05 8.1,-98.37 24.28,-138.89 16.19,-40.54 38.61,-74.61 67.19,-102.38 28.58,-27.7 62.05,-48.85 100.45,-63.32 38.37,-14.54 79.79,-21.75 124.2,-21.75 44.32,0 85.52,6.83 123.46,20.48 38.01,13.59 70.81,33.48 98.51,59.47 27.77,26.05 49.52,58.64 65.33,97.92 15.73,39.28 23.68,84.47 23.68,135.64l0 0 0 -0.05zm-175.34 6.37c0,-34.95 -3.87,-64.8 -11.51,-89.53 -7.71,-24.71 -17.95,-44.84 -30.73,-60.12 -12.77,-15.38 -27.77,-26.72 -44.76,-33.93 -17.07,-7.28 -34.6,-10.91 -52.48,-10.91 -17.95,0 -34.95,3.2 -51.21,9.57 -16.19,6.44 -30.73,17.07 -43.5,31.99 -12.77,15 -23.02,34.81 -30.73,59.54 -7.64,24.71 -11.51,55.89 -11.51,93.38 0,33.33 3.87,62.13 11.51,86.41 7.71,24.36 18.19,44.17 31.4,59.54 13.2,15.38 28.13,26.88 44.76,34.53 16.64,7.71 33.93,11.51 51.81,11.51 17.95,0 34.96,-3.2 51.22,-9.57 16.19,-6.38 30.73,-17.29 43.5,-32.59 12.77,-15.38 23.02,-35.26 30.73,-59.54 7.64,-24.36 11.51,-54.41 11.51,-90.27l0 0 0 -0zm467.08 303.32l-170.23 0 0 -610.44 133.11 0 20.48 78.1c28.13,-29.03 59.1,-51.45 92.81,-67.19 33.71,-15.8 71.06,-23.69 111.95,-23.69 67.4,0 119.07,18.34 154.86,55.01 35.86,36.67 53.75,90.04 53.75,159.97l0 408.23 -170.14 0 0 -390.32c0,-31.54 -7.71,-56.49 -23.09,-74.83 -15.38,-18.34 -37.94,-27.56 -67.78,-27.56 -22.2,0 -45.51,6.23 -69.79,18.55 -24.35,12.39 -46.24,29.25 -65.92,50.55l0 423.58 0 0 0 0.03z"/>
   <g>
    <path class="fil9" d="M8916.71 16334.79l175.34 0 0 482.46c0,66.52 13.44,117.06 40.3,151.66 26.88,34.52 68.45,51.81 124.8,51.81 55.46,0 95.55,-17.52 120.26,-52.48 24.71,-34.96 37.13,-80.18 37.13,-135.64l0 -497.81 175.34 0 0 484.99c0,112.69 -27.98,196.71 -83.8,252.1 -55.89,55.54 -138.89,83.21 -248.91,83.21 -105.86,0 -189,-27.7 -249.57,-83.21 -60.57,-55.39 -90.87,-141.56 -90.87,-258.48l0 -478.59 0 0 -0.02 -0.02zm1007.15 806.19l-170.24 0 0 -610.43 133.11 0 20.49 78.1c28.13,-29.03 59.09,-51.45 92.8,-67.19 33.71,-15.8 71.06,-23.68 111.95,-23.68 67.4,0 119.07,18.34 154.86,55.01 35.87,36.67 53.75,90.03 53.75,159.96l0 408.23 -170.14 0 0 -390.25c0,-31.63 -7.71,-56.56 -23.09,-74.9 -15.38,-18.34 -37.94,-27.55 -67.78,-27.55 -22.2,0 -45.44,6.23 -69.79,18.55 -24.36,12.39 -46.32,29.25 -65.92,50.54l0 423.58 0 0 0 0.03zm565.67 0l0 -610.43 170.23 0 0 610.43 -170.23 0zm85.74 -740.94c-29.03,0 -51.59,-8.31 -67.85,-24.95 -16.19,-16.64 -24.28,-37.35 -24.28,-62.06 0,-24.8 8.1,-45.44 24.28,-62.05 16.26,-16.71 38.82,-25.02 67.85,-25.02 28.13,0 50.55,8.31 67.19,25.02 16.64,16.64 24.95,37.27 24.95,62.05 0,24.71 -8.09,45.44 -24.28,62.06 -16.26,16.64 -38.82,24.95 -67.85,24.95l0 0zm632.18 130.51l180.47 0 -216.31 610.43 -197.02 0 -209.94 -610.43 181.72 0 89.61 304.58 37.13 184.32 5.14 0 37.13 -184.32 92.14 -304.58 0 0 -0.05 0zm799.89 349.42l-405.7 0 0 5.13c0,48.64 17.07,84.86 51.14,108.76 34.14,23.9 78.1,35.86 131.84,35.86 34.14,0 64.2,-3.42 90.2,-10.24 26.05,-6.83 49.73,-14.92 71.06,-24.36l30.73 119c-23.09,11.13 -52.05,20.72 -87.07,28.79 -34.96,8.1 -76.31,12.18 -124.13,12.18 -46.04,0 -89.4,-6.16 -129.91,-18.55 -40.47,-12.39 -75.88,-31.33 -106.15,-56.94 -30.3,-25.62 -54.41,-58.04 -72.29,-97.25 -17.95,-39.27 -26.88,-86.19 -26.88,-140.75 0,-48.71 7.21,-92.81 21.75,-132.51 14.47,-39.63 35.19,-73.56 62.05,-101.71 26.88,-28.2 59.09,-50.19 96.58,-65.92 37.56,-15.81 79.37,-23.69 125.47,-23.69 82.78,0 148.63,25.17 197.69,75.5 49.07,50.33 73.63,120.71 73.63,211.2l0 75.5 0 0 -0 0zm-174.08 -116.46c0,-16.19 -1.94,-31.99 -5.8,-47.37 -3.79,-15.38 -10.03,-28.8 -18.55,-40.3 -8.45,-11.51 -19.14,-20.72 -31.99,-27.56 -12.77,-6.83 -28.58,-10.24 -47.3,-10.24 -34.14,0 -62.29,11.58 -84.47,34.6 -22.21,23.01 -35.41,54.2 -39.71,93.38l227.82 -2.53 0 0 0 0.03zm294.34 377.48l0 -610.43 131.84 0 19.15 110.09c14.54,-32.45 37.56,-61.02 69.12,-85.74 31.54,-24.71 71.27,-37.13 118.99,-37.13 19.68,0 37.13,2.15 52.48,6.37 15.38,4.3 28.13,9.43 38.37,15.38l-28.13 134.37c-9.36,-5.13 -21.3,-9.57 -35.86,-13.44 -14.47,-3.87 -31.54,-5.7 -51.14,-5.7 -41.81,0 -76.62,13.8 -104.32,41.57 -27.77,27.7 -41.57,73.13 -41.57,136.3l0 308.38 -168.96 0 0 0 0.03 -0.03zm867.67 -464.5c-50.33,-23.9 -98.97,-35.87 -145.88,-35.87 -27.31,0 -48.39,4.68 -63.32,14.11 -14.92,9.36 -22.42,22.13 -22.42,38.37 0,16.19 6.62,29.39 19.82,39.64 13.2,10.24 39.87,21.3 80.03,33.26l38.37 11.58c52.86,15.28 93.02,37.48 120.26,66.52 27.31,29.03 40.97,66.52 40.97,112.62 0,60.57 -23.23,108.76 -69.79,144.61 -46.46,35.87 -109.42,53.75 -188.71,53.75 -81.06,0 -150.63,-14.47 -208.6,-43.5l38.37 -125.39c24.71,12.77 50.78,23.23 78.02,31.32 27.31,8.1 55.08,12.18 83.21,12.18 34.14,0 59.09,-5.35 74.83,-16.05 15.8,-10.69 23.68,-24.5 23.68,-41.57 0,-17.88 -7.64,-31.78 -23.02,-41.57 -15.37,-9.88 -44.39,-20.72 -87,-32.66l-39.7 -11.51c-51.14,-17.07 -88.72,-39.7 -112.62,-67.85 -23.83,-28.13 -35.79,-65.7 -35.79,-112.62 0,-55.46 20.87,-100.66 62.65,-135.64 41.81,-34.96 100.3,-52.48 175.34,-52.48 74.23,0 139.94,13.2 197.09,39.64l-35.86 119.07 0 0 0.07 0.05zm202.23 464.5l0 -610.43 170.23 0 0 610.43 -170.23 0zm85.74 -740.94c-29.03,0 -51.59,-8.31 -67.85,-24.95 -16.19,-16.64 -24.28,-37.35 -24.28,-62.06 0,-24.8 8.09,-45.44 24.28,-62.05 16.26,-16.71 38.82,-25.02 67.85,-25.02 28.13,0 50.55,8.31 67.19,25.02 16.64,16.64 24.95,37.27 24.95,62.05 0,24.71 -8.1,45.44 -24.28,62.06 -16.26,16.64 -38.82,24.95 -67.85,24.95l-0 0zm618.17 253.37l-162.57 0 0 281.57c0,29.03 6.61,48.85 19.82,59.54 13.3,10.62 30.97,15.95 53.15,15.95 17.07,0 34.52,-1.72 52.48,-5.14 17.88,-3.42 32.38,-8.09 43.5,-14.11l25.62 119.07c-14.54,6.83 -36.29,13.66 -65.32,20.49 -28.96,6.76 -59.69,10.17 -92.14,10.17 -74.23,0 -127.09,-14.71 -158.63,-44.1 -31.63,-29.46 -47.37,-73.63 -47.37,-132.51l0 -310.98 -94.71 0 0 -122.87 94.71 0 0 -188.12 168.88 0 0 188.12 162.57 0 0 122.87 0 0 0.03 0.04zm667.97 226.56l-405.63 0 0 5.13c0,48.64 17,84.86 51.14,108.76 34.14,23.9 78.1,35.86 131.84,35.86 34.14,0 64.2,-3.42 90.2,-10.24 26.05,-6.83 49.73,-14.92 71.06,-24.36l30.73 119c-23.09,11.13 -52.05,20.72 -87.07,28.79 -34.96,8.1 -76.31,12.18 -124.13,12.18 -46.04,0 -89.39,-6.16 -129.91,-18.55 -40.47,-12.39 -75.88,-31.33 -106.15,-56.94 -30.3,-25.62 -54.41,-58.04 -72.3,-97.25 -17.95,-39.27 -26.88,-86.19 -26.88,-140.75 0,-48.71 7.21,-92.81 21.75,-132.51 14.47,-39.63 35.19,-73.56 62.05,-101.71 26.88,-28.2 59.09,-50.19 96.58,-65.92 37.56,-15.81 79.37,-23.69 125.47,-23.69 82.78,0 148.63,25.17 197.69,75.5 49.07,50.33 73.56,120.71 73.56,211.2l0 75.5 0 0 -0 0zm-174.01 -116.46c0,-16.19 -1.93,-31.99 -5.8,-47.37 -3.8,-15.38 -10.03,-28.8 -18.56,-40.3 -8.55,-11.51 -19.14,-20.72 -31.99,-27.56 -12.77,-6.83 -28.58,-10.24 -47.3,-10.24 -34.14,0 -62.29,11.58 -84.47,34.6 -22.21,23.01 -35.41,54.2 -39.71,93.38l227.82 -2.53 0 0 0 0.03zm659.07 -110.09l-162.5 0 0 281.57c0,29.03 6.62,48.85 19.82,59.54 13.2,10.62 30.97,15.95 53.07,15.95 17.07,0 34.6,-1.72 52.48,-5.14 17.95,-3.42 32.45,-8.09 43.5,-14.11l25.62 119.07c-14.47,6.83 -36.22,13.66 -65.25,20.49 -29.03,6.76 -59.76,10.17 -92.14,10.17 -74.23,0 -127.16,-14.71 -158.73,-44.1 -31.54,-29.46 -47.37,-73.63 -47.37,-132.51l0 -310.98 -94.65 0 0 -122.87 94.65 0 0 -188.12 168.97 0 0 188.12 162.5 0 0 122.87 0 0 0.03 0.04zm138.22 487.6l0 -610.44 170.23 0 0 610.44 -170.23 0zm85.74 -740.94c-29.03,0 -51.59,-8.31 -67.85,-24.95 -16.19,-16.64 -24.28,-37.34 -24.28,-62.05 0,-24.81 8.09,-45.44 24.28,-62.06 16.26,-16.71 38.82,-25.02 67.85,-25.02 28.13,0 50.54,8.31 67.18,25.02 16.64,16.64 24.95,37.27 24.95,62.06 0,24.71 -8.1,45.44 -24.28,62.05 -16.26,16.64 -38.82,24.95 -67.85,24.95l0 0z"/>
    <path class="fil9" d="M15677.9 16225.96c38.89,0 74.01,15.73 99.46,41.21 25.45,25.45 41.21,60.64 41.21,99.46 0,38.82 -15.73,73.94 -41.21,99.4 -25.45,25.45 -60.57,41.21 -99.46,41.21 -38.82,0 -73.94,-15.73 -99.4,-41.21 -25.45,-25.45 -41.21,-60.57 -41.21,-99.4 0,-38.82 15.74,-74.01 41.21,-99.46 25.45,-25.45 60.57,-41.21 99.4,-41.21zm-62.79 215.89l0 -150.46 66.66 0c13.44,0 23.61,1.4 30.58,4.08 6.97,2.67 12.53,7.49 16.71,14.32 4.15,6.83 6.23,14.32 6.23,22.63 0,10.69 -3.49,19.67 -10.39,27.02 -6.9,7.28 -17.52,11.96 -31.99,13.87 5.35,2.53 9.29,5.04 12.03,7.49 5.8,5.35 11.3,12.04 16.48,20.04l25.98 40.97 -24.88 0 -19.89 -31.33c-5.71,-9.05 -10.55,-15.95 -14.32,-20.72 -3.73,-4.82 -7.12,-8.17 -10.1,-10.1 -2.89,-1.87 -6.01,-3.2 -9.05,-4.01 -2.22,-0.45 -5.94,-0.67 -11.05,-0.67l-23.09 0 0 66.81 -19.89 0 -0.02 0.05zm19.89 -84.05l42.76 0c9.12,0 16.19,-0.95 21.3,-2.82 5.14,-1.86 8.98,-4.89 11.58,-9.05 2.67,-4.16 4.01,-8.62 4.01,-13.51 0,-7.05 -2.53,-12.99 -7.71,-17.6 -5.13,-4.53 -13.2,-6.83 -24.36,-6.83l-47.58 0 0 49.8 0 0 0 0zm130.65 -78.91c-22.42,-22.49 -53.46,-36.39 -87.75,-36.39 -34.22,0 -65.25,13.87 -87.75,36.39 -22.42,22.42 -36.29,53.46 -36.29,87.74 0,34.22 13.87,65.25 36.29,87.75 22.49,22.42 53.53,36.29 87.75,36.29 34.29,0 65.33,-13.87 87.75,-36.29 22.49,-22.49 36.39,-53.53 36.39,-87.75 0,-34.28 -13.87,-65.32 -36.39,-87.74z"/>
   </g>
  </g>
  <g id="_2712290017872_0">
   <path class="fil10" d="M22897.19 1068.9l-3029.57 0 0 0c0,1666.26 1363.29,3029.57 3029.57,3029.57l0 0 0 -3029.57zm-3029.57 2307.03l0 0 0 722.65 722.55 0 0 -0.1c0,-397.37 -325.08,-722.55 -722.55,-722.55l0 0z"/>
  </g>
  <g id="_2712290017872_1">
   <path class="fil10" d="M1901.95 26438.73l3029.57 0 0 0c0,-1666.26 -1363.29,-3029.57 -3029.57,-3029.57l0 0 0 3029.57zm3029.57 -2307.03l0 0 0 -722.65 -722.55 0 0 0.1c0,397.37 325.08,722.55 722.55,722.55l0 0z"/>
  </g>
 </g>
</svg>
