<?xml version="1.0" encoding="UTF-8"?>
<!DOCTYPE svg PUBLIC "-//W3C//DTD SVG 1.1//EN" "http://www.w3.org/Graphics/SVG/1.1/DTD/svg11.dtd">
<!-- Creator: CorelDRAW -->
<svg xmlns="http://www.w3.org/2000/svg" xml:space="preserve" width="1108.63mm" height="1108.63mm" version="1.1" style="shape-rendering:geometricPrecision; text-rendering:geometricPrecision; image-rendering:optimizeQuality; fill-rule:evenodd; clip-rule:evenodd"
viewBox="0 0 5450.81 5450.81"
 xmlns:xlink="http://www.w3.org/1999/xlink"
 xmlns:xodm="http://www.corel.com/coreldraw/odm/2003">
 <defs>
  <style type="text/css">
   <![CDATA[
   .str0 {stroke:#373435;stroke-width:0.98;stroke-miterlimit:22.9256}
.fil0 {fill:#FEFEFE}
.fil4 {fill:#FFF212}
.fil2 {fill:#FEFEFE}
.fil3 {fill:#2E4C90;fill-rule:nonzero}
.fil5 {fill:#FEFEFE;fill-rule:nonzero}
.fil1 {fill:#FEFEFE;fill-rule:nonzero;fill-opacity:0.168627}
.fil6 {fill:#FEFEFE;fill-opacity:0.211765}
   ]]>
  </style>
 </defs>
 <g id="Layer_x0020_1">
  <metadata id="CorelCorpID_0Corel-Layer"/>
  <g id="_2686073151520">
   <path class="fil0 str0" d="M2549.03 499.48c1285.01,0 2326.71,1019.06 2326.71,2276.13 0,1257.07 -1041.7,2276.13 -2326.71,2276.13 -1285.01,0 -2326.71,-1019.06 -2326.71,-2276.13 0,-1257.07 1041.71,-2276.13 2326.71,-2276.13z"/>
   <g>
    <path class="fil1" d="M3360.86 4417.34l-441.49 -913.27 38.23 -21.4 -114.66 -214.29 91.73 -48.22 7.66 -58.95 38.22 -5.36 0 -198.22 -53.52 -32.14 0 -48.22 -45.85 -26.79 -22.94 -53.55 -53.5 -16.09 0 -980.4 50.95 -8.94 10.2 -24.98 61.14 -25.01 0 -185.72c0,0 -81.52,-57.16 -183.44,-53.65 0,-395.9 -3.84,-4.06 -3.84,-414.87l42.05 0 0 -26.82 -42.05 0 0 -324.1 26.76 0 0 -21.52 -26.76 0 0 -214.31 -26.76 -48.19 -26.74 48.19 0 214.31 -26.76 0 0 21.52 26.76 0 0 324.1 -42.05 0 0 26.82 42.05 0c0,410.81 -3.82,18.98 -3.82,414.87 -101.94,-3.52 -183.47,53.65 -183.47,53.65l0 185.72 61.17 25.01 10.2 24.98 50.94 8.94 0 980.4 -53.49 16.09 -22.94 53.55 -45.88 26.79 0 48.22 -53.5 32.14 0 198.22 38.22 5.36 7.66 58.95 91.72 48.22 -114.66 214.29 38.23 21.4 -441.48 913.27 42.8 0 487.85 -782.9 58.79 782.9 116.82 0 5.75 -76.54 53.04 -706.36 487.85 782.9 42.82 0z"/>
    <path class="fil1" d="M2303.42 2464.64l-1047.1 0 0 493.22c-21,-21.88 -45.89,-41.97 -60.21,-53l0 -47.67 -17.11 0 0 41.26c-30.03,18.5 -180.35,117.57 -180.35,264.49 0,111.16 57.71,167.37 57.71,167.37l0 159.37 -192.31 0 -14.05 -822.45 45.89 -106.54 -224.16 0 40.47 107.96 -30.87 1508.48 -71.75 0 0 240.83 1379.56 0 0 -240.65 -380.3 0 0 -843.44c0,-470.65 643.28,-391.58 694.58,-420.02l0 -449.21zm-1140.96 1712.68l-113.19 0 0 -324.25c0,0 24.75,-64.57 56.6,-64.57 31.98,0 56.32,64.57 56.32,64.57l0.28 324.25z"/>
    <path class="fil1" d="M3170.06 2464.64l1047.1 0 0 493.22c21,-21.88 45.89,-41.97 60.21,-53l0 -47.67 17.11 0 0 41.26c30.03,18.5 180.35,117.57 180.35,264.49 0,111.16 -57.71,167.37 -57.71,167.37l0 159.37 192.31 0 14.05 -822.45 -45.89 -106.54 224.16 0 -40.47 107.96 30.87 1508.48 71.75 0 0 240.83 -1379.56 0 0 -240.65 380.3 0 0 -843.44c0,-470.65 -643.27,-391.58 -694.58,-420.02l0 -449.21zm1140.96 1712.68l113.19 0 0 -324.25c0,0 -24.75,-64.57 -56.6,-64.57 -31.98,0 -56.32,64.57 -56.32,64.57l-0.28 324.25z"/>
   </g>
   <path class="fil2" d="M2725.4 0c1505.2,0 2725.4,1220.21 2725.4,2725.4 0,1505.2 -1220.21,2725.4 -2725.4,2725.4 -1505.2,0 -2725.4,-1220.21 -2725.4,-2725.4 0,-1505.2 1220.21,-2725.4 2725.4,-2725.4zm-19.27 596.93c1100.25,0 2128.47,1004.13 2128.47,2104.38 0,1100.25 -1008.94,2128.47 -2109.19,2128.47 -1100.25,0 -2104.38,-1004.12 -2104.38,-2104.37 0,-1100.25 984.85,-2128.47 2085.1,-2128.47z"/>
   <path class="fil3" d="M430.71 3040.55l26.28 150.86 -44.68 7.78 -9.1 -52.22 -158.4 27.59 -8.09 -46.42 158.4 -27.59 -9.1 -52.22 44.68 -7.79zm-126.45 405.97l-11.59 -50.21 29.25 -17.33 -17.22 -74.6 -33.88 -2.76 -11.59 -50.21 216.62 21.93 13.51 58.54 -185.1 114.65zm125.83 -131.8l-79.18 -6.51 10.86 47.06 68.31 -40.55zm-87.31 248.28c-6.61,-19.52 -7.96,-37.41 -4.03,-53.67 3.92,-16.25 12.54,-29.85 25.83,-40.77l35.35 30.93c-15.39,13.92 -19.78,30.64 -13.16,50.17 5.98,17.66 14.28,24.7 24.88,21.11 5.95,-2.02 9.44,-6.42 10.46,-13.19 1.52,-7.15 1.74,-19.04 0.66,-35.67 -1.02,-17.07 0.65,-32.35 4.99,-45.84 5.64,-15.18 17.28,-25.76 34.95,-31.74 18.03,-6.11 34.62,-4.58 49.75,4.6 15.19,9.36 25.82,22.97 31.86,40.82 5.42,15.99 6.44,31.4 3.07,46.22 -3.37,14.82 -11.02,28.19 -22.94,40.11l-34.79 -30.19c12.67,-12.17 16.39,-25.97 11.16,-41.4 -2.2,-6.51 -5.33,-11.15 -9.38,-13.93 -4.05,-2.77 -8.21,-3.43 -12.49,-1.99 -4.65,1.57 -8.08,5.22 -10.29,10.95 -2.08,6.1 -2.77,16.9 -2.07,32.42l0.29 20.11c0.09,5.15 -0.6,11.39 -2.05,18.73 -1.08,7.83 -3,14.08 -5.77,18.75 -6.65,12.2 -17.22,20.76 -31.72,25.67 -18.41,6.23 -35.37,4.52 -50.87,-5.16 -15.14,-9.8 -26.36,-25.48 -33.67,-47.05zm213.12 175.41l71.92 -32.5 19.4 42.94 -187.85 84.89 -19.4 -42.94 74.6 -33.71 -26.68 -59.04 -74.6 33.71 -19.4 -42.94 187.85 -84.89 19.4 42.94 -71.92 32.5 26.68 59.04zm75.14 188.47l-55.33 115.61 -26.8 -46.42 49.64 -104.84 -82.63 47.72 -23.56 -40.8 178.52 -103.09 23.56 40.8 -77.52 44.77 109.04 9.81 26.8 46.41 -121.72 -9.97zm66.35 154.13l-29.83 21.07 47.56 67.35 -37.04 26.16 -74.75 -105.84 168.38 -118.92 73.9 104.63 -37.04 26.16 -46.72 -66.15 -27.9 19.71 42.47 60.14 -36.56 25.82 -42.47 -60.14zm163.02 198.1l88.04 -69.08 29.09 37.07 -162.18 127.26 -21.81 -27.8 38.95 -131.63 -88.04 69.08 -29.09 -37.07 162.18 -127.26 21.82 27.8 -38.95 131.63zm144.41 -5.08l105.45 111.04 -32.89 31.23 -36.5 -38.44 -116.59 110.72 -32.45 -34.17 116.59 -110.72 -36.5 -38.44 32.89 -31.23zm95.78 290.13l91.81 -105.15 35.49 30.99 -89.1 102.04c-12.65,14.49 -10.85,28.84 5.42,43.04 16.27,14.2 30.73,14.06 43.38,-0.43l89.1 -102.04 35.49 30.99 -91.81 105.15c-14.33,16.41 -31.25,24.45 -50.75,24.1 -19.78,-0.33 -38.32,-8.05 -55.63,-23.16 -17.3,-15.11 -27.45,-32.44 -30.44,-52 -2.97,-19.28 2.71,-37.12 17.04,-53.54zm283.02 183.62l64.41 -91.51 38.53 27.13 -118.66 168.56 -28.9 -20.34 -0.6 -137.28 -64.42 91.51 -38.53 -27.12 118.66 -168.56 28.9 20.34 0.6 137.28zm47.21 140.07l104.1 -177.93 40.67 23.8 -104.09 177.93 -40.67 -23.79zm201.01 109.43l-53.53 -27.27 33.75 -214.16 45.92 23.39 -28.17 155.86 109.52 -114.41 45.92 23.39 -153.41 153.2zm184.42 -8.65l-13.26 34.02 76.83 29.94 -16.47 42.25 -120.73 -47.04 74.85 -192.07 119.36 46.51 -16.47 42.26 -75.46 -29.4 -12.4 31.83 68.6 26.73 -16.25 41.71 -68.6 -26.73zm259.3 172.79l-48.78 -13.66 -19.17 -75.7 -21.55 -6.03 -18.26 65.22 -45.37 -12.71 55.58 -198.51 79.4 22.23c18.9,5.29 33.12,16.41 42.65,33.35 9.53,16.94 11.65,34.86 6.35,53.77 -3.34,11.91 -9.81,22.12 -19.43,30.64 -9.63,8.52 -20.71,14.08 -33.26,16.68l21.85 84.71zm-30.06 -176.62l-34.03 -9.53 -14.29 51.05 34.03 9.53c6.24,1.74 12.27,0.78 18.09,-2.89 5.82,-3.67 9.73,-9.1 11.74,-16.28 2.01,-7.19 1.49,-13.86 -1.58,-20.02 -3.07,-6.16 -7.72,-10.11 -13.96,-11.86zm153.87 210.4c-20.09,-4.64 -36.01,-12.9 -47.78,-24.78 -11.77,-11.88 -18.8,-26.35 -21.11,-43.41l44.9 -13.81c3.75,20.41 15.67,32.93 35.76,37.57 18.17,4.2 28.52,0.84 31.04,-10.07 1.41,-6.12 -0.5,-11.4 -5.72,-15.82 -5.28,-5.05 -15.28,-11.49 -29.99,-19.32 -15.05,-8.11 -27.18,-17.56 -36.38,-28.34 -9.95,-12.77 -12.82,-28.25 -8.63,-46.42 4.28,-18.56 14.31,-31.86 30.06,-39.91 15.95,-8 33.11,-9.88 51.48,-5.65 16.45,3.8 30.1,11.03 40.93,21.69 10.84,10.66 18.19,24.19 22.06,40.6l-43.97 13.73c-3.69,-17.17 -13.48,-27.59 -29.35,-31.25 -6.7,-1.54 -12.29,-1.33 -16.78,0.66 -4.49,1.99 -7.24,5.18 -8.26,9.58 -1.1,4.78 0.2,9.62 3.91,14.5 4.09,4.97 12.92,11.24 26.48,18.81l17.26 10.33c4.43,2.63 9.38,6.5 14.86,11.59 6.09,5.03 10.4,9.95 12.91,14.77 6.89,12.07 8.61,25.56 5.17,40.48 -4.37,18.94 -14.75,32.46 -31.13,40.57 -16.29,7.73 -35.53,9.03 -57.72,3.91zm134.3 20.45l26.82 -204.39 46.72 6.13 -26.82 204.39 -46.72 -6.13zm119.25 -190.33l152.69 11.6 -3.43 45.22 -52.86 -4.01 -12.18 160.33 -46.98 -3.57 12.18 -160.33 -52.86 -4.01 3.43 -45.22zm313.23 14.95l53.58 1.13 -71.88 125.43 -1.68 79.2 -47.11 -1 1.68 -79.2 -66.5 -128.36 53.58 1.13 37.48 80.32 40.84 -78.67zm346.81 148.79c-17.95,23.14 -41.72,36.66 -71.31,40.54 -29.59,3.88 -56.04,-3.04 -79.35,-20.77 -23.32,-17.73 -36.94,-41.59 -40.88,-71.56 -3.93,-29.98 3.08,-56.54 21.03,-79.68 17.95,-23.15 41.72,-36.66 71.31,-40.55 29.58,-3.88 56.04,3.04 79.35,20.78 23.32,17.73 36.94,41.59 40.87,71.56 3.94,29.98 -3.07,56.54 -21.03,79.69zm-144.82 -57.92c2.35,17.91 9.91,31.77 22.68,41.57 12.77,9.81 27.72,13.59 44.85,11.34 16.93,-2.22 30.3,-9.72 40.11,-22.49 9.98,-12.99 13.81,-28.34 11.48,-46.06 -2.32,-17.71 -9.98,-31.56 -22.97,-41.54 -12.77,-9.81 -27.63,-13.6 -44.56,-11.38 -17.13,2.25 -30.6,9.76 -40.41,22.53 -9.81,12.77 -13.54,28.11 -11.19,46.02zm317.7 -159.72l10.14 44.21 -76.07 17.44 8.89 38.75 74.63 -17.11 10.14 44.2 -74.63 17.11 16.92 73.77 -45.93 10.53 -46.08 -200.93 121.99 -27.97zm245.84 8.4l-24.87 -74.9 44.72 -14.85 64.95 195.64 -44.72 14.85 -25.8 -77.7 -61.49 20.42 25.79 77.7 -44.72 14.85 -64.95 -195.64 44.72 -14.85 24.87 74.91 61.49 -20.42zm123.11 18.63l-57.48 -127.2 42.94 -19.4 55.79 123.45c7.92,17.53 21.72,21.85 41.4,12.96 19.68,-8.89 25.56,-22.11 17.64,-39.64l-55.79 -123.45 42.94 -19.4 57.48 127.2c8.97,19.86 9.25,38.58 0.83,56.18 -8.52,17.85 -23.24,31.51 -44.18,40.97 -20.93,9.46 -40.91,11.49 -59.95,6.09 -18.77,-5.31 -32.64,-17.89 -41.62,-37.75zm271.75 -294.49l40.93 -23.33 102.07 179.1 -40.93 23.33 -59.35 -104.13 -3 102.38 -4.61 2.62 -89.62 -49.59 59.34 104.13 -40.93 23.33 -102.07 -179.1 40.93 -23.33 93.96 51.86 3.27 -107.27zm351.69 9.3l-41.98 29.89 -27.19 -20.41 -62.37 44.41 10.39 32.36 -41.98 29.89 -62.47 -208.58 48.94 -34.85 176.66 127.27zm-169.87 -65.95l24.23 75.66 39.34 -28.01 -63.57 -47.65zm237.04 -115.77l-73.12 -84.71 35.67 -30.79 134.7 156.05 -26.75 23.09 -133.31 -32.76 73.12 84.71 -35.67 30.79 -134.7 -156.05 26.75 -23.09 133.31 32.76zm252.76 -112.78c-13.48,15.59 -28.22,25.82 -44.22,30.67 -16,4.86 -32.08,4.32 -48.24,-1.61l8.75 -46.15c19.8,6.21 36.44,1.53 49.92,-14.07 12.2,-14.11 14.06,-24.82 5.6,-32.14 -4.75,-4.11 -10.31,-4.89 -16.66,-2.34 -6.93,2.31 -17.29,8.15 -31.09,17.5 -14.2,9.52 -28.22,15.83 -42.05,18.92 -15.94,2.83 -30.96,-1.85 -45.07,-14.05 -14.41,-12.45 -21.49,-27.53 -21.24,-45.22 0.37,-17.84 6.72,-33.89 19.05,-48.15 11.04,-12.77 23.81,-21.46 38.3,-26.06 14.49,-4.6 29.89,-4.78 46.21,-0.54l-8.4 45.29c-16.91,-4.75 -30.69,-0.96 -41.35,11.36 -4.49,5.2 -6.91,10.25 -7.25,15.14 -0.34,4.9 1.2,8.82 4.61,11.77 3.71,3.21 8.6,4.32 14.65,3.32 6.31,-1.3 15.97,-6.17 29,-14.63l17.2 -10.44c4.4,-2.69 10.13,-5.26 17.19,-7.72 7.29,-3.04 13.66,-4.54 19.09,-4.52 13.89,-0.45 26.62,4.33 38.2,14.34 14.71,12.71 21.82,28.2 21.33,46.47 -0.77,18.01 -8.61,35.63 -23.51,52.86zm148.83 -180.7c-19.03,24.25 -42.87,38.1 -71.54,41.56 -28.54,3.31 -54.86,-4.5 -78.96,-23.41 -24.1,-18.91 -37.85,-42.56 -41.28,-70.94 -3.73,-28.63 3.97,-55.16 23.12,-79.56 11.39,-14.52 25.3,-25.32 41.71,-32.4 16.42,-7.08 33.2,-9.63 50.36,-7.65l-6.55 46.52c-9.12,-1.41 -18,-0.2 -26.62,3.63 -8.62,3.84 -16.21,9.93 -22.75,18.27 -11.39,14.52 -16.02,29.48 -13.88,44.88 1.98,15.28 10.31,28.68 24.98,40.19 14.67,11.51 29.67,16.42 44.98,14.71 15.47,-1.58 28.9,-9.64 40.29,-24.16 6.43,-8.19 10.49,-17.03 12.21,-26.54 1.72,-9.51 0.82,-18.38 -2.69,-26.63l43.62 -17.43c6.13,16.04 7.71,32.88 4.73,50.5 -2.97,17.63 -10.22,33.78 -21.74,48.45zm81.18 -123.34l-173.91 -110.69 25.3 -39.75 173.91 110.69 -25.3 39.75zm16.22 -183.07l31.58 18.34 41.4 -71.31 39.22 22.77 -65.06 112.05 -178.27 -103.51 64.32 -110.78 39.22 22.77 -40.66 70.03 29.54 17.15 36.97 -63.67 38.71 22.47 -36.97 63.67zm102.62 -230.49l-101.85 -46.36 19.52 -42.88 187.62 85.4 -14.64 32.16 -134.79 26.01 101.85 46.36 -19.52 42.89 -187.62 -85.4 14.64 -32.16 134.79 -26.01zm168.67 -162.45c-10.13,29.11 -28.19,49.95 -54.19,62.53 -25.93,12.39 -53.36,13.55 -82.28,3.48 -28.93,-10.06 -49.62,-27.97 -62.07,-53.71 -12.82,-25.87 -14.14,-53.46 -3.95,-82.75 6.06,-17.43 15.71,-32.16 28.94,-44.18 13.23,-12.02 28.28,-19.88 45.15,-23.57l8.9 46.12c-9.09,1.62 -17.09,5.65 -24,12.07 -6.91,6.43 -12.11,14.65 -15.59,24.66 -6.06,17.43 -5.59,33.08 1.43,46.96 6.83,13.81 19.06,23.78 36.68,29.91 17.62,6.13 33.39,5.9 47.32,-0.68 14.12,-6.52 24.21,-18.49 30.28,-35.92 3.42,-9.83 4.4,-19.52 2.94,-29.06 -1.46,-9.55 -5.18,-17.66 -11.18,-24.32l35.6 -30.64c11.01,13.18 17.96,28.59 20.86,46.24 2.91,17.64 1.29,35.26 -4.84,52.88zm-27.56 -205.79l35.6 8.16 18.43 -80.37 44.2 10.14 -28.96 126.29 -200.93 -46.08 28.63 -124.86 44.21 10.14 -18.1 78.93 33.3 7.64 16.46 -71.76 43.63 10 -16.45 71.76zm128.16 -194.43c-3.66,20.29 -11.15,36.59 -22.45,48.91 -11.3,12.32 -25.42,20.05 -42.34,23.17l-15.96 -44.18c20.2,-4.73 32.14,-17.24 35.81,-37.52 3.32,-18.35 -0.53,-28.53 -11.55,-30.52 -6.18,-1.12 -11.36,1.04 -15.53,6.47 -4.79,5.52 -10.74,15.81 -17.85,30.89 -7.38,15.42 -16.23,27.99 -26.56,37.69 -12.28,10.55 -27.6,14.17 -45.95,10.85 -18.74,-3.39 -32.51,-12.76 -41.31,-28.11 -8.76,-15.55 -11.47,-32.6 -8.12,-51.15 3,-16.61 9.57,-30.59 19.7,-41.93 10.13,-11.34 23.29,-19.33 39.49,-23.99l15.83 43.26c-16.97,4.51 -26.91,14.79 -29.81,30.82 -1.22,6.76 -0.73,12.34 1.47,16.72 2.2,4.39 5.52,6.98 9.97,7.79 4.83,0.87 9.59,-0.66 14.3,-4.6 4.77,-4.32 10.61,-13.44 17.51,-27.36l9.49 -17.74c2.42,-4.55 6.04,-9.68 10.86,-15.39 4.73,-6.32 9.44,-10.86 14.13,-13.61 11.72,-7.46 25.12,-9.83 40.19,-7.11 19.13,3.46 33.13,13.17 42.02,29.14 8.5,15.9 10.73,35.06 6.67,57.47z"/>
   <polygon class="fil4" points="5169.95,2536.33 5220.38,2640.66 5338.56,2654.8 5251.54,2733.42 5274.16,2846.5 5169.95,2790.75 5065.75,2846.5 5088.36,2733.42 5001.34,2654.8 5119.53,2640.66 "/>
   <polygon class="fil4" points="316.61,2536.33 367.03,2640.66 485.22,2654.8 398.2,2733.42 420.81,2846.5 316.61,2790.75 212.4,2846.5 235.02,2733.42 148,2654.8 266.18,2640.66 "/>
   <path class="fil5" d="M2396.06 4448.86l-182.24 0 0 -21.28 103.2 -85.8c29.48,-24.32 44.23,-45.15 44.23,-62.49 0,-14.64 -5.53,-26.29 -16.59,-34.96 -11.06,-8.67 -24.78,-13.01 -41.16,-13.01 -29.21,0 -50.64,11.15 -64.29,33.44l-24.16 -11.83c8.74,-14.41 20.89,-25.44 36.45,-33.1 15.56,-7.66 32.9,-11.49 52.01,-11.49 22.93,0 43,6.42 60.2,19.26 17.48,12.39 26.21,29.61 26.21,51.68 0,13.06 -4.37,25.84 -13.11,38.34 -8.74,12.5 -22.12,26.18 -40.13,41.04l-81.9 67.22 141.29 0 0 22.97zm272.13 -29.05c-18.83,22.07 -45.46,33.1 -79.86,33.1 -34.13,0 -60.88,-11.04 -80.26,-33.1 -18.83,-22.3 -28.26,-52.02 -28.26,-89.18 0,-37.38 9.42,-67 28.26,-88.84 19.38,-22.3 46.14,-33.44 80.26,-33.44 34.4,0 61.02,11.15 79.86,33.44 19.11,21.84 28.67,51.46 28.67,88.84 0,37.38 -9.56,67.11 -28.67,89.18zm-138.82 -15.88c14.47,17.34 34.13,26.01 58.97,26.01 25.12,0 44.64,-8.67 58.57,-26.01 14.19,-17.11 21.29,-41.55 21.29,-73.3 0,-31.76 -7.1,-56.19 -21.29,-73.31 -13.93,-17.34 -33.44,-26.01 -58.57,-26.01 -24.84,0 -44.5,8.67 -58.97,26.01 -13.93,17.34 -20.89,41.78 -20.89,73.31 0,31.53 6.96,55.96 20.89,73.3zm433.48 44.93l-182.23 0 0 -21.28 103.2 -85.8c29.48,-24.32 44.23,-45.15 44.23,-62.49 0,-14.64 -5.53,-26.29 -16.59,-34.96 -11.06,-8.67 -24.78,-13.01 -41.16,-13.01 -29.21,0 -50.64,11.15 -64.29,33.44l-24.16 -11.83c8.74,-14.41 20.89,-25.44 36.45,-33.1 15.56,-7.66 32.9,-11.49 52.01,-11.49 22.93,0 43,6.42 60.2,19.26 17.48,12.39 26.21,29.61 26.21,51.68 0,13.06 -4.37,25.84 -13.11,38.34 -8.74,12.5 -22.12,26.18 -40.13,41.04l-81.91 67.22 141.29 0 0 22.97zm266 0l-182.23 0 0 -21.28 103.2 -85.8c29.48,-24.32 44.23,-45.15 44.23,-62.49 0,-14.64 -5.53,-26.29 -16.59,-34.96 -11.06,-8.67 -24.78,-13.01 -41.16,-13.01 -29.21,0 -50.64,11.15 -64.29,33.44l-24.16 -11.83c8.74,-14.41 20.89,-25.44 36.45,-33.1 15.56,-7.66 32.9,-11.49 52.01,-11.49 22.93,0 43,6.42 60.2,19.26 17.48,12.39 26.21,29.61 26.21,51.68 0,13.06 -4.37,25.84 -13.11,38.34 -8.74,12.5 -22.12,26.18 -40.13,41.04l-81.91 67.22 141.29 0 0 22.97z"/>
   <path class="fil6" d="M3548.73 1859.17c-0.18,-0.35 0.35,-0.06 0,0zm-709 340.75l0 -46.57c0.17,1.51 0.36,2.6 0.56,3.21 5.95,-4.73 2.93,-25.95 2.88,-34.08 -0.18,-34.27 -2.67,-89.14 0.43,-119.4l205.24 0.1c1.07,19.74 -2.81,133.12 2.17,139.38 2.68,-7.75 2.34,-134.63 0.84,-158.1 -0.76,-11.94 -3.57,-12.35 4.41,-20.91 5.02,-5.38 8.55,-9.34 13.9,-13.64 0.34,0.23 0.86,0.2 1,0.73l14.64 14.66 3.29 -8.31c20.83,-0.94 120.04,2.55 130.13,-1.18l-1.09 -22.68c8.43,-3.19 137.34,-2.72 152.29,-0.64l-2.99 24.44c25.07,0.07 114.64,-3.34 131.53,0.86l-1.42 99.09c-0.06,30.39 -1.55,61.28 -0.26,91.66 0.31,7.27 -0.79,6.24 4.8,7.93 3.8,-6.23 6.04,-127.31 6.55,-146.27 0.58,-21.46 1.67,-139.67 4.56,-150.43 0.43,-0.22 1.11,-0.9 1.37,-0.48l6.08 -1.1c7.48,-0.5 18.46,-1.47 25.64,0.53 1.55,0.43 2.19,0.49 2.43,0.45 0.11,0.21 0.46,0.63 1.39,1.45 6.53,9.8 0.38,245.06 8.6,261.84 6.31,-8.98 -6.31,-137.78 -0.83,-154.41l144.83 -0.35c5.04,24.47 -1.01,109.39 0.53,146.26l2.2 9.11c6.59,-11.88 -4.71,-344.17 2.8,-365.48 17.89,-2.54 301.23,-0.36 333.83,-0.39 5.22,-0 105.63,-2.7 109.85,1.76 4.87,5.14 1.56,234.54 1.51,272.03 -0.02,15.54 -0.03,31.07 -0.01,46.61 0.01,7.49 0.02,14.96 -0.02,22.44 -0.03,3.9 -0.3,8.45 -0.23,12.22 0.01,0.35 0.27,4.89 0.3,5.03 1.11,5.16 0.13,2.88 2.54,5.38 6.9,-17.39 -4.89,-137.71 2.53,-154.59l144.82 -0.36 -3.36 155.32c3.55,-3.39 3.64,-7.92 3.63,-13.78l1.2 -50.68c1.31,-38.3 0.15,-180.33 5.79,-199.14 5.1,-1.96 12.15,-1.19 18.01,-1.15 6.23,0.04 12.48,-0.13 18.68,0.01 6.1,29.2 2.72,286.49 11.6,295.89 3.9,4.13 36.07,1.77 42.23,1.75 14.96,-0.05 29.93,-0.08 44.89,-0.06l0 44.04 -1606.31 0zm820.98 -340.17c19.38,12.17 35.83,30.81 28.4,56.51 -3.42,11.81 -5.4,-0.47 -6.38,16.44 -0.58,10.05 0.13,7.99 -11.81,8.01l-92.59 -0.1c-2.57,-7.66 0.53,-10.84 -2.21,-17 -3.34,-7.51 -5.31,0.08 -6.25,-13.27 -2.27,-32.19 26.72,-55.95 52.03,-59.33l-17.71 14.87c-12.15,11.64 -17.18,26.54 -16.12,44.41 0.83,14.14 5.06,12.28 17.56,12.52 -2.88,-14.96 -2.79,-32.26 1.97,-46.26 4.32,-12.72 10.45,-22.43 21.9,-29.39 10.79,5.32 19.51,5.25 31.22,12.6zm669.66 -92.86l25.08 0.79c0.55,8.92 -6.42,14.65 -8.23,22.66 -1.67,7.41 0.13,21.99 -0.34,30.64l-35.9 0.01c-0.75,-20.3 4.14,-24.2 -5.14,-41.77 -9.67,-18.3 4.98,-12.25 24.54,-12.33zm-85.36 85.12c10.42,2.66 30.31,15.17 36.28,24.39 6.58,10.16 9.53,17.61 9.13,32.05 -0.35,12.44 -2.2,8.85 -5.49,15.08 -2.75,5.2 -2.06,17.92 -2.69,14.8 -0.05,-0.22 -0.22,0.86 -0.43,2.09l-102.78 0.25c-2.69,-7.69 0.42,-10.83 -2.35,-16.9 -3.45,-7.54 -5.35,0.21 -6.31,-13.42 -2.44,-34.57 29.6,-57.25 52.16,-59.25l-4.37 3.74c-0.33,0.26 -0.74,0.53 -1.07,0.78 -18.72,13.99 -30.06,26.49 -28.48,54.67 0.8,14.12 4.95,12.48 17.24,12.49l-1.48 -24.72c0,-30.46 20.08,-45.96 23.4,-51.04 5.93,1.58 4.45,2.01 8.85,3.32 3.58,1.06 5.14,0.85 8.41,1.68zm-695.05 -61.49c-1.56,7.19 0.01,22.15 -0.36,30.51l-36.11 -0.02c-0.11,-8.56 1.91,-24.27 -0.04,-31.16 -2.4,-8.45 -8.81,-12.46 -8.44,-22.97l53.12 0.61c0.41,9.4 -6.16,13.73 -8.17,23.02zm797.28 35.05l0.16 29.35 -37.23 0.15 0.47 -30.59c11.5,-0.23 25.64,-1.92 36.6,1.09zm-797.52 -1.03l0.27 30.35 -37.29 0.19 1.56 -30.87 35.46 0.33z"/>
   <path class="fil6" d="M2564.37 2154.83l0 45.09 -1570.94 0 0 -43.85 95.26 -0.01 0.26 -139.12c1,-0.22 1.68,-0.93 1.93,-0.51 0.26,0.43 1.03,-0.38 1.39,-0.46 7.71,-1.58 16.05,-0.41 23.88,-0.3l0.36 -146.44 29.91 -1.06 0.21 147.32 118.13 -0.1c0.72,-11.75 -2.26,-33.85 1.42,-43.61l76.17 -0.77 0.64 -69.52c-2.89,-8.81 -6.86,11.67 -6.72,-48.34 0.08,-33.4 16.47,-54.31 40.14,-72.8 8.98,-7.02 24.44,-15.97 36.69,-20.5 -1.47,-15.83 1.48,-8.18 2.27,-23.42 3.87,8.79 4.69,14.6 4.2,23.55 18.14,6.64 32.27,17.82 45.12,27.59 10.3,7.83 24.59,25.8 29.34,44.79 2.39,9.55 4.02,48.39 1.24,60.28 -3.87,16.54 -5.85,-9.56 -5.84,39.93 0.01,12.64 -0.26,25.51 0.15,38.12l76.21 0.56c4.04,10.24 1.09,31.52 1.63,43.42 9.96,1.95 111.1,1.85 116.81,-0.53 1.3,-24.4 0.89,-51.92 0.43,-76.39 -0.46,-24.55 1.26,-53.97 0.2,-76.93 7.88,-3.04 21.19,-2.37 29.83,-0.88l-0.05 155.16 28.35 0.27c2.33,19.66 -2.21,59.43 0.47,74.14 1.15,6.3 -0.17,4.39 6.14,4.9 6.54,-19.94 -3.11,-98.64 1.92,-127.19l67.71 0.32c2.76,23.5 -4.01,181.61 2.8,188.83 4.37,-5.56 2.43,-231.91 1.93,-277.32 -0.03,-2.54 -0.25,-6.39 -0.15,-8.74 0.08,-2.04 0.04,-2.76 0.48,-4.72 2.3,-10.33 32.74,-4.18 33.54,-3.41 4.15,6.39 1.48,24.75 1.48,34.15l0 112.21c-0.02,19.39 -3.45,141.1 2.43,147.95 5.14,-5.64 2.34,-98.45 2.33,-115.15l0.09 -302.11c0.01,-17.27 -1.49,-44.41 0.77,-60.42 6.11,-1.89 264.2,-2.72 284.08,-0.68 8.75,23.47 -5.61,461.46 2.4,478.38 6.01,-4.24 3.23,-60.07 3.22,-70.29l-0.15 -225.07 35.55 -0.45c0.76,38.26 -3.64,283.33 1.1,295.86 6.63,-3.97 3.2,-35.95 3.22,-44.45 0.1,-34.55 -3.05,-120.87 0.84,-144.93l67.48 0.41 0.41 126.46 52.8 0.02c0.11,-27.32 -0.04,-54.7 0.03,-82.08 0.02,-9.48 -2.02,-33.78 -1.5,-39.61 0.87,-9.63 12.52,-11.97 17.92,-22.9 6.79,2.83 3.06,1.48 7.26,5.9 9.49,10.01 15.23,8.11 13.14,25.84 -1.85,15.65 -0.58,38.49 -0.63,54.93 -0.04,14.82 -2.32,100.18 1.63,106.27 5.66,-7.64 -0.05,-117.66 2.21,-138.6l74.22 -0.73 0.4 -26.38c6.7,-2.79 85.67,-2.59 95,-0.44l0.32 26.9 35.2 -0.1c1.32,25.08 -3.25,140.69 1.54,152.66 0.78,-0.51 1.33,-0.78 1.73,-0.93zm-86.33 -248.65c29.7,0.07 51.85,32.68 46.25,65.82l-92.11 -0.33c-4.42,-33.5 15.01,-65.57 45.86,-65.49zm-239.72 -81.19l0.07 128.41c13.97,2.09 26.14,-5.04 24.49,9.24 -9.11,3.7 -55.36,1.76 -68.41,1.26l0.58 -29.88 16.1 0.16 -0.61 -109.13 27.78 -0.07zm-418.73 110.15l-0.36 27.7c-5.43,2.05 -50.27,2.47 -61.11,1.36 -7.65,-0.79 -2.5,1.04 -7.69,-2.3l1.14 -7.55 24.22 -0.51 -0.63 -128.82 28.03 0.04 -0.59 109.01 16.99 1.08zm-16.51 -139.07l-0.3 26.43 -27.13 -0.33 0.21 -26.41 27.22 0.31zm435.16 -0.01l-0.27 26.53 -26.96 -0.69 0.26 -25.95 26.97 0.11zm-1091.67 53.6c-0.25,4.51 -0.09,10.76 -0.28,14.42 -5.46,2.86 -24.92,1.95 -29.57,0.83 -0.12,-4.9 0.3,-12.18 -0.14,-16.96 -1.19,-12.93 -1.23,-1.08 -5.36,-13.28l40.99 -0.27c-4.57,12.76 -4.85,0.6 -5.64,15.26z"/>
   <path class="fil3" d="M238.01 2329.26l25 -147.91 43.8 7.4 -8.65 51.2 155.31 26.25 -7.69 45.51 -155.3 -26.25 -8.65 51.2 -43.81 -7.4zm251.27 -308.03c13.72,25.2 16.51,51.84 8.37,79.92 -8.14,28.08 -24.74,49.09 -49.81,63.05 -25.07,13.96 -51.83,16.81 -80.27,8.57 -28.45,-8.25 -49.53,-24.97 -63.25,-50.17 -13.72,-25.2 -16.51,-51.84 -8.37,-79.92 8.14,-28.08 24.74,-49.09 49.81,-63.05 25.07,-13.96 51.83,-16.81 80.28,-8.57 28.44,8.25 49.53,24.97 63.24,50.17zm-108.86 107.2c16.99,4.92 32.4,3.58 46.22,-4.02 13.82,-7.61 23.08,-19.54 27.8,-35.8 4.66,-16.07 3.18,-31.02 -4.42,-44.84 -7.74,-14.06 -20.01,-23.52 -36.82,-28.39 -16.81,-4.88 -32.24,-3.44 -46.3,4.3 -13.82,7.61 -23.06,19.45 -27.71,35.52 -4.71,16.26 -3.26,31.29 4.34,45.11 7.61,13.82 19.91,23.19 36.91,28.12zm182.37 -224.99c-7.24,18.85 -17.43,33.17 -30.57,42.95 -13.14,9.79 -28.13,14.63 -44.99,14.54l-7.26 -45.44c20.31,-0.85 34.09,-10.7 41.33,-29.55 6.56,-17.05 4.72,-27.55 -5.52,-31.48 -5.74,-2.21 -11.12,-1.08 -16.13,3.38 -5.62,4.43 -13.23,13.25 -22.84,26.45 -9.92,13.49 -20.75,23.96 -32.46,31.4 -13.75,7.91 -29.16,8.58 -46.21,2.02 -17.41,-6.69 -28.95,-18.23 -34.6,-34.62 -5.58,-16.57 -5.06,-33.47 1.56,-50.7 5.93,-15.44 14.81,-27.68 26.63,-36.74 11.82,-9.05 25.96,-14.34 42.4,-15.85l7.3 44.53c-17.16,1.23 -28.61,9.3 -34.33,24.2 -2.42,6.29 -2.97,11.74 -1.65,16.36 1.31,4.62 4.03,7.73 8.16,9.32 4.49,1.72 9.36,1.12 14.6,-1.81 5.38,-3.28 12.67,-10.99 21.86,-23.12l12.38 -15.33c3.16,-3.94 7.59,-8.21 13.27,-12.83 5.71,-5.22 11.08,-8.72 16.09,-10.5 12.65,-5.03 25.97,-4.85 39.98,0.53 17.77,6.83 29.47,18.74 35.09,35.74 5.27,16.86 3.9,35.7 -4.11,56.53zm-30.08 -255.84l-70.27 -32.24 19.25 -41.95 183.54 84.21 -19.25 41.95 -72.89 -33.44 -26.46 57.68 72.89 33.44 -19.25 41.95 -183.54 -84.21 19.25 -41.95 70.27 32.24 26.46 -57.68zm115.03 -162.68l125.13 -10.28 -26.03 45.6 -113.21 9.77 81.17 46.34 -22.89 40.08 -175.36 -100.12 22.89 -40.08 76.16 43.48 -45.55 -97.09 26.03 -45.6 51.67 107.9zm103.76 -119.82l29.37 20.42 46.12 -66.31 36.47 25.37 -72.47 104.21 -165.78 -115.3 71.65 -103.02 36.47 25.36 -45.3 65.13 27.47 19.11 41.18 -59.21 36 25.04 -41.18 59.21zm138.91 -199.81l-82.34 -72.37 30.47 -34.67 151.67 133.31 -22.85 26 -133.76 -13.87 82.33 72.37 -30.47 34.67 -151.67 -133.31 22.85 -26 133.76 13.87zm-24.08 -138.2l103.1 -108.97 32.27 30.53 -35.69 37.72 114.41 108.25 -31.72 33.52 -114.41 -108.25 -35.69 37.72 -32.27 -30.53zm335.45 -194.55l80.26 -61.73 10.55 13.72c18.29,23.78 25.54,48.65 21.74,74.63 -3.88,25.55 -17.26,47.12 -40.12,64.71 -24.85,19.11 -51.66,27 -80.44,23.66 -28.62,-3.46 -51.9,-16.85 -69.84,-40.17 -17.94,-23.33 -25.04,-49.28 -21.32,-77.87 3.73,-28.59 17.41,-51.97 41.04,-70.14 14.78,-11.37 30.94,-18.52 48.46,-21.45 17.52,-2.93 34.07,-1.52 49.64,4.21l-17.38 41.76c-8,-2.83 -16.78,-3.29 -26.36,-1.38 -9.57,1.9 -18.63,6.14 -27.17,12.71 -13.56,10.43 -21.39,23.61 -23.47,39.52 -2.04,15.64 2.39,30.55 13.3,44.73 10.55,13.72 23.86,21.56 39.92,23.52 15.83,1.66 31.37,-3.38 46.61,-15.11 21.04,-16.18 28.35,-34.91 21.94,-56.18l-42.76 32.89 -24.62 -32.01zm143.3 -49.57l-74.36 -114.75 38.73 -25.1 72.16 111.36c10.25,15.82 24.25,17.97 42,6.47 17.75,-11.5 21.51,-25.17 11.26,-40.98l-72.16 -111.36 38.74 -25.1 74.36 114.75c11.61,17.92 14.63,36.01 9.05,54.29 -5.63,18.55 -17.88,33.93 -36.77,46.17 -18.88,12.24 -37.94,17.13 -57.16,14.7 -18.96,-2.38 -34.24,-12.53 -45.85,-30.45zm248.16 -308.48l40.77 -21.64 94.67 178.37 -40.77 21.64 -55.04 -103.71 -5.96 100.16 -4.59 2.43 -86.28 -51.2 55.04 103.71 -40.77 21.64 -94.67 -178.37 40.77 -21.64 90.47 53.55 6.35 -104.94zm345.94 70.07l-46.88 18.72 -21.15 -25.72 -69.65 27.82 2.39 33.21 -46.88 18.72 -11.13 -213 54.65 -21.82 138.65 162.07zm-146.4 -102.13l5.53 77.63 43.94 -17.55 -49.46 -60.08zm259.14 -30.25l-29.1 -105.69 44.5 -12.26 53.61 194.69 -33.38 9.19 -104.2 -85.01 29.1 105.69 -44.5 12.25 -53.61 -194.69 33.37 -9.19 104.2 85.01zm116.26 64.7l-45.42 -196.76 44.98 -10.38 45.42 196.76 -44.97 10.38zm41.96 -217.24l147.56 -27.02 8 43.7 -51.08 9.35 28.37 154.93 -45.4 8.31 -28.37 -154.93 -51.08 9.35 -8 -43.7zm381.92 153.7l-50.34 3.82 -12.47 -30.88 -74.79 5.67 -7.66 32.41 -50.34 3.82 53.18 -206.55 58.68 -4.45 83.74 196.16zm-109.08 -141.3l-17.98 75.72 47.17 -3.58 -29.19 -72.14zm296.21 135.25l-49.6 1.45 -40 -65.2 -21.91 0.64 1.94 66.32 -46.14 1.35 -5.92 -201.85 80.74 -2.36c19.22,-0.57 35.76,5.69 49.61,18.75 13.85,13.06 21.06,29.2 21.62,48.43 0.35,12.11 -2.73,23.55 -9.24,34.33 -6.51,10.77 -15.26,19.2 -26.24,25.3l45.13 72.85zm-79.62 -156.4l-34.6 1.02 1.52 51.9 34.6 -1.01c6.34,-0.19 11.7,-2.85 16.07,-7.98 4.37,-5.13 6.45,-11.35 6.23,-18.65 -0.21,-7.31 -2.65,-13.39 -7.32,-18.26 -4.66,-4.86 -10.17,-7.2 -16.51,-7.02zm327.47 -26.52l-3.96 44.25 -76.14 -6.81 -3.47 38.79 74.7 6.68 -3.96 44.25 -74.7 -6.69 -6.61 73.84 -45.97 -4.11 17.99 -201.13 122.11 10.93zm191.11 234.76l-49.78 -8.41 -4.67 -32.97 -73.96 -12.5 -15.24 29.61 -49.78 -8.41 101.35 -187.67 58.02 9.81 34.04 210.55zm-71.85 -163.4l-35.68 69.16 46.65 7.88 -10.96 -77.04zm235.48 111.75l29.1 -105.69 44.5 12.26 -53.61 194.69 -33.38 -9.19 -45.99 -126.37 -29.1 105.68 -44.5 -12.25 53.61 -194.69 33.37 9.19 45.99 126.37zm175.74 -59.56l-51.29 148.92 68.19 23.48 -14.47 42 -111.83 -38.51 65.75 -190.93 43.64 15.03zm202.19 304.28l-45.89 -21.05 4.05 -33.05 -68.17 -31.28 -22.41 24.63 -45.88 -21.05 146.61 -154.91 53.49 24.54 -21.8 212.17zm-26.96 -176.46l-52.42 57.52 43 19.73 9.42 -77.25zm190.81 267.09l-43.09 -24.6 -0.17 -76.5 -19.04 -10.87 -32.9 57.62 -40.08 -22.89 100.12 -175.36 70.14 40.05c16.7,9.54 27.56,23.49 32.58,41.85 5.02,18.36 2.76,35.9 -6.78,52.6 -6.01,10.52 -14.6,18.68 -25.78,24.48 -11.17,5.8 -23.03,8.44 -35.58,7.92l0.57 85.69zm13.53 -174.98l-30.06 -17.16 -25.74 45.09 30.06 17.16c5.51,3.14 11.47,3.67 17.87,1.57 6.41,-2.1 11.42,-6.32 15.04,-12.67 3.63,-6.35 4.71,-12.81 3.27,-19.4 -1.45,-6.58 -4.93,-11.44 -10.44,-14.59zm113.78 179.2l79.01 -111.6 37.67 26.67 -76.67 108.31c-10.89,15.38 -7.7,29.19 9.57,41.41 17.26,12.22 31.34,10.64 42.23,-4.74l76.67 -108.31 37.67 26.67 -79.01 111.6c-12.33,17.42 -28.02,26.94 -47.06,28.54 -19.31,1.65 -38.15,-4.03 -56.51,-17.03 -18.36,-13 -29.98,-28.88 -34.85,-47.64 -4.81,-18.49 -1.06,-36.45 11.28,-53.87zm271.92 176.46l71.59 -83.02 34.95 30.14 -131.87 152.92 -26.21 -22.61 12.6 -133.88 -71.59 83.02 -34.95 -30.14 131.88 -152.93 26.21 22.61 -12.6 133.89zm9.45 134.28l138.79 -146.68 33.53 31.72 -138.78 146.68 -33.53 -31.72zm139.03 146.71l-38.37 -44.63 110.25 -181.51 32.91 38.28 -83.51 130.75 141.81 -62.94 32.91 38.28 -196.01 81.77zm153.77 61.61l-28.16 22.05 49.81 63.59 -34.97 27.4 -78.27 -99.93 158.97 -124.52 77.38 98.79 -34.97 27.4 -48.92 -62.45 -26.34 20.64 44.47 56.77 -34.52 27.04 -44.47 -56.77zm93.6 277.28l-26.98 -41.64 34.97 -68.04 -11.92 -18.4 -55.68 36.08 -25.1 -38.74 169.46 -109.81 43.93 67.79c10.46,16.14 13.7,33.52 9.72,52.14 -3.98,18.62 -14.03,33.16 -30.17,43.62 -10.17,6.59 -21.54,9.89 -34.14,9.92 -12.59,0.02 -24.33,-3.08 -35.24,-9.3l-38.85 76.39zm92.37 -149.22l-18.82 -29.05 -43.58 28.24 18.83 29.05c3.45,5.33 8.5,8.53 15.16,9.6 6.65,1.08 13.05,-0.37 19.18,-4.35 6.13,-3.98 10.07,-9.22 11.81,-15.73 1.74,-6.51 0.88,-12.43 -2.57,-17.75zm-47.23 242.61c-9.47,-17.83 -13.58,-34.92 -12.34,-51.25 1.24,-16.33 7.42,-30.83 18.56,-43.49l39.05 24.34c-12.69,15.88 -14.3,32.74 -4.83,50.57 8.56,16.14 17.69,21.64 27.37,16.5 5.43,-2.88 8.12,-7.68 8.04,-14.39 0.34,-7.15 -1.32,-18.68 -4.97,-34.59 -3.67,-16.34 -4.46,-31.38 -2.39,-45.11 3.06,-15.56 12.66,-27.63 28.8,-36.19 16.48,-8.75 32.75,-9.87 48.83,-3.38 16.16,6.66 28.57,18.15 37.23,34.46 7.75,14.61 11.17,29.35 10.24,44.21 -0.93,14.86 -6.22,28.99 -15.87,42.39l-38.39 -23.72c10.33,-13.76 11.76,-27.69 4.28,-41.79 -3.16,-5.95 -6.91,-9.94 -11.26,-11.99 -4.35,-2.05 -8.48,-2.03 -12.38,0.04 -4.25,2.25 -6.99,6.32 -8.22,12.2 -1.06,6.22 -0.02,16.77 3.09,31.67l3.44 19.4c0.89,4.97 1.21,11.11 0.96,18.43 0.19,7.74 -0.69,14.08 -2.63,19.03 -4.51,12.84 -13.38,22.78 -26.64,29.81 -16.81,8.93 -33.48,9.93 -49.99,3.02 -16.18,-7.09 -29.49,-20.49 -39.95,-40.2zm54.76 96.34l184.03 -83.13 19 42.06 -184.03 83.13 -19 -42.06zm220.98 -2.81l56.36 139.02 -41.17 16.7 -19.51 -48.13 -145.97 59.18 -17.34 -42.77 145.97 -59.18 -19.51 -48.12 41.17 -16.7zm-30.84 267.14l-34.02 11.04 24.93 76.83 -42.26 13.71 -39.17 -120.74 192.08 -62.32 38.73 119.36 -42.26 13.71 -24.48 -75.46 -31.83 10.33 22.26 68.6 -41.71 13.53 -22.26 -68.6zm151.81 81.13l33.74 146.17 -43.29 9.99 -11.68 -50.6 -153.47 35.42 -10.38 -44.97 153.47 -35.42 -11.68 -50.6 43.29 -9.99zm-158.05 225.59l199.11 -33.66 7.69 45.51 -199.11 33.65 -7.69 -45.51z"/>
   <path class="fil5" d="M912.7 2353.73l829.21 0 0 212.11 -280.47 0 0 1272.65 -268.27 0 0 -1272.65 -280.47 0 0 -212.11zm1353.56 657.54l375.58 0 0 470.88c0,120.2 -33.74,212.46 -101.21,276.8 -67.47,64.34 -167.06,96.51 -298.76,96.51 -131.7,0 -231.28,-32.17 -298.76,-96.51 -67.48,-64.34 -101.21,-156.61 -101.21,-276.8l0 -772.08c0,-120.2 33.74,-212.46 101.21,-276.8 67.47,-64.34 167.06,-96.51 298.76,-96.51 131.7,0 231.28,32.17 298.76,96.51 67.47,64.34 101.21,156.61 101.21,276.8l0 144.23 -253.64 0 0 -159.08c0,-53.73 -12.6,-91.56 -37.8,-113.48 -25.2,-21.92 -58.94,-32.88 -101.21,-32.88 -42.27,0 -76.01,10.96 -101.21,32.88 -25.2,21.92 -37.8,59.74 -37.8,113.48l0 801.77c0,53.73 12.6,91.21 37.8,112.42 25.2,21.21 58.94,31.82 101.21,31.82 42.27,0 76.01,-10.61 101.21,-31.82 25.2,-21.21 37.8,-58.68 37.8,-112.42l0 -273.62 -121.94 0 0 -212.11zm817.01 2.12l346.32 0 0 212.11 -346.32 0 0 612.99 -268.27 0 0 -1484.76 709.7 0 0 212.11 -441.43 0 0 447.55zm826.77 -659.66l0 1145.39c0,53.73 12.6,91.21 37.8,112.42 25.2,21.21 58.94,31.82 101.21,31.82 42.27,0 76.01,-10.61 101.21,-31.82 25.2,-21.21 37.8,-58.68 37.8,-112.42l0 -1145.39 253.64 0 0 1130.54c0,120.2 -33.74,212.46 -101.21,276.8 -67.48,64.34 -167.06,96.51 -298.76,96.51 -131.7,0 -231.28,-32.17 -298.76,-96.51 -67.47,-64.34 -101.21,-156.61 -101.21,-276.8l0 -1130.54 268.27 0z"/>
  </g>
 </g>
</svg>
