<svg width="179" height="50" viewBox="0 0 179 50" fill="none" xmlns="http://www.w3.org/2000/svg">
<path d="M0 49.4838H10.7498V0.736353H0V49.4838ZM38.0279 49.4838H48.7777V0.736353H38.0279V49.4838ZM25.3494 49.4838H36.0992V0.736353H25.3494V49.4838ZM12.6785 31.9522H23.4283V0.736353H12.6785V31.9522Z" fill="white"/>
<path d="M175.768 36.1851L172.674 41.2513L169.649 36.1851H166.964L171.366 43.6601V49.4813H173.937V43.6066L178.445 36.1851H175.768Z" fill="white"/>
<path d="M118.495 29.6885H113.043V26.009H117.943V24.0004H113.043V20.7383H117.917L118.619 18.5789H110.66V31.866H118.495V29.6885Z" fill="white"/>
<path d="M130.856 31.0036V28.5061C129.882 29.2879 128.664 29.7031 127.415 29.6795H127.121C126.558 29.6822 126 29.5711 125.481 29.3529C124.961 29.1347 124.491 28.8138 124.099 28.4095C123.707 28.0052 123.401 27.5259 123.199 27.0004C122.997 26.4748 122.903 25.9139 122.923 25.3513C122.905 24.7347 123.013 24.1208 123.242 23.548C123.471 22.9752 123.816 22.4557 124.255 22.022C124.694 21.5883 125.218 21.2497 125.794 21.0273C126.369 20.8048 126.985 20.7034 127.601 20.7292C128.379 20.7292 129.147 20.8991 129.851 21.2272L130.528 19.147C129.52 18.6692 128.414 18.4349 127.299 18.463C123.593 18.3214 120.475 21.209 120.334 24.9122C120.326 25.0999 120.327 25.2877 120.336 25.4753C120.157 28.9068 122.796 31.8332 126.23 32.0117C126.272 32.0137 126.314 32.0157 126.357 32.0167H127.05C128.393 32.0772 129.722 31.7234 130.856 31.0036Z" fill="white"/>
<path d="M142.631 18.5784H132.386V20.8179H136.121V31.866H138.549V20.8179H141.911L142.631 18.5784Z" fill="white"/>
<path d="M75.6906 44.1399C75.6906 45.9177 74.8015 47.3038 72.7291 47.3038C70.6572 47.3038 69.714 46.024 69.714 44.1223V36.1766H67.2775V43.9534C67.2775 46.3174 68.087 49.6239 72.6938 49.6239C77.3005 49.6239 78.1363 46.4953 78.1363 44.0154V36.1766H75.6906V44.1399Z" fill="white"/>
<path d="M90.6407 44.2468L82.103 36.1856H81.7474V49.4818H84.1396V41.4559L92.6682 49.4818H93.0243V36.1856H90.6407V44.2468Z" fill="white"/>
<path d="M96.7413 48.3477C96.7413 48.974 97.2494 49.4818 97.8761 49.4818H98.0431C98.6698 49.4818 99.1779 48.974 99.1779 48.3477V37.3107C99.1779 36.6843 98.6698 36.1766 98.0431 36.1766H97.8761C97.2494 36.1766 96.7413 36.6843 96.7413 37.3107V48.3477Z" fill="white"/>
<path d="M107.671 45.7665L104.158 36.1851H101.571L106.729 49.4818H108.57L113.906 36.1851H111.318L107.671 45.7665Z" fill="white"/>
<path d="M141.404 39.723C141.404 39.0032 142 38.221 143.423 38.221C144.587 38.2568 145.701 38.7003 146.571 39.474V36.9856C145.593 36.3408 144.443 36.0062 143.272 36.0254C140.435 36.0254 138.878 37.8031 138.878 39.8828C138.878 43.9182 144.561 43.3672 144.561 45.8113C144.561 46.638 143.921 47.3401 142.56 47.3401C141.177 47.2618 139.854 46.7484 138.78 45.8733V48.4152C139.95 49.2233 141.343 49.6459 142.765 49.6239C145.602 49.6239 147.274 48.0417 147.274 45.829C147.274 41.6782 141.404 41.9806 141.404 39.723Z" fill="white"/>
<path d="M150.368 48.3477C150.368 48.974 150.876 49.4818 151.503 49.4818H151.67C152.297 49.4818 152.805 48.974 152.805 48.3477V37.3107C152.805 36.6843 152.297 36.1766 151.67 36.1766H151.503C150.876 36.1766 150.368 36.6843 150.368 37.3107V48.3477Z" fill="white"/>
<path d="M71.564 24.9067H69.5985V20.6047H71.7683C72.0539 20.5682 72.3441 20.5957 72.6178 20.6853C72.8915 20.7749 73.1417 20.9243 73.3504 21.1226C73.5591 21.321 73.721 21.5633 73.8243 21.8319C73.9276 22.1005 73.9697 22.3888 73.9476 22.6758C73.9594 22.985 73.9045 23.2932 73.7868 23.5794C73.669 23.8656 73.4911 24.1232 73.2651 24.3347C73.0391 24.5462 72.7703 24.7068 72.4768 24.8055C72.1833 24.9041 71.872 24.9387 71.564 24.9067ZM76.3665 22.6581C76.3665 19.9827 74.8101 18.5431 72.0709 18.5431H67.2861V31.8745H69.6076L69.5985 27.013H71.9196C74.7389 27.013 76.3665 25.3331 76.3665 22.6581Z" fill="white"/>
<path d="M95.5673 26.6753C96.3944 26.3899 97.1042 25.8398 97.5866 25.1102C98.0689 24.3806 98.297 23.5123 98.2353 22.64C98.2353 20.1782 96.7233 18.5693 93.8686 18.5693H89.2527V31.9013H91.5829V20.6314H93.4772C93.7683 20.6129 94.0601 20.6543 94.3346 20.7529C94.6091 20.8515 94.8604 21.0053 95.0731 21.2048C95.2858 21.4043 95.4553 21.6453 95.5712 21.9128C95.6871 22.1803 95.7469 22.4687 95.7469 22.7602C95.7469 23.0517 95.6871 23.3401 95.5712 23.6076C95.4553 23.8751 95.2858 24.1161 95.0731 24.3156C94.8604 24.5151 94.6091 24.6689 94.3346 24.7675C94.0601 24.8661 93.7683 24.9075 93.4772 24.889H91.832V25.0579L96.3319 31.866H98.9999L95.5673 26.6753Z" fill="white"/>
<path d="M103.554 26.3729H107.938V24.3109H103.554V20.7383H107.938L108.632 18.5784H101.17V31.8655H103.554V26.3729Z" fill="white"/>
<path d="M86.4873 29.6885H81.0443V26.009H85.9361V24.0004H81.0443V20.7383H85.9093L86.6119 18.5789H78.6612V31.866H86.4873V29.6885Z" fill="white"/>
<path d="M123.528 38.345L124.231 36.1851H116.271V49.4813H124.115V47.3038H118.663V43.6152H123.555V41.6157H118.663V38.345H123.528Z" fill="white"/>
<path d="M133.727 12.0551H128.25V8.34941H133.164V6.3408H128.25V3.05445H133.137L133.843 0.885048H125.846V14.2427H133.727V12.0551Z" fill="white"/>
<path d="M136.103 40.2563C136.103 37.7855 134.591 36.1766 131.737 36.1766H127.183V49.5085H129.513V38.2386H131.408C131.699 38.2196 131.991 38.2605 132.266 38.3589C132.541 38.4572 132.793 38.6109 133.006 38.8105C133.219 39.01 133.389 39.2511 133.505 39.5188C133.621 39.7866 133.681 40.0753 133.681 40.3672C133.681 40.659 133.621 40.9477 133.505 41.2155C133.389 41.4833 133.219 41.7244 133.006 41.9239C132.793 42.1234 132.541 42.2771 132.266 42.3755C131.991 42.4738 131.699 42.5148 131.408 42.4957H129.727V42.6737L134.236 49.4818H136.904L133.409 44.2911C134.24 44.0092 134.955 43.4609 135.442 42.7312C135.929 42.0016 136.162 41.1316 136.103 40.2563Z" fill="white"/>
<path d="M155.242 38.4251H158.977V49.4818H161.405V38.4251H164.767L165.487 36.1856H155.242V38.4251Z" fill="white"/>
<path d="M79.8733 4.16787L81.7207 9.01021H78.0354L79.8733 4.16787ZM76.0492 14.2422L77.2002 11.2184H82.5655L83.7165 14.2422H86.38L80.9405 0.884541H78.8711L73.3943 14.2422H76.0492Z" fill="white"/>
<path d="M96.2819 10.5778C96.2819 6.41337 90.3885 6.71025 90.3885 4.4466C90.3885 3.72279 90.9826 2.93447 92.412 2.93447C93.4888 2.93447 94.6205 3.38005 95.5768 4.19559V1.70108C94.8248 1.17184 93.6653 0.73584 92.2632 0.73584C89.4141 0.73584 87.8541 2.4894 87.8541 4.60436C87.8541 8.65787 93.5629 8.10141 93.5629 10.5596C93.5629 11.3852 92.9128 12.0995 91.5485 12.0995C90.3885 12.0995 89.0893 11.608 87.7522 10.6246V13.1756C88.8199 13.9549 90.2579 14.3908 91.7528 14.3908C94.6024 14.3908 96.2819 12.8041 96.2819 10.5778Z" fill="white"/>
<path d="M101.345 8.65788H107.453V14.2422H109.903V0.884541H107.453V6.4784H101.345V0.884541H98.895V14.2422H101.345V8.65788Z" fill="white"/>
<path d="M115.619 7.57314L120.957 14.2426H124.057L118.247 7.02524L123.519 0.884497H120.604L115.619 6.76566V0.884497H113.169V14.2426H115.619V7.57314Z" fill="white"/>
<path d="M145.373 8.98295L136.796 0.885002H136.434V14.2426H138.838V6.18198L147.405 14.2426H147.767V0.885002H145.373V8.98295Z" fill="white"/>
<path d="M67.6653 14.2426H70.1043V3.13505H73.4815L74.2053 0.884497H63.9129V3.13505H67.6653V14.2426Z" fill="white"/>
<path d="M155.927 14.2426V3.13505H159.305L160.028 0.884497H149.736V3.13505H153.488V14.2426H155.927Z" fill="white"/>
</svg>
