<?xml version="1.0" encoding="UTF-8"?>
<!DOCTYPE svg PUBLIC "-//W3C//DTD SVG 1.1//EN" "http://www.w3.org/Graphics/SVG/1.1/DTD/svg11.dtd">
<!-- Creator: CorelDRAW 2020 (64-Bit) -->
<svg xmlns="http://www.w3.org/2000/svg" xml:space="preserve" width="2891px" height="1495px" version="1.1" style="shape-rendering:geometricPrecision; text-rendering:geometricPrecision; image-rendering:optimizeQuality; fill-rule:evenodd; clip-rule:evenodd"
viewBox="0 0 597.73 309.01"
 xmlns:xlink="http://www.w3.org/1999/xlink"
 xmlns:xodm="http://www.corel.com/coreldraw/odm/2003">
 <defs>
  <style type="text/css">
   <![CDATA[
    .fil0 {fill:#001143;fill-rule:nonzero}
   ]]>
  </style>
 </defs>
 <g id="Слой_x0020_1">
  <metadata id="CorelCorpID_0Corel-Layer"/>
  <path class="fil0" d="M481.27 18.95c-21.2,10.51 -38.51,19.39 -38.51,19.64 -0.09,0.26 3.44,2.33 7.67,4.57l7.75 4.05 0 11.89c0,9.9 -0.26,12.14 -1.38,13.09 -0.95,0.78 -1.21,1.98 -0.95,4.22 0.26,1.64 0.17,5.17 -0.26,7.76 -0.69,5.16 -0.17,6.03 3.45,6.03 4.05,0 4.57,-0.95 3.62,-6.98 -0.52,-3.62 -0.52,-6.03 0,-7.07 0.6,-1.2 0.43,-2.06 -0.95,-3.53 -1.64,-1.72 -1.81,-2.93 -1.81,-12.83 0,-6.03 0.26,-10.94 0.6,-10.94 0.26,0 13.87,6.46 30.24,14.38l29.64 14.39 38.68 -19.38c21.27,-10.6 38.67,-19.47 38.67,-19.73 0,-0.35 -75.8,-38.08 -77.44,-38.51 -0.26,-0.09 -17.83,8.44 -39.02,18.95z"/>
  <path class="fil0" d="M212.66 4.48c-2.58,0.6 -5.94,1.21 -7.49,1.21 -3.54,0.08 -14.22,3.53 -20.16,6.54 -15.59,7.84 -27.05,21.28 -32.31,37.91 -1.46,4.65 -1.63,8.01 -1.63,31.44l0 26.28 23.69 0 23.69 0 0.43 -21.97c0.43,-20.85 0.51,-22.14 2.5,-26.1 3.36,-6.98 10.16,-10.86 19.03,-10.94 6.72,0 10.77,1.37 14.82,4.99 6.63,5.95 7.07,8.01 7.58,32.48l0.43 21.54 23.69 0 23.69 0 0.26 -21.11c0.17,-13.7 -0.08,-23.69 -0.77,-28.43 -1.3,-8.7 -5.09,-18.26 -10.6,-26.53 -8.96,-13.53 -26.1,-23.52 -45.66,-26.53 -12.14,-1.9 -15.76,-2.07 -21.19,-0.78z"/>
  <path class="fil0" d="M0.91 5.34c-0.77,0.95 -1.03,6.2 -0.86,22.14l0.26 20.93 23.69 0.44c13.01,0.25 23.78,0.6 23.95,0.68 0.08,0.09 0.17,13.36 0.17,29.47l0 29.29 24.12 0 24.12 0 0 -29.21c0,-25.84 0.18,-29.29 1.38,-29.72 0.78,-0.26 11.11,-0.51 23.09,-0.51 15.76,0 21.97,-0.26 22.74,-1.04 1.55,-1.55 1.38,-40.23 -0.17,-42.3 -1.03,-1.37 -5.43,-1.46 -71.24,-1.46 -59.88,0.09 -70.3,0.26 -71.25,1.29z"/>
  <path class="fil0" d="M323.36 11.11c-0.26,0.61 -0.35,22.66 -0.26,48.93l0.26 47.82 23.52 0.25 23.43 0.18 0.86 -2.16c0.52,-1.29 0.86,-13.01 0.86,-27.22l0 -24.9 26.96 -0.17 26.88 -0.26 0 -21.53 0 -21.54 -51.08 -0.26c-40.41,-0.17 -51.17,0 -51.43,0.86z"/>
  <path class="fil0" d="M474.54 89.16l0 16.11 23.69 11.89 23.69 11.8 23.69 -12.14 23.7 -12.15 0 -15.42c0,-8.44 -0.18,-15.42 -0.44,-15.42 -0.25,0 -10.94,5.08 -23.77,11.37l-23.35 11.37 -23.6 -11.8 -23.61 -11.8 0 16.19z"/>
  <path class="fil0" d="M49.41 129.13c-0.26,0.61 -0.34,40.06 -0.26,87.7l0.26 86.58 23.95 0.26 23.86 0.17 0 -87.87 0 -87.87 -23.69 0c-18.17,0 -23.86,0.26 -24.12,1.03z"/>
  <path class="fil0" d="M149.95 195.9l1.44 67.45 0.88 6.03c4.05,11.37 7.24,16.63 14.22,23.95 5.68,5.94 12.4,9.99 21.79,13.18 6.98,2.33 8.36,2.5 20.25,2.5 11.54,0 13.35,-0.17 19.38,-2.33 3.7,-1.2 8.1,-3.01 9.73,-3.96 6.64,-3.79 19.39,-14.56 19.39,-18.69 1.57,-1.62 -1.53,-2.5 -0.33,-1.3 0.65,0.65 0.33,5.09 0.33,10.6l0 10.08 16.8 0 16.79 0 0 -87.44 0 -87.44 -34.89 0 -34.88 0 -0.26 17.23c-0.09,9.48 0,18.09 0.26,19.13 0.43,1.8 0.94,1.98 11.02,2.15l10.51 0.26 0.26 40.49c0.17,25.84 -0.09,41.6 -0.6,43.5 -1.38,4.65 -6.29,9.82 -11.46,12.06 -11.37,4.91 -25.33,0.34 -30.07,-9.91 -1.46,-3.27 -1.63,-6.89 -1.63,-63.06 0,-32.73 -0.26,-60.13 -0.52,-60.9 -0.43,-1.21 -3.45,-1.38 -24.55,-1.38l-24.12 0 0.26 67.8z"/>
  <polygon class="fil0" points="322.06,215.97 322.06,303.84 346.44,303.67 370.74,303.41 371.17,236.21 371.6,169.02 395.72,168.59 419.84,168.16 419.84,148.34 419.84,128.53 371,128.27 322.06,128.1 "/>
  <path class="fil0" d="M449.04 129.31c-0.25,0.6 -0.34,29.54 -0.17,64.35l1.02 63.23 1.48 7.06c4.14,13.1 13.01,25.42 23.35,32.31 8.78,5.77 13.18,7.84 23.08,10.68 7.24,2.07 8.62,2.15 23.44,1.9 15.24,-0.26 16.02,-0.44 24.29,-3.19 10.6,-3.71 21.97,-10.6 27.82,-17.06 5.35,-5.86 11.81,-16.97 13.7,-23.52 0.78,-2.58 1.72,-5.42 2.16,-6.2 0.43,-0.86 0.77,-29.98 0.77,-66.16l0 -64.61 -24.12 0 -24.12 0 0 59.44c0,57.2 -0.09,59.53 -1.72,64.01 -4.14,10.94 -16.11,16.28 -28.43,12.58 -5,-1.47 -11.29,-7.67 -12.75,-12.5 -0.78,-2.67 -1.04,-18.78 -1.04,-63.57l0 -59.96 -24.12 0c-19.64,0 -24.29,0.26 -24.64,1.21z"/>
 </g>
</svg>
