<?xml version="1.0" encoding="UTF-8"?>
<!DOCTYPE svg PUBLIC "-//W3C//DTD SVG 1.1//EN" "http://www.w3.org/Graphics/SVG/1.1/DTD/svg11.dtd">
<!-- Creator: CorelDRAW 2020 (64-Bit) -->
<svg xmlns="http://www.w3.org/2000/svg" xml:space="preserve" width="1494px" height="340px" version="1.1" style="shape-rendering:geometricPrecision; text-rendering:geometricPrecision; image-rendering:optimizeQuality; fill-rule:evenodd; clip-rule:evenodd"
viewBox="0 0 1334.57 303.8"
 xmlns:xlink="http://www.w3.org/1999/xlink"
 xmlns:xodm="http://www.corel.com/coreldraw/odm/2003">
 <defs>
  <style type="text/css">
   <![CDATA[
    .fil0 {fill:#FEFEFE}
    .fil1 {fill:#FEFEFE;fill-rule:nonzero}
   ]]>
  </style>
 </defs>
 <g id="Слой_x0020_1">
  <metadata id="CorelCorpID_0Corel-Layer"/>
  <path class="fil0" d="M303.8 0l-303.8 0 0 0c0,167.09 136.71,303.8 303.8,303.8l0 0 0 -303.8zm-303.8 231.34l0 0 0 72.46 72.46 0 0 0c0,-39.85 -32.61,-72.46 -72.46,-72.46z"/>
  <path class="fil1" d="M442.41 32.2c7.03,0 13.25,0.69 18.67,2.07 5.42,1.38 10.26,3.17 14.52,5.36l-5.36 17.63c-4.72,-2.3 -9.27,-4.06 -13.65,-5.27 -4.38,-1.21 -8.65,-1.82 -12.79,-1.82 -5.54,0 -9.83,1.1 -12.88,3.29 -3.06,2.19 -4.58,5.12 -4.58,8.81 0,3.81 1.32,6.69 3.97,8.65 2.65,1.95 6.92,3.86 12.79,5.7l10.38 3.28c8.64,2.88 15.41,6.98 20.31,12.28 4.89,5.3 7.34,11.81 7.34,19.53 0,4.61 -0.86,8.93 -2.59,12.96 -1.73,4.04 -4.32,7.55 -7.78,10.55 -3.46,2.99 -7.78,5.36 -12.96,7.08 -5.19,1.73 -11.24,2.6 -18.15,2.6 -13.02,0 -24.95,-2.65 -35.78,-7.95l5.35 -17.64c4.96,2.42 9.8,4.3 14.52,5.62 4.73,1.33 9.68,1.99 14.87,1.99 6.11,0 10.72,-1.12 13.83,-3.37 3.11,-2.25 4.66,-5.39 4.66,-9.42 0,-1.38 -0.25,-2.74 -0.77,-4.06 -0.52,-1.33 -1.47,-2.6 -2.85,-3.81 -1.39,-1.21 -3.26,-2.42 -5.62,-3.63 -2.36,-1.21 -5.45,-2.39 -9.25,-3.54l-9.16 -3.11c-4.03,-1.38 -7.72,-3 -11.06,-4.84 -3.35,-1.84 -6.2,-3.98 -8.56,-6.4 -2.36,-2.42 -4.21,-5.27 -5.53,-8.55 -1.33,-3.29 -1.99,-7.12 -1.99,-11.5 0,-4.72 0.86,-9.07 2.59,-13.05 1.73,-3.97 4.3,-7.4 7.69,-10.28 3.4,-2.88 7.61,-5.13 12.62,-6.74 5.02,-1.62 10.75,-2.42 17.2,-2.42zm57.22 35.6c4.95,-2.88 10.2,-5.1 15.73,-6.65 5.53,-1.56 11.4,-2.33 17.63,-2.33 4.95,0 9.48,0.57 13.57,1.72 4.09,1.16 7.6,2.97 10.54,5.45 2.94,2.48 5.19,5.65 6.74,9.51 1.56,3.86 2.34,8.49 2.34,13.91l0 53.59 -17.81 0 -2.07 -8.47 -0.69 0c-2.65,3.22 -6.03,5.76 -10.12,7.6 -4.09,1.84 -8.84,2.77 -14.26,2.77 -4.49,0 -8.47,-0.67 -11.92,-1.99 -3.46,-1.33 -6.4,-3.11 -8.82,-5.36 -2.42,-2.25 -4.23,-4.93 -5.44,-8.04 -1.21,-3.11 -1.82,-6.45 -1.82,-10.02 0,-4.73 1.01,-8.79 3.03,-12.19 2.01,-3.4 4.81,-6.19 8.38,-8.38 3.57,-2.19 7.75,-3.8 12.53,-4.84 4.78,-1.04 9.94,-1.56 15.47,-1.56l10.37 0 0 -5.01c0,-3.8 -1.18,-6.6 -3.54,-8.38 -2.36,-1.79 -5.68,-2.68 -9.94,-2.68 -3.34,0 -6.77,0.51 -10.28,1.55 -3.52,1.04 -7.41,2.71 -11.67,5.02l-7.95 -15.22zm43.56 39.07l-7.44 0.17c-7.03,0.23 -11.92,1.41 -14.69,3.55 -2.77,2.13 -4.15,4.69 -4.15,7.69 0,3.91 1.18,6.59 3.55,8.03 2.36,1.45 5.04,2.17 8.03,2.17 3,0 5.85,-0.87 8.56,-2.6 2.71,-1.73 4.75,-3.74 6.14,-6.05l0 -12.96zm42.52 36.13l0 -82.46 17.8 0 2.6 14.87c1.95,-4.38 5.07,-8.24 9.33,-11.58 4.26,-3.34 9.62,-5.01 16.07,-5.01 2.66,0 5.02,0.28 7.09,0.86 2.08,0.58 3.8,1.27 5.19,2.07l-3.81 18.15c-1.26,-0.69 -2.88,-1.29 -4.84,-1.81 -1.96,-0.52 -4.26,-0.78 -6.91,-0.78 -5.65,0 -10.34,1.87 -14.09,5.62 -3.74,3.74 -5.61,9.88 -5.61,18.41l0 41.66 -22.82 0zm149.17 -40.97c0,6.57 -0.98,12.5 -2.94,17.8 -1.96,5.3 -4.66,9.83 -8.12,13.57 -3.46,3.75 -7.55,6.6 -12.27,8.56 -4.73,1.96 -9.86,2.94 -15.39,2.94 -5.42,0 -10.02,-0.84 -13.83,-2.51 -3.8,-1.67 -7.14,-4 -10.02,-7l-0.69 0 -1.56 7.61 -16.59 0 0 -123.42 22.81 0 0 47.71c2.88,-2.66 6.25,-4.73 10.12,-6.23 3.86,-1.5 7.98,-2.24 12.35,-2.24 11.3,0 20.14,3.8 26.54,11.4 6.39,7.61 9.59,18.21 9.59,31.81zm-23.68 0.52c0,-8.53 -1.67,-15.01 -5.01,-19.45 -3.35,-4.44 -8.07,-6.65 -14.18,-6.65 -3.22,0 -6.22,0.77 -8.99,2.33 -2.76,1.56 -4.95,3.31 -6.56,5.27l0 37.86c1.49,1.73 3.42,3.17 5.79,4.32 2.36,1.15 4.87,1.73 7.52,1.73 2.76,0 5.44,-0.52 8.03,-1.56 2.6,-1.04 4.9,-2.59 6.92,-4.67 2.01,-2.07 3.6,-4.69 4.75,-7.86 1.15,-3.17 1.73,-6.94 1.73,-11.32zm120.31 -1.39c0,6.8 -1.1,12.91 -3.29,18.33 -2.19,5.41 -5.21,9.99 -9.07,13.74 -3.86,3.74 -8.39,6.63 -13.57,8.64 -5.19,2.02 -10.78,3.03 -16.77,3.03 -5.99,0 -11.55,-0.93 -16.68,-2.77 -5.13,-1.84 -9.56,-4.55 -13.31,-8.12 -3.74,-3.58 -6.68,-7.98 -8.81,-13.23 -2.14,-5.24 -3.2,-11.2 -3.2,-17.89 0,-7.03 1.09,-13.28 3.28,-18.75 2.19,-5.48 5.22,-10.08 9.08,-13.83 3.86,-3.74 8.38,-6.6 13.57,-8.56 5.18,-1.96 10.77,-2.93 16.76,-2.93 5.99,0 11.56,0.92 16.68,2.76 5.13,1.84 9.57,4.52 13.31,8.04 3.75,3.51 6.69,7.92 8.82,13.22 2.13,5.3 3.2,11.41 3.2,18.32zm-23.68 0.87c0,-4.73 -0.52,-8.76 -1.56,-12.1 -1.04,-3.34 -2.42,-6.05 -4.15,-8.12 -1.73,-2.08 -3.74,-3.61 -6.05,-4.59 -2.3,-0.97 -4.67,-1.47 -7.09,-1.47 -2.42,0 -4.72,0.44 -6.91,1.3 -2.19,0.87 -4.15,2.31 -5.88,4.32 -1.73,2.02 -3.11,4.7 -4.15,8.04 -1.03,3.34 -1.55,7.55 -1.55,12.62 0,4.49 0.52,8.38 1.55,11.67 1.04,3.28 2.45,5.96 4.24,8.03 1.79,2.08 3.8,3.63 6.05,4.67 2.25,1.04 4.58,1.56 7,1.56 2.42,0 4.72,-0.44 6.91,-1.3 2.19,-0.86 4.15,-2.33 5.88,-4.41 1.73,-2.07 3.11,-4.75 4.15,-8.04 1.04,-3.28 1.56,-7.34 1.56,-12.18zm63.09 40.97l-22.99 0 0 -82.46 17.97 0 2.77 10.55c3.8,-3.92 7.98,-6.94 12.53,-9.08 4.55,-2.13 9.6,-3.19 15.13,-3.19 9.1,0 16.07,2.47 20.91,7.43 4.84,4.95 7.26,12.16 7.26,21.6l0 55.15 -22.99 0 0 -52.73c0,-4.26 -1.04,-7.63 -3.11,-10.11 -2.07,-2.47 -5.13,-3.71 -9.16,-3.71 -3,0 -6.14,0.83 -9.42,2.5 -3.29,1.67 -6.25,3.95 -8.9,6.83l0 57.22z"/>
  <path class="fil1" d="M402.34 173.42l23.68 0 0 65.17c0,8.99 1.81,15.82 5.44,20.48 3.63,4.67 9.25,7 16.86,7 7.49,0 12.9,-2.36 16.25,-7.08 3.34,-4.73 5.01,-10.84 5.01,-18.33l0 -67.24 23.68 0 0 65.51c0,15.22 -3.77,26.57 -11.32,34.06 -7.55,7.49 -18.76,11.23 -33.62,11.23 -14.29,0 -25.53,-3.74 -33.71,-11.23 -8.18,-7.49 -12.27,-19.13 -12.27,-34.92l0 -64.65zm136.04 108.9l-22.99 0 0 -82.45 17.97 0 2.77 10.54c3.8,-3.91 7.98,-6.94 12.53,-9.07 4.55,-2.13 9.59,-3.2 15.13,-3.2 9.1,0 16.07,2.48 20.91,7.43 4.84,4.96 7.26,12.16 7.26,21.61l0 55.14 -22.99 0 0 -52.72c0,-4.26 -1.04,-7.63 -3.11,-10.11 -2.07,-2.48 -5.13,-3.72 -9.16,-3.72 -3,0 -6.14,0.84 -9.42,2.51 -3.29,1.67 -6.25,3.95 -8.9,6.83l0 57.21zm76.4 0l0 -82.45 22.99 0 0 82.45 -22.99 0zm11.58 -100.08c-3.92,0 -6.97,-1.13 -9.16,-3.37 -2.19,-2.25 -3.29,-5.04 -3.29,-8.39 0,-3.34 1.1,-6.13 3.29,-8.38 2.19,-2.25 5.24,-3.37 9.16,-3.37 3.8,0 6.83,1.12 9.07,3.37 2.25,2.25 3.37,5.04 3.37,8.38 0,3.35 -1.09,6.14 -3.28,8.39 -2.19,2.24 -5.24,3.37 -9.16,3.37zm85.39 17.63l24.37 0 -29.21 82.45 -26.62 0 -28.35 -82.45 24.55 0 12.1 41.14 5.01 24.89 0.69 0 5.01 -24.89 12.45 -41.14zm108.03 47.19l-54.79 0 0 0.69c0,6.57 2.3,11.47 6.91,14.69 4.61,3.23 10.55,4.84 17.81,4.84 4.61,0 8.67,-0.46 12.18,-1.38 3.52,-0.92 6.72,-2.02 9.6,-3.28l4.15 16.07c-3.12,1.5 -7.03,2.8 -11.76,3.89 -4.72,1.1 -10.31,1.64 -16.77,1.64 -6.22,0 -12.07,-0.83 -17.54,-2.5 -5.47,-1.67 -10.26,-4.24 -14.35,-7.69 -4.09,-3.46 -7.34,-7.84 -9.76,-13.14 -2.42,-5.3 -3.63,-11.64 -3.63,-19.02 0,-6.56 0.98,-12.53 2.93,-17.89 1.96,-5.36 4.76,-9.94 8.39,-13.74 3.63,-3.8 7.98,-6.77 13.05,-8.9 5.07,-2.13 10.72,-3.2 16.94,-3.2 11.18,0 20.08,3.4 26.7,10.2 6.63,6.8 9.94,16.31 9.94,28.52l0 10.2zm-23.5 -15.73c0,-2.19 -0.26,-4.32 -0.78,-6.4 -0.52,-2.07 -1.36,-3.89 -2.51,-5.44 -1.15,-1.56 -2.59,-2.8 -4.32,-3.72 -1.73,-0.92 -3.86,-1.38 -6.4,-1.38 -4.61,0 -8.41,1.55 -11.4,4.67 -3,3.11 -4.79,7.31 -5.36,12.62l30.77 -0.35zm39.75 50.99l0 -82.45 17.81 0 2.59 14.86c1.96,-4.37 5.07,-8.23 9.33,-11.58 4.27,-3.34 9.63,-5.01 16.08,-5.01 2.65,0 5.01,0.29 7.09,0.87 2.07,0.57 3.8,1.26 5.18,2.07l-3.8 18.15c-1.27,-0.69 -2.88,-1.3 -4.84,-1.82 -1.96,-0.51 -4.26,-0.77 -6.92,-0.77 -5.64,0 -10.34,1.87 -14.08,5.61 -3.75,3.75 -5.62,9.89 -5.62,18.41l0 41.66 -22.82 0zm117.2 -62.74c-6.8,-3.23 -13.37,-4.85 -19.71,-4.85 -3.68,0 -6.54,0.64 -8.55,1.91 -2.02,1.26 -3.03,2.99 -3.03,5.18 0,2.19 0.89,3.98 2.68,5.36 1.79,1.38 5.39,2.88 10.81,4.5l5.18 1.55c7.14,2.08 12.56,5.07 16.25,8.99 3.69,3.92 5.53,8.99 5.53,15.21 0,8.18 -3.14,14.69 -9.42,19.53 -6.28,4.84 -14.78,7.26 -25.5,7.26 -10.94,0 -20.34,-1.96 -28.17,-5.87l5.18 -16.94c3.35,1.72 6.86,3.14 10.55,4.23 3.68,1.1 7.43,1.64 11.23,1.64 4.61,0 7.98,-0.72 10.12,-2.16 2.13,-1.44 3.19,-3.31 3.19,-5.61 0,-2.43 -1.03,-4.3 -3.11,-5.62 -2.07,-1.33 -5.99,-2.8 -11.75,-4.41l-5.36 -1.56c-6.92,-2.3 -11.99,-5.36 -15.21,-9.16 -3.23,-3.8 -4.84,-8.87 -4.84,-15.21 0,-7.49 2.82,-13.6 8.47,-18.32 5.64,-4.73 13.54,-7.09 23.68,-7.09 10.02,0 18.9,1.79 26.62,5.36l-4.84 16.08zm27.31 62.74l0 -82.45 22.99 0 0 82.45 -22.99 0zm11.58 -100.08c-3.92,0 -6.97,-1.13 -9.16,-3.37 -2.19,-2.25 -3.28,-5.04 -3.28,-8.39 0,-3.34 1.09,-6.13 3.28,-8.38 2.19,-2.25 5.24,-3.37 9.16,-3.37 3.8,0 6.83,1.12 9.08,3.37 2.24,2.25 3.37,5.04 3.37,8.38 0,3.35 -1.1,6.14 -3.29,8.39 -2.19,2.24 -5.24,3.37 -9.16,3.37zm83.49 34.22l-21.95 0 0 38.03c0,3.92 0.89,6.6 2.68,8.04 1.78,1.44 4.18,2.16 7.17,2.16 2.31,0 4.67,-0.23 7.09,-0.69 2.42,-0.46 4.38,-1.1 5.88,-1.9l3.45 16.07c-1.96,0.93 -4.89,1.85 -8.81,2.77 -3.92,0.92 -8.07,1.38 -12.45,1.38 -10.02,0 -17.17,-1.99 -21.43,-5.96 -4.27,-3.98 -6.4,-9.94 -6.4,-17.89l0 -42.01 -12.79 0 0 -16.59 12.79 0 0 -25.41 22.82 0 0 25.41 21.95 0 0 16.59zm90.23 30.6l-54.79 0 0 0.69c0,6.57 2.3,11.47 6.91,14.69 4.61,3.23 10.54,4.84 17.8,4.84 4.61,0 8.68,-0.46 12.19,-1.38 3.52,-0.92 6.71,-2.02 9.59,-3.28l4.15 16.07c-3.11,1.5 -7.03,2.8 -11.75,3.89 -4.73,1.1 -10.32,1.64 -16.77,1.64 -6.22,0 -12.07,-0.83 -17.54,-2.5 -5.48,-1.67 -10.26,-4.24 -14.35,-7.69 -4.09,-3.46 -7.35,-7.84 -9.77,-13.14 -2.42,-5.3 -3.63,-11.64 -3.63,-19.02 0,-6.56 0.98,-12.53 2.94,-17.89 1.96,-5.36 4.76,-9.94 8.39,-13.74 3.63,-3.8 7.98,-6.77 13.05,-8.9 5.07,-2.13 10.71,-3.2 16.94,-3.2 11.17,0 20.08,3.4 26.7,10.2 6.63,6.8 9.94,16.31 9.94,28.52l0 10.2zm-23.51 -15.73c0,-2.19 -0.26,-4.32 -0.77,-6.4 -0.52,-2.07 -1.36,-3.89 -2.51,-5.44 -1.15,-1.56 -2.59,-2.8 -4.32,-3.72 -1.73,-0.92 -3.86,-1.38 -6.4,-1.38 -4.61,0 -8.41,1.55 -11.41,4.67 -2.99,3.11 -4.78,7.31 -5.36,12.62l30.77 -0.35zm89.02 -14.87l-21.95 0 0 38.03c0,3.92 0.89,6.6 2.68,8.04 1.79,1.44 4.18,2.16 7.17,2.16 2.31,0 4.67,-0.23 7.09,-0.69 2.42,-0.46 4.38,-1.1 5.88,-1.9l3.46 16.07c-1.96,0.93 -4.9,1.85 -8.82,2.77 -3.92,0.92 -8.07,1.38 -12.45,1.38 -10.02,0 -17.17,-1.99 -21.43,-5.96 -4.26,-3.98 -6.4,-9.94 -6.4,-17.89l0 -42.01 -12.79 0 0 -16.59 12.79 0 0 -25.41 22.82 0 0 25.41 21.95 0 0 16.59zm18.67 65.86l0 -82.45 22.99 0 0 82.45 -22.99 0zm11.58 -100.08c-3.91,0 -6.97,-1.13 -9.16,-3.37 -2.19,-2.25 -3.28,-5.04 -3.28,-8.39 0,-3.34 1.09,-6.13 3.28,-8.38 2.19,-2.25 5.25,-3.37 9.16,-3.37 3.81,0 6.83,1.12 9.08,3.37 2.25,2.25 3.37,5.04 3.37,8.38 0,3.35 -1.1,6.14 -3.29,8.39 -2.18,2.24 -5.24,3.37 -9.16,3.37z"/>
  <path class="fil1" d="M1315.57 158.73c5.25,0 10,2.13 13.43,5.56 3.44,3.44 5.57,8.19 5.57,13.43 0,5.25 -2.13,10 -5.57,13.44 -3.43,3.43 -8.18,5.56 -13.43,5.56 -5.24,0 -9.99,-2.13 -13.43,-5.56 -3.44,-3.44 -5.56,-8.19 -5.56,-13.44 0,-5.24 2.12,-9.99 5.56,-13.43 3.44,-3.43 8.19,-5.56 13.43,-5.56zm-8.49 29.16l0 -20.33 9.01 0c1.81,0 3.19,0.19 4.13,0.55 0.94,0.37 1.69,1.01 2.25,1.93 0.57,0.92 0.85,1.95 0.85,3.06 0,1.45 -0.47,2.66 -1.41,3.65 -0.93,0.99 -2.36,1.61 -4.31,1.88 0.71,0.34 1.25,0.68 1.62,1.02 0.78,0.71 1.53,1.62 2.22,2.7l3.52 5.54 -3.36 0 -2.69 -4.23c-0.78,-1.23 -1.43,-2.16 -1.93,-2.81 -0.51,-0.65 -0.97,-1.1 -1.37,-1.36 -0.4,-0.25 -0.81,-0.43 -1.23,-0.54 -0.3,-0.06 -0.8,-0.09 -1.49,-0.09l-3.11 0 0 9.03 -2.7 0zm2.7 -11.36l5.77 0c1.23,0 2.18,-0.13 2.87,-0.38 0.69,-0.25 1.22,-0.66 1.57,-1.22 0.36,-0.56 0.54,-1.17 0.54,-1.82 0,-0.96 -0.34,-1.76 -1.04,-2.38 -0.69,-0.62 -1.79,-0.92 -3.29,-0.92l-6.42 0 0 6.72zm17.64 -10.66c-3.03,-3.03 -7.22,-4.91 -11.85,-4.91 -4.63,0 -8.82,1.88 -11.85,4.91 -3.03,3.04 -4.91,7.23 -4.91,11.85 0,4.63 1.88,8.82 4.91,11.86 3.03,3.03 7.22,4.9 11.85,4.9 4.63,0 8.82,-1.87 11.85,-4.9 3.04,-3.04 4.91,-7.23 4.91,-11.86 0,-4.62 -1.87,-8.81 -4.91,-11.85z"/>
 </g>
</svg>
