<svg xmlns="http://www.w3.org/2000/svg" width="72" height="72" viewBox="0 0 72 72" fill="none">
  <g clipPath="url(#clip0_226_12815)">
    <path d="M25.0863 24.1875L24.4113 23.175C23.9613 22.5 23.2863 22.05 22.4988 21.9375C21.3738 21.7125 20.3613 22.725 20.5863 23.85L21.3738 27.675C21.7113 29.3625 22.9488 30.6 24.5238 31.05L25.6488 31.3875L25.0863 24.1875ZM46.3488 31.3875L47.4738 31.05C49.0488 30.6 50.2863 29.25 50.6238 27.675L51.4113 23.85C51.6363 22.725 50.6238 21.7125 49.4988 21.9375C48.7113 22.05 48.0363 22.5 47.5863 23.175L46.9113 24.1875L46.3488 31.3875Z" fill="#F0B496"/>
    <path d="M34.3123 66.0375C33.0748 65.025 22.4998 56.5875 19.7998 52.875C17.3248 49.3875 14.1748 45.225 18.5623 39.6C21.7123 35.55 32.2873 34.5375 37.4623 34.5375C42.8623 34.5375 49.9498 35.4375 53.2123 39.6C57.4873 45.225 54.4498 49.3875 52.0873 52.7625C49.4998 56.5875 38.9248 65.1375 37.6873 66.0375L35.9998 67.3875L34.3123 66.0375Z" fill="#1E648C"/>
    <path d="M49.5001 46.9125C47.0251 49.725 36.0001 57.375 36.0001 57.375C36.0001 57.375 24.8626 49.8375 22.5001 46.9125C20.0251 44.1 18.6751 42.525 21.2626 39.825C24.3001 36.5625 46.0126 34.425 50.8501 39.825C53.3251 42.525 51.9751 43.9875 49.5001 46.9125Z" fill="#00466E"/>
    <path d="M70.0871 72V62.55C70.0871 57.4875 67.0496 52.9875 62.4371 51.075L48.8246 45.3375C46.9121 44.55 45.6746 42.6375 45.6746 40.6125V33.75H26.3246V40.6125C26.3246 42.6375 25.0871 44.55 23.1746 45.3375L9.56211 50.9625C4.94961 52.875 1.91211 57.4875 1.91211 62.4375V72H70.0871Z" fill="#F0B496"/>
    <path d="M26.3262 39.7125C26.6637 40.1625 26.8887 40.6125 27.3387 40.95L29.9262 43.425C31.0512 44.6625 33.0762 45.3375 34.7637 45.3375H37.3512C39.0387 45.3375 41.0637 44.6625 42.1887 43.425L44.7762 40.95C45.1137 40.6125 45.4512 40.1625 45.7887 39.7125V33.75H26.3262V39.7125Z" fill="#E6A082"/>
    <path d="M37.2379 42.525C38.9254 42.525 40.9504 41.85 42.0754 40.6125L44.6629 38.1375C46.0129 36.7875 46.8004 34.9875 47.0254 33.075L47.8129 25.875C47.9254 24.4125 48.0379 22.95 48.0379 21.4875V14.175C48.0379 8.10002 43.0879 3.15002 37.0129 3.15002H34.9879C28.9129 3.15002 23.9629 8.10002 23.9629 14.175V21.4875C23.9629 22.95 24.0754 24.4125 24.1879 25.875L24.9754 33.075C25.2004 34.9875 25.9879 36.7875 27.3379 38.1375L29.9254 40.6125C31.0504 41.85 33.0754 42.525 34.7629 42.525H37.2379Z" fill="#F0C8AA"/>
    <path d="M46.9129 8.21254C46.2379 7.76254 45.3379 7.98754 44.8879 8.66254C45.6754 7.31254 45.5629 6.07504 45.0004 5.06254C43.7629 3.71254 42.1879 2.70004 40.3879 2.13754C40.2754 2.13754 40.1629 2.13754 40.1629 2.02504C39.1504 1.68754 38.1379 1.57504 37.0129 1.57504H34.9879C28.9129 1.57504 23.9629 6.52504 23.9629 12.6V19.9125L24.1879 21.2625C25.4254 17.8875 25.8754 15.8625 25.8754 14.5125C25.9879 12.9375 27.0004 11.7 28.3504 11.1375C29.4754 10.6875 30.7129 10.575 31.8379 11.025L32.6254 11.25C34.9879 11.925 37.0129 11.925 39.2629 11.25L40.0504 11.025C41.1754 10.6875 42.4129 10.6875 43.5379 11.1375C45.0004 11.7 45.9004 13.05 46.0129 14.5125C46.0129 16.2 46.2379 17.6625 47.7004 21.2625L47.9254 19.9125V12.6C47.9254 11.025 47.5879 9.56254 47.0254 8.32504C47.1379 8.32504 47.0254 8.21254 46.9129 8.21254Z" fill="#E6A082"/>
    <path d="M44.4387 8.1L45.0012 7.2C47.5887 2.925 40.8387 0 35.8887 0C31.9512 0 28.2387 1.4625 25.3137 4.05C21.3762 7.65 22.3887 14.5125 22.9512 22.05L24.0762 22.8375L24.7512 20.1375C25.2012 18.225 25.5387 16.2 25.7637 14.2875L25.8762 13.3875C25.9887 11.8125 27.0012 10.575 28.3512 10.0125C29.4762 9.5625 30.7137 9.45 31.8387 9.9H32.6262C34.9887 10.575 37.0137 10.575 39.2637 9.9L40.0512 9.675C41.1762 9.3375 42.4137 9.3375 43.5387 9.7875C45.0012 10.35 45.9012 11.7 46.0137 13.1625L46.1262 14.0625C46.2387 16.0875 46.5762 18 47.1387 19.9125L47.8137 22.6125L48.9387 21.825C49.5012 15.1875 50.6262 9.1125 46.9137 6.75C46.2387 6.3 45.3387 6.525 44.8887 7.2L44.4387 8.1Z" fill="#6B4C38"/>
    <path d="M70.0871 62.55C70.0871 57.4875 67.0496 52.9875 62.4371 51.075L50.2871 46.0125C50.0621 46.35 49.7246 46.575 49.4996 46.9125C47.0246 49.725 35.9996 57.375 35.9996 57.375C35.9996 57.375 24.8621 49.8375 22.4996 46.9125C22.1621 46.575 21.9371 46.2375 21.7121 46.0125L9.56211 50.9625C4.94961 52.875 1.91211 57.4875 1.91211 62.4375V72H70.0871V62.55Z" fill="#1E648C"/>
    <path d="M52.9879 47.1375C52.5379 47.8125 52.2004 48.4875 51.7504 49.05C49.0504 53.1 38.7004 62.325 37.5754 63.45L36.0004 65.025L34.3129 63.5625C33.1879 62.55 22.8379 53.325 20.2504 49.275L18.9004 47.25C19.3504 47.8125 19.8004 48.375 20.2504 48.825C22.8379 51.8625 33.1879 58.95 34.3129 59.7375L36.0004 60.8625L37.6879 59.7375C38.8129 58.95 49.1629 51.8625 51.8629 48.7125C52.2004 48.2625 52.6504 47.7 52.9879 47.1375Z" fill="#00466E"/>
  </g>
  <defs>
    <clipPath id="clip0_226_12815">
      <rect width="72" height="72" fill="white"/>
    </clipPath>
  </defs>
</svg>