<?xml version="1.0" encoding="UTF-8"?>
<!DOCTYPE svg PUBLIC "-//W3C//DTD SVG 1.1//EN" "http://www.w3.org/Graphics/SVG/1.1/DTD/svg11.dtd">
<!-- Creator: CorelDRAW 2020 (64-Bit) -->
<svg xmlns="http://www.w3.org/2000/svg" xml:space="preserve" width="395.174mm" height="89.9584mm" version="1.1" style="shape-rendering:geometricPrecision; text-rendering:geometricPrecision; image-rendering:optimizeQuality; fill-rule:evenodd; clip-rule:evenodd"
viewBox="0 0 27196.3 6191.04"
 xmlns:xlink="http://www.w3.org/1999/xlink"
 xmlns:xodm="http://www.corel.com/coreldraw/odm/2003">
 <defs>
  <style type="text/css">
   <![CDATA[
    .fil0 {fill:#1A4266}
    .fil1 {fill:#6E0F27;fill-rule:nonzero}
   ]]>
  </style>
 </defs>
 <g id="Слой_x0020_1">
  <metadata id="CorelCorpID_0Corel-Layer"/>
  <g id="_2855330899232">
   <path class="fil0" d="M6190.83 0l-6190.83 0 0 0c0,3404.97 2785.85,6190.83 6190.83,6190.83l0 0 0 -6190.83zm-6190.83 4714.34l0 0 0 1476.7 1476.5 0 0 -0.21c0,-812.01 -664.28,-1476.5 -1476.5,-1476.5z"/>
   <path class="fil1" d="M9015.71 656.11c143.24,0 269.92,14.1 380.26,42.3 110.54,28.2 209.03,64.57 296.08,109.12l-109.32 359.42c-96.24,-47 -189,-82.96 -278.3,-107.48 -89.3,-24.73 -176.13,-36.98 -260.52,-36.98 -112.79,0 -200.24,22.27 -262.57,66.82 -62.12,44.75 -93.38,104.62 -93.38,179.81 0,77.44 27.18,136.09 81.12,176.13 53.94,39.85 140.79,78.67 260.73,116.06l211.28 67.02c176.13,58.64 314.06,142.01 413.77,250.1 99.92,108.09 149.78,240.7 149.78,398.04 0,93.99 -17.57,182.06 -52.72,264.2 -35.35,82.14 -88.06,153.86 -158.56,214.75 -70.49,61.09 -158.56,109.32 -264.2,144.46 -105.64,35.35 -229.06,52.92 -369.84,52.92 -265.43,0 -508.37,-54.15 -729.26,-162.03l109.32 -359.42c100.94,49.45 199.63,87.66 295.87,114.63 96.24,26.97 197.18,40.46 302.82,40.46 124.44,0 218.43,-22.88 281.77,-68.66 63.55,-45.77 95.22,-109.93 95.22,-192.07 0,-28.2 -5.31,-55.78 -15.94,-82.76 -10.42,-26.97 -29.83,-52.72 -58.03,-77.44 -28.2,-24.73 -66.41,-49.24 -114.43,-73.97 -48.22,-24.73 -110.95,-48.84 -188.6,-72.33l-186.55 -63.34c-82.34,-28.2 -157.33,-61.09 -225.58,-98.69 -68.04,-37.39 -126.07,-80.91 -174.3,-130.16 -48.22,-49.45 -85.61,-107.48 -112.79,-174.5 -26.97,-66.82 -40.46,-144.87 -40.46,-234.16 0,-96.24 17.57,-184.92 52.92,-266.04 35.15,-80.91 87.45,-150.79 156.72,-209.44 69.27,-58.85 154.88,-104.62 257.05,-137.52 102.16,-32.9 219.04,-49.24 350.63,-49.24zm1165.91 725.57c100.94,-58.64 207.81,-103.8 320.39,-135.47 112.79,-31.88 232.53,-47.61 359.42,-47.61 100.94,0 193.09,11.64 276.46,35.15 83.37,23.5 155.09,60.48 214.96,110.95 59.87,50.47 105.64,115.04 137.31,193.7 31.67,78.67 47.61,173.27 47.61,283.61l0 1091.94 -362.89 0 -42.3 -172.46 -14.1 0c-53.94,65.59 -122.6,117.28 -205.97,154.88 -83.37,37.6 -180.22,56.39 -290.56,56.39 -91.75,0 -172.66,-13.49 -243.15,-40.46 -70.49,-27.18 -130.36,-63.55 -179.61,-109.32 -49.24,-45.77 -86.43,-100.33 -110.95,-163.67 -24.73,-63.55 -36.98,-131.59 -36.98,-204.33 0,-96.45 20.43,-179.2 61.51,-248.46 41.27,-69.27 98.08,-126.07 171.03,-170.82 72.74,-44.54 157.74,-77.44 255.21,-98.49 97.46,-21.25 202.7,-31.88 315.28,-31.88l211.48 0 0 -102.16c0,-77.44 -24.11,-134.45 -72.33,-170.82 -48.02,-36.37 -115.65,-54.55 -202.49,-54.55 -68.04,0 -137.92,10.63 -209.64,31.67 -71.52,21.25 -150.79,55.17 -237.64,102.16l-162.03 -309.97 0 0.01zm887.61 796.07l-151.41 3.48c-143.24,4.7 -243.15,28.81 -299.55,72.33 -56.39,43.32 -84.39,95.63 -84.39,156.72 0,79.89 23.91,134.45 72.13,163.88 48.22,29.22 102.78,43.93 163.88,43.93 60.89,0 119.12,-17.57 174.3,-52.72 55.17,-35.35 96.85,-76.42 125.05,-123.42l0 -264.2 -0.01 0zm866.57 736.21l0 -1680.22 362.69 0 52.92 303.03c39.85,-89.3 103.39,-167.96 190.24,-236 86.84,-68.25 196.16,-102.16 327.54,-102.16 53.94,0 102.16,5.93 144.46,17.57 42.3,11.64 77.44,25.75 105.64,42.3l-77.44 369.84c-25.95,-14.1 -58.85,-26.36 -98.69,-36.98 -39.85,-10.63 -86.84,-15.94 -140.79,-15.94 -115.24,0 -210.87,38.21 -287.09,114.63 -76.42,76.21 -114.63,201.27 -114.63,375.15l0 848.79 -464.85 0 0 0.01zm3039.84 -834.9c0,134.04 -20.03,255 -59.87,362.89 -39.85,108.09 -95.01,200.24 -165.51,276.46 -70.49,76.42 -153.86,134.45 -250.1,174.5 -96.24,39.85 -200.85,59.87 -313.65,59.87 -110.34,0 -204.13,-17.16 -281.77,-51.09 -77.44,-34.12 -145.48,-81.53 -204.33,-142.62l-13.89 0 -31.88 154.88 -338.17 0 0 -2514.91 465.06 0 0 972c58.64,-53.94 127.3,-96.24 205.97,-126.69 78.67,-30.65 162.64,-45.77 251.94,-45.77 230.08,0 410.3,77.44 540.66,232.53 130.36,154.88 195.55,370.86 195.55,647.94l-0.01 0.01zm-482.63 10.63c0,-173.68 -33.92,-305.88 -102.16,-396.2 -68.04,-90.52 -164.28,-135.67 -288.72,-135.67 -65.79,0 -126.89,15.94 -183.28,47.61 -56.39,31.67 -100.94,67.43 -133.84,107.48l0 771.35c30.65,35.15 69.88,64.57 118.1,88.06 48.02,23.5 99.1,35.15 153.25,35.15 56.19,0 110.95,-10.42 163.67,-31.67 52.92,-21.05 99.92,-52.72 140.99,-95.01 41.07,-42.3 73.36,-95.83 96.85,-160.4 23.5,-64.57 35.15,-141.4 35.15,-230.69l-0.01 -0.01zm2451.77 -28.2c0,138.54 -22.48,263.18 -67.02,373.52 -44.54,110.34 -106.25,203.72 -184.92,279.94 -78.67,76.42 -170.82,135.06 -276.46,176.13 -105.64,41.07 -219.66,61.71 -341.64,61.71 -122.19,0 -235.6,-18.8 -340,-56.39 -104.42,-37.6 -194.93,-92.76 -271.15,-165.51 -76.42,-72.94 -136.29,-162.64 -179.81,-269.51 -43.32,-106.87 -64.97,-228.44 -64.97,-364.52 0,-143.24 22.27,-270.74 66.82,-382.3 44.54,-111.57 106.25,-205.36 184.92,-281.77 78.67,-76.21 170.82,-134.45 276.46,-174.3 105.64,-40.05 219.66,-59.87 341.85,-59.87 121.99,0 235.39,18.8 339.8,56.39 104.62,37.39 194.93,92.15 271.15,163.67 76.42,71.72 136.29,161.42 179.81,269.51 43.32,108.09 65.18,232.53 65.18,373.31l-0.01 -0.01zm-482.63 17.57c0,-96.24 -10.63,-178.38 -31.67,-246.42 -21.25,-68.04 -49.45,-123.42 -84.59,-165.51 -35.15,-42.3 -76.42,-73.56 -123.21,-93.38 -47,-20.03 -95.22,-30.03 -144.46,-30.03 -49.45,0 -96.24,8.79 -140.99,26.36 -44.54,17.78 -84.59,47 -119.74,88.06 -35.15,41.27 -63.34,95.83 -84.59,163.88 -21.05,68.04 -31.67,153.86 -31.67,257.05 0,91.75 10.63,171.03 31.67,237.84 21.25,67.02 50.06,121.58 86.43,163.88 36.37,42.3 77.44,73.97 123.21,95.01 45.77,21.25 93.38,31.67 142.62,31.67 49.45,0 96.24,-8.79 140.99,-26.36 44.54,-17.57 84.59,-47.61 119.74,-89.7 35.15,-42.3 63.34,-97.06 84.59,-163.88 21.05,-67.02 31.67,-149.78 31.67,-248.46l0 -0.01zm1285.65 834.9l-468.53 0 0 -1680.22 366.37 0 56.39 214.96c77.44,-79.89 162.64,-141.6 255.42,-184.92 92.76,-43.52 195.55,-65.18 308.13,-65.18 185.53,0 327.75,50.47 426.24,151.41 98.69,100.94 147.94,247.85 147.94,440.33l0 1123.62 -468.33 0 0 -1074.37c0,-86.84 -21.25,-155.49 -63.55,-205.97 -42.3,-50.47 -104.42,-75.81 -186.55,-75.81 -61.09,0 -125.25,17.16 -192.07,51.09 -67.02,34.12 -127.3,80.51 -181.45,139.15l0 1165.91 0 0.01z"/>
   <path class="fil1" d="M8199 3534.12l482.63 0 0 1327.95c0,183.08 36.98,322.23 110.95,417.45 73.97,95.01 188.39,142.62 343.48,142.62 152.64,0 262.97,-48.22 331.02,-144.46 68.04,-96.24 102.16,-220.67 102.16,-373.31l0 -1370.24 482.63 0 0 1334.9c0,310.18 -77.03,541.48 -230.69,693.91 -153.86,152.84 -382.3,229.06 -685.12,229.06 -291.37,0 -520.23,-76.21 -686.96,-229.06 -166.73,-152.43 -250.1,-389.66 -250.1,-711.48l0 -1317.33 0 -0.01zm2772.16 2219.04l-468.53 0 0 -1680.22 366.37 0 56.39 214.96c77.44,-79.89 162.64,-141.6 255.42,-184.92 92.76,-43.52 195.55,-65.18 308.13,-65.18 185.53,0 327.75,50.47 426.24,151.41 98.69,100.94 147.94,247.85 147.94,440.33l0 1123.62 -468.33 0 0 -1074.17c0,-87.04 -21.25,-155.7 -63.55,-206.17 -42.3,-50.47 -104.42,-75.81 -186.55,-75.81 -61.09,0 -125.05,17.16 -192.07,51.09 -67.02,34.12 -127.5,80.51 -181.45,139.15l0 1165.91 0 0.01zm1557 0l0 -1680.22 468.53 0 0 1680.22 -468.53 0zm236 -2039.43c-79.89,0 -142.01,-22.88 -186.76,-68.66 -44.54,-45.77 -66.82,-102.78 -66.82,-170.82 0,-68.25 22.27,-125.05 66.82,-170.82 44.75,-45.97 106.87,-68.86 186.76,-68.86 77.44,0 139.15,22.88 184.92,68.86 45.77,45.77 68.66,102.57 68.66,170.82 0,68.04 -22.27,125.05 -66.82,170.82 -44.75,45.77 -106.87,68.66 -186.76,68.66zm1740.09 359.21l496.73 0 -595.42 1680.22 -542.3 0 -577.85 -1680.22 500.21 0 246.63 838.37 102.16 507.36 14.1 0 102.16 -507.36 253.58 -838.37 -0.01 0zm2201.67 961.79l-1116.67 0 0 14.1c0,133.84 47,233.55 140.79,299.34 93.99,65.79 214.96,98.69 362.89,98.69 93.99,0 176.75,-9.4 248.27,-28.2 71.72,-18.8 136.9,-41.07 195.55,-67.02l84.59 327.54c-63.55,30.65 -143.24,57.01 -239.68,79.28 -96.24,22.27 -210.06,33.51 -341.64,33.51 -126.69,0 -246.01,-16.96 -357.58,-51.09 -111.36,-34.12 -208.82,-86.23 -292.19,-156.72 -83.37,-70.49 -149.78,-159.79 -199.02,-267.67 -49.45,-108.09 -73.97,-237.23 -73.97,-387.41 0,-134.04 19.82,-255.42 59.87,-364.73 39.85,-109.12 96.85,-202.49 170.82,-279.94 73.97,-77.64 162.64,-138.13 265.84,-181.45 103.39,-43.52 218.43,-65.18 345.32,-65.18 227.83,0 409.07,69.27 544.13,207.81 135.06,138.54 202.7,332.24 202.7,581.33l0 207.81 -0.01 0zm-479.15 -320.6c0,-44.54 -5.31,-88.06 -15.94,-130.36 -10.42,-42.3 -27.58,-79.28 -51.09,-110.95 -23.3,-31.67 -52.72,-57.01 -88.06,-75.81 -35.15,-18.8 -78.67,-28.2 -130.16,-28.2 -93.99,0 -171.43,31.88 -232.53,95.22 -61.09,63.34 -97.46,149.16 -109.32,257.05l627.09 -6.94 0 -0.01zm810.17 1039.03l0 -1680.22 362.89 0 52.72 303.03c40.05,-89.3 103.39,-167.96 190.24,-236 86.84,-68.04 196.16,-102.16 327.54,-102.16 54.15,0 102.16,5.93 144.46,17.57 42.3,11.85 77.44,25.95 105.64,42.3l-77.44 369.84c-25.75,-14.1 -58.64,-26.36 -98.69,-36.98 -39.85,-10.63 -86.84,-15.73 -140.79,-15.73 -115.04,0 -210.87,38 -287.09,114.43 -76.42,76.21 -114.43,201.27 -114.43,375.15l0 848.79 -465.06 0 0.01 0zm2388.22 -1278.5c-138.54,-65.79 -272.37,-98.69 -401.51,-98.69 -75.19,0 -133.22,12.87 -174.3,38.82 -41.07,25.75 -61.71,60.89 -61.71,105.64 0,44.54 18.18,80.91 54.55,109.12 36.37,28.2 109.73,58.64 220.27,91.54l105.64 31.88c145.48,42.09 256.03,103.19 331.02,183.08 75.19,79.89 112.79,183.08 112.79,309.97 0,166.73 -63.96,299.34 -192.07,398.04 -127.91,98.69 -301.18,147.94 -519.41,147.94 -223.13,0 -414.59,-39.85 -574.17,-119.74l105.64 -345.12c68.04,35.15 139.76,63.96 214.75,86.23 75.19,22.27 151.61,33.51 229.06,33.51 93.99,0 162.64,-14.71 205.97,-44.13 43.52,-29.42 65.18,-67.43 65.18,-114.43 0,-49.24 -21.05,-87.45 -63.34,-114.43 -42.3,-27.18 -122.19,-57.01 -239.48,-89.91l-109.32 -31.67c-140.79,-47 -244.18,-109.32 -309.97,-186.76 -65.59,-77.44 -98.49,-180.83 -98.49,-309.97 0,-152.64 57.42,-277.07 172.46,-373.31 115.04,-96.24 276.05,-144.46 482.63,-144.46 204.33,0 385.16,36.37 542.5,109.12l-98.69 327.75 -0.01 0zm556.6 1278.5l0 -1680.22 468.53 0 0 1680.22 -468.53 0zm236.01 -2039.43c-79.89,0 -142.01,-22.88 -186.76,-68.66 -44.54,-45.77 -66.82,-102.78 -66.82,-170.82 0,-68.25 22.27,-125.05 66.82,-170.82 44.75,-45.97 106.87,-68.86 186.76,-68.86 77.44,0 139.15,22.88 184.92,68.86 45.77,45.77 68.66,102.57 68.66,170.82 0,68.04 -22.27,125.05 -66.82,170.82 -44.75,45.77 -106.87,68.66 -186.76,68.66zm1701.47 697.38l-447.49 0 0 775.03c0,79.89 18.18,134.45 54.55,163.88 36.58,29.22 85.21,43.93 146.3,43.93 47,0 95.01,-4.7 144.46,-14.1 49.24,-9.4 89.09,-22.27 119.74,-38.82l70.49 327.75c-40.05,18.8 -99.92,37.6 -179.81,56.39 -79.69,18.6 -164.28,28 -253.58,28 -204.33,0 -349.82,-40.46 -436.66,-121.37 -87.04,-81.12 -130.36,-202.7 -130.36,-364.73l0 -855.94 -260.73 0 0 -338.17 260.73 0 0 -517.78 464.85 0 0 517.78 447.49 0 0 338.17 0.01 0zm1838.57 623.62l-1116.46 0 0 14.1c0,133.84 46.79,233.55 140.79,299.34 93.99,65.79 214.96,98.69 362.89,98.69 93.99,0 176.75,-9.4 248.27,-28.2 71.72,-18.8 136.9,-41.07 195.55,-67.02l84.59 327.54c-63.55,30.65 -143.24,57.01 -239.68,79.28 -96.24,22.27 -210.06,33.51 -341.64,33.51 -126.69,0 -246.01,-16.96 -357.58,-51.09 -111.36,-34.12 -208.82,-86.23 -292.19,-156.72 -83.37,-70.49 -149.78,-159.79 -199.02,-267.67 -49.45,-108.09 -73.97,-237.23 -73.97,-387.41 0,-134.04 19.82,-255.42 59.87,-364.73 39.85,-109.12 96.85,-202.49 170.82,-279.94 73.97,-77.64 162.64,-138.13 265.84,-181.45 103.39,-43.52 218.43,-65.18 345.32,-65.18 227.83,0 409.07,69.27 544.13,207.81 135.06,138.54 202.49,332.24 202.49,581.33l0 207.81 -0.01 0zm-478.95 -320.6c0,-44.54 -5.31,-88.06 -15.94,-130.36 -10.42,-42.3 -27.58,-79.28 -51.09,-110.95 -23.5,-31.67 -52.72,-57.01 -88.06,-75.81 -35.15,-18.8 -78.67,-28.2 -130.16,-28.2 -93.99,0 -171.43,31.88 -232.53,95.22 -61.09,63.34 -97.46,149.16 -109.32,257.05l627.09 -6.94 0 -0.01zm1814.06 -303.03l-447.28 0 0 775.03c0,79.89 18.18,134.45 54.55,163.88 36.37,29.22 85.21,43.93 146.09,43.93 47,0 95.22,-4.7 144.46,-14.1 49.45,-9.4 89.3,-22.27 119.74,-38.82l70.49 327.75c-39.85,18.8 -99.71,37.6 -179.61,56.39 -79.89,18.6 -164.49,28 -253.58,28 -204.33,0 -350.02,-40.46 -436.86,-121.37 -86.84,-81.12 -130.36,-202.7 -130.36,-364.73l0 -855.94 -260.52 0 0 -338.17 260.52 0 0 -517.78 465.06 0 0 517.78 447.28 0 0 338.17 0.01 0zm380.46 1342.05l0 -1680.22 468.53 0 0 1680.22 -468.53 0zm236 -2039.43c-79.89,0 -142.01,-22.88 -186.76,-68.66 -44.54,-45.77 -66.82,-102.78 -66.82,-170.82 0,-68.25 22.27,-125.05 66.82,-170.82 44.75,-45.97 106.87,-68.86 186.76,-68.86 77.44,0 139.15,22.88 184.92,68.86 45.77,45.77 68.66,102.57 68.66,170.82 0,68.04 -22.27,125.05 -66.82,170.82 -44.75,45.77 -106.87,68.66 -186.76,68.66z"/>
   <path class="fil1" d="M26809.09 3234.57c107.07,0 203.72,43.32 273.8,113.4 70.09,70.09 113.4,166.94 113.4,273.8 0,106.87 -43.32,203.51 -113.4,273.6 -70.09,70.09 -166.73,113.4 -273.8,113.4 -106.87,0 -203.51,-43.32 -273.6,-113.4 -70.09,-70.09 -113.4,-166.73 -113.4,-273.6 0,-106.87 43.32,-203.72 113.4,-273.8 70.09,-70.09 166.73,-113.4 273.6,-113.4zm-172.86 594.19l0 -414.18 183.49 0c36.98,0 64.97,3.88 84.18,11.24 19.21,7.36 34.53,20.64 45.97,39.43 11.44,18.8 17.16,39.43 17.16,62.32 0,29.42 -9.6,54.15 -28.61,74.38 -19,20.03 -48.22,32.9 -88.06,38.21 14.71,6.94 25.54,13.89 33.1,20.64 15.94,14.71 31.06,33.1 45.36,55.17l71.52 112.79 -68.45 0 -54.76 -86.23c-15.73,-24.93 -29.01,-43.93 -39.43,-57.01 -10.22,-13.28 -19.61,-22.48 -27.79,-27.79 -7.97,-5.11 -16.55,-8.79 -24.93,-11.03 -6.13,-1.23 -16.35,-1.84 -30.45,-1.84l-63.55 0 0 183.9 -54.76 0zm54.76 -231.3l117.7 0c25.13,0 44.54,-2.66 58.64,-7.76 14.1,-5.11 24.73,-13.49 31.88,-24.93 7.36,-11.44 11.03,-23.7 11.03,-37.19 0,-19.41 -6.94,-35.76 -21.25,-48.43 -14.1,-12.46 -36.37,-18.8 -67.02,-18.8l-130.97 0 0 137.11 -0.01 0zm359.62 -217.21c-61.71,-61.91 -147.12,-100.12 -241.52,-100.12 -94.2,0 -179.61,38.21 -241.52,100.12 -61.71,61.71 -99.92,147.12 -99.92,241.52 0,94.2 38.21,179.61 99.92,241.52 61.91,61.71 147.33,99.92 241.52,99.92 94.4,0 179.81,-38.21 241.52,-99.92 61.91,-61.91 100.12,-147.33 100.12,-241.52 0,-94.4 -38.21,-179.81 -100.12,-241.52z"/>
  </g>
 </g>
</svg>
