<svg width="28" height="28" viewBox="0 0 28 28" fill="none" xmlns="http://www.w3.org/2000/svg">
<g clip-path="url(#clip0_84_452)">
<path d="M19.3103 20.2759C19.3103 21.609 20.391 22.6897 21.7241 22.6897C23.0572 22.6897 24.1379 21.609 24.1379 20.2759C24.1379 18.9428 23.0572 17.8621 21.7241 17.8621C21.2745 17.8625 20.8343 17.9904 20.4544 18.2309C20.1643 18.674 19.8294 19.0862 19.4551 19.461C19.3601 19.7222 19.3111 19.9979 19.3103 20.2759Z" fill="#1C89C1"/>
<path d="M6.27585 7.2414C7.60895 7.2414 8.68965 6.16071 8.68965 4.82761C8.68965 3.49451 7.60895 2.41382 6.27585 2.41382C4.94275 2.41382 3.86206 3.49451 3.86206 4.82761C3.86206 6.16071 4.94275 7.2414 6.27585 7.2414Z" fill="#1C89C1"/>
<path d="M20.7586 14C20.7586 10.2673 17.7326 7.24139 14 7.24139C10.2673 7.24139 7.24133 10.2673 7.24133 14C7.24133 17.7327 10.2673 20.7586 14 20.7586C17.731 20.7546 20.7546 17.731 20.7586 14ZM16.7551 12.4103L12.893 16.2724C12.7045 16.4608 12.3989 16.4608 12.2104 16.2724L11.2448 15.3068C11.0619 15.1174 11.0645 14.8163 11.2507 14.6301C11.4369 14.4439 11.738 14.4413 11.9275 14.6242L12.5517 15.2484L16.0724 11.7277C16.2619 11.5447 16.563 11.5473 16.7492 11.7336C16.9354 11.9198 16.938 12.2209 16.7551 12.4103Z" fill="#1C89C1"/>
<path d="M6.27592 12.069C6.36571 12.069 6.44923 12.0661 6.53178 12.0627C6.87244 10.7454 7.55528 9.54165 8.51109 8.57332C8.13102 8.33362 7.69078 8.20657 7.24143 8.20691H5.3104C3.97796 8.20851 2.8982 9.28826 2.89661 10.6207V10.9717C3.19941 11.1911 3.52276 11.3808 3.86212 11.5379V10.6207C3.86212 10.3541 4.07826 10.1379 4.34488 10.1379C4.6115 10.1379 4.82764 10.3541 4.82764 10.6207V11.8783C5.30034 12.0031 5.78702 12.0672 6.27592 12.069Z" fill="#1C89C1"/>
<path d="M4.1517 7.4509C3.0393 6.55001 2.61518 5.046 3.09304 3.69667C3.5709 2.34735 4.84705 1.44547 6.27849 1.44547C7.70994 1.44547 8.98609 2.34735 9.46394 3.69667C9.9418 5.046 9.51768 6.55001 8.40529 7.4509C8.71173 7.56308 8.99986 7.72007 9.26025 7.91676C10.0904 7.26818 11.0449 6.79708 12.0646 6.53269C12.068 6.45062 12.0709 6.36711 12.0709 6.27683C12.0762 3.69147 10.3677 1.41555 7.88363 0.698882C5.39958 -0.0177829 2.74133 0.998309 1.36865 3.18917C-0.00402251 5.38003 0.241189 8.21528 1.96963 10.1379C2.14933 8.90994 2.98671 7.87878 4.1517 7.4509Z" fill="#1C89C1"/>
<path d="M19.6 22.8992C18.8366 22.2804 18.3809 21.3595 18.3521 20.3773C17.6168 20.8781 16.8001 21.2473 15.9383 21.4683C15.9349 21.5504 15.932 21.6339 15.932 21.7242C15.9325 23.1512 16.4623 24.5273 17.4189 25.5862C17.5984 24.3585 18.4354 23.3274 19.6 22.8992Z" fill="#1C89C1"/>
<path d="M22.6897 23.6552H20.7586C19.4262 23.6568 18.3464 24.7365 18.3448 26.069V26.4199C18.6477 26.6394 18.971 26.8291 19.3104 26.9862V26.069C19.3104 25.8024 19.5265 25.5862 19.7931 25.5862C20.0597 25.5862 20.2759 25.8024 20.2759 26.069V27.3241C21.2247 27.5784 22.2237 27.5784 23.1724 27.3241V26.069C23.1724 25.8024 23.3886 25.5862 23.6552 25.5862C23.9218 25.5862 24.138 25.8024 24.138 26.069V26.9862C24.4772 26.8298 24.8006 26.641 25.1035 26.4224V26.069C25.1019 24.7365 24.0221 23.6568 22.6897 23.6552Z" fill="#1C89C1"/>
<path d="M21.7241 15.931C21.6343 15.931 21.5508 15.9339 21.4682 15.9373C21.3807 16.2835 21.2693 16.6232 21.1346 16.954C21.329 16.9174 21.5263 16.8981 21.7241 16.8966C23.1536 16.8991 24.4268 17.8009 24.9037 19.1485C25.3806 20.4961 24.9579 21.998 23.8482 22.8992C25.0132 23.3271 25.8506 24.3582 26.0303 25.5862C27.561 23.8877 27.9473 21.4469 27.016 19.3587C26.0846 17.2706 24.0105 15.9271 21.7241 15.931Z" fill="#1C89C1"/>
<path d="M16.113 1.46616L16.755 0.824088C16.938 0.634663 16.9354 0.333564 16.7492 0.147348C16.5629 -0.0388686 16.2618 -0.041485 16.0724 0.141467L14.6241 1.58974C14.4357 1.77826 14.4357 2.08385 14.6241 2.27236L16.0724 3.72064C16.2618 3.90359 16.5629 3.90097 16.7492 3.71476C16.9354 3.52854 16.938 3.22744 16.755 3.03802L16.1545 2.43747C22.2638 2.81729 27.0266 7.87889 27.0344 14C27.0344 14.2666 27.2505 14.4828 27.5172 14.4828C27.7838 14.4828 27.9999 14.2666 27.9999 14C27.992 7.32941 22.7738 1.8272 16.113 1.46616Z" fill="#1C89C1"/>
<path d="M11.9275 24.2794C11.7381 24.0964 11.437 24.099 11.2508 24.2853C11.0646 24.4715 11.0619 24.7726 11.2449 24.962L11.8454 25.5626C5.73611 25.1827 0.973337 20.1211 0.965517 14C0.965517 13.7334 0.749379 13.5172 0.482759 13.5172C0.216138 13.5172 0 13.7334 0 14C0.00790302 20.6706 5.22613 26.1728 11.887 26.5339L11.2449 27.1759C11.1194 27.2971 11.0691 27.4766 11.1133 27.6454C11.1574 27.8142 11.2892 27.946 11.458 27.9902C11.6268 28.0344 11.8063 27.984 11.9275 27.8586L13.3758 26.4103C13.5643 26.2218 13.5643 25.9162 13.3758 25.7277L11.9275 24.2794Z" fill="#1C89C1"/>
</g>
<defs>
<clipPath id="clip0_84_452">
<rect width="28" height="28" fill="white"/>
</clipPath>
</defs>
</svg>
