<svg width="28" height="28" viewBox="0 0 28 28" fill="none" xmlns="http://www.w3.org/2000/svg">
<g clip-path="url(#clip0_84_410)">
<path d="M12.1888 23.7913H4.8125C4.58044 23.7913 4.35788 23.6991 4.19378 23.535C4.02969 23.3709 3.9375 23.1483 3.9375 22.9163C3.9375 22.6842 4.02969 22.4616 4.19378 22.2975C4.35788 22.1334 4.58044 22.0413 4.8125 22.0413H11.585C11.4437 21.4123 11.3733 20.7696 11.375 20.125C11.3736 19.3926 11.4678 18.6631 11.655 17.955H4.8125C4.58044 17.955 4.35788 17.8628 4.19378 17.6987C4.02969 17.5346 3.9375 17.3121 3.9375 17.08C3.9375 16.8479 4.02969 16.6254 4.19378 16.4613C4.35788 16.2972 4.58044 16.205 4.8125 16.205H12.3112C13.2285 14.3814 14.7545 12.936 16.625 12.1188H4.8125C4.58044 12.1188 4.35788 12.0266 4.19378 11.8625C4.02969 11.6984 3.9375 11.4758 3.9375 11.2438C3.9375 11.0117 4.02969 10.7891 4.19378 10.625C4.35788 10.4609 4.58044 10.3688 4.8125 10.3688H17.0625C17.2946 10.3688 17.5171 10.4609 17.6812 10.625C17.8453 10.7891 17.9375 11.0117 17.9375 11.2438C17.9375 11.4008 17.8951 11.5549 17.815 11.69C18.5667 11.4784 19.3441 11.3723 20.125 11.375C20.4225 11.375 20.7113 11.375 21 11.4187V3.5C21 2.80381 20.7234 2.13613 20.2312 1.64384C19.7389 1.15156 19.0712 0.875 18.375 0.875H3.5C2.80381 0.875 2.13613 1.15156 1.64384 1.64384C1.15156 2.13613 0.875 2.80381 0.875 3.5V24.5C0.875 25.1962 1.15156 25.8639 1.64384 26.3562C2.13613 26.8484 2.80381 27.125 3.5 27.125H14.875C13.7173 26.2533 12.7943 25.1078 12.1888 23.7913ZM4.8125 4.54125H17.0625C17.2946 4.54125 17.5171 4.63344 17.6812 4.79753C17.8453 4.96163 17.9375 5.18419 17.9375 5.41625C17.9375 5.64831 17.8453 5.87087 17.6812 6.03497C17.5171 6.19906 17.2946 6.29125 17.0625 6.29125H4.8125C4.58044 6.29125 4.35788 6.19906 4.19378 6.03497C4.02969 5.87087 3.9375 5.64831 3.9375 5.41625C3.9375 5.18419 4.02969 4.96163 4.19378 4.79753C4.35788 4.63344 4.58044 4.54125 4.8125 4.54125Z" fill="#1C89C1"/>
<path d="M20.125 13.125C18.7405 13.125 17.3872 13.5355 16.236 14.3047C15.0849 15.0739 14.1877 16.1671 13.6578 17.4462C13.128 18.7253 12.9894 20.1328 13.2595 21.4906C13.5296 22.8485 14.1963 24.0958 15.1753 25.0747C16.1542 26.0537 17.4015 26.7204 18.7594 26.9905C20.1172 27.2606 21.5247 27.122 22.8038 26.5922C24.0829 26.0623 25.1761 25.1651 25.9453 24.014C26.7145 22.8628 27.125 21.5095 27.125 20.125C27.125 18.2685 26.3875 16.488 25.0748 15.1753C23.762 13.8625 21.9815 13.125 20.125 13.125ZM22.89 19.4688L19.8625 22.0938C19.7053 22.2325 19.5034 22.3101 19.2938 22.3125C19.0811 22.3122 18.8758 22.2344 18.7163 22.0938L17.36 20.9212C17.2732 20.8454 17.2023 20.7532 17.1512 20.65C17.1 20.5467 17.0697 20.4344 17.062 20.3194C17.0543 20.2044 17.0693 20.0891 17.1062 19.9799C17.143 19.8707 17.201 19.7699 17.2769 19.6831C17.3527 19.5964 17.4449 19.5254 17.5482 19.4743C17.6514 19.4231 17.7638 19.3929 17.8787 19.3851C17.9937 19.3774 18.1091 19.3924 18.2182 19.4293C18.3274 19.4662 18.4282 19.5242 18.515 19.6L19.2938 20.2738L21.735 18.1562C21.8202 18.0744 21.9211 18.0107 22.0315 17.9689C22.142 17.9271 22.2598 17.9081 22.3778 17.9131C22.4958 17.918 22.6116 17.9468 22.7182 17.9977C22.8248 18.0486 22.92 18.1206 22.998 18.2093C23.076 18.2979 23.1353 18.4015 23.1723 18.5137C23.2092 18.6259 23.223 18.7444 23.2129 18.8621C23.2028 18.9797 23.169 19.0942 23.1135 19.1984C23.058 19.3027 22.982 19.3947 22.89 19.4688Z" fill="#1C89C1"/>
</g>
<defs>
<clipPath id="clip0_84_410">
<rect width="28" height="28" fill="white"/>
</clipPath>
</defs>
</svg>
