<?xml version="1.0" encoding="UTF-8"?>
<!DOCTYPE svg PUBLIC "-//W3C//DTD SVG 1.1//EN" "http://www.w3.org/Graphics/SVG/1.1/DTD/svg11.dtd">
<!-- Creator: CorelDRAW 2020 (64-Bit) -->
<svg xmlns="http://www.w3.org/2000/svg" xml:space="preserve" width="16.0555mm" height="10.5565mm" version="1.1" style="shape-rendering:geometricPrecision; text-rendering:geometricPrecision; image-rendering:optimizeQuality; fill-rule:evenodd; clip-rule:evenodd"
viewBox="0 0 23.59 15.51"
 xmlns:xlink="http://www.w3.org/1999/xlink"
 xmlns:xodm="http://www.corel.com/coreldraw/odm/2003">
 <defs>
  <style type="text/css">
   <![CDATA[
    .fil0 {fill:#FEFEFE;fill-rule:nonzero}
   ]]>
  </style>
 </defs>
 <g id="Слой_x0020_1">
  <metadata id="CorelCorpID_0Corel-Layer"/>
  <g id="_2740834392096">
   <polygon class="fil0" points="16.14,15.5 19.56,15.5 19.56,0 16.14,0 "/>
   <polygon class="fil0" points="20.17,15.5 23.59,15.5 23.59,0 20.17,0 "/>
   <polygon class="fil0" points="4.03,3.42 7.45,3.42 7.45,0 4.03,0 "/>
   <polygon class="fil0" points="-0,15.5 3.42,15.5 3.42,0 -0,0 "/>
   <polygon class="fil0" points="4.03,15.51 7.45,15.51 7.45,5.62 4.03,5.62 "/>
   <polygon class="fil0" points="8.08,7.46 11.5,7.46 11.5,0 8.08,0 "/>
   <polygon class="fil0" points="8.08,15.51 11.5,15.51 11.5,12.09 8.08,12.09 "/>
   <polygon class="fil0" points="12.11,3.42 15.53,3.42 15.53,0 12.11,0 "/>
   <polygon class="fil0" points="12.11,15.51 15.53,15.51 15.53,8.04 12.11,8.04 "/>
  </g>
 </g>
</svg>
