<?xml version="1.0" encoding="UTF-8"?>
<!DOCTYPE svg PUBLIC "-//W3C//DTD SVG 1.1//EN" "http://www.w3.org/Graphics/SVG/1.1/DTD/svg11.dtd">
<!-- Creator: CorelDRAW 2020 (64-Bit) -->
<svg xmlns="http://www.w3.org/2000/svg" xml:space="preserve" width="43.6575mm" height="10.5565mm" version="1.1" style="shape-rendering:geometricPrecision; text-rendering:geometricPrecision; image-rendering:optimizeQuality; fill-rule:evenodd; clip-rule:evenodd"
viewBox="0 0 173.66 41.99"
 xmlns:xlink="http://www.w3.org/1999/xlink"
 xmlns:xodm="http://www.corel.com/coreldraw/odm/2003">
 <defs>
  <style type="text/css">
   <![CDATA[
    .fil0 {fill:#FEFEFE;fill-rule:nonzero}
   ]]>
  </style>
 </defs>
 <g id="Слой_x0020_1">
  <metadata id="CorelCorpID_0Corel-Layer"/>
  <path class="fil0" d="M84.81 11.8c-1.05,0 -1.97,-0.24 -2.76,-0.72 -0.79,-0.48 -1.41,-1.15 -1.86,-2.03 -0.45,-0.87 -0.67,-1.91 -0.67,-3.12 0,-1.23 0.23,-2.28 0.68,-3.16 0.46,-0.88 1.08,-1.55 1.86,-2.02 0.79,-0.47 1.68,-0.71 2.67,-0.71 0.63,0 1.22,0.09 1.76,0.28 0.54,0.18 1.03,0.45 1.45,0.78 0.43,0.34 0.78,0.74 1.05,1.2 0.28,0.47 0.46,0.98 0.55,1.54l-2.06 0c-0.09,-0.31 -0.22,-0.59 -0.39,-0.83 -0.16,-0.24 -0.36,-0.45 -0.59,-0.62 -0.23,-0.18 -0.49,-0.31 -0.78,-0.4 -0.29,-0.09 -0.61,-0.13 -0.96,-0.13 -0.62,0 -1.17,0.15 -1.66,0.46 -0.49,0.31 -0.87,0.76 -1.14,1.37 -0.27,0.6 -0.41,1.34 -0.41,2.22 0,0.86 0.14,1.6 0.41,2.2 0.28,0.61 0.66,1.06 1.15,1.38 0.49,0.31 1.06,0.47 1.7,0.47 0.58,0 1.09,-0.11 1.52,-0.34 0.43,-0.23 0.76,-0.55 1,-0.97 0.23,-0.42 0.35,-0.91 0.35,-1.48l0.47 0.08 -3.12 0 0 -1.6 4.62 0 0 1.36c0,0.98 -0.21,1.83 -0.63,2.54 -0.42,0.71 -0.99,1.26 -1.72,1.64 -0.73,0.38 -1.56,0.58 -2.5,0.58z"/>
  <polygon id="1" class="fil0" points="91.66,11.64 91.66,0.21 93.68,0.21 93.68,9.94 98.74,9.94 98.74,11.64 "/>
  <path id="2" class="fil0" d="M104.98 11.8c-1,0 -1.89,-0.23 -2.68,-0.7 -0.79,-0.47 -1.41,-1.14 -1.87,-2.01 -0.46,-0.88 -0.69,-1.93 -0.69,-3.15 0,-1.23 0.23,-2.29 0.69,-3.16 0.46,-0.88 1.08,-1.55 1.87,-2.01 0.79,-0.47 1.68,-0.7 2.68,-0.7 1,0 1.9,0.23 2.68,0.7 0.79,0.47 1.41,1.14 1.87,2.01 0.46,0.88 0.68,1.93 0.68,3.16 0,1.23 -0.23,2.28 -0.68,3.15 -0.46,0.87 -1.08,1.55 -1.87,2.01 -0.79,0.47 -1.68,0.7 -2.68,0.7zm0 -1.82c0.62,0 1.18,-0.15 1.66,-0.46 0.48,-0.31 0.86,-0.76 1.14,-1.37 0.27,-0.6 0.41,-1.34 0.41,-2.21 0,-0.88 -0.14,-1.62 -0.41,-2.22 -0.27,-0.61 -0.65,-1.06 -1.14,-1.37 -0.48,-0.31 -1.04,-0.46 -1.66,-0.46 -0.63,0 -1.18,0.15 -1.66,0.46 -0.48,0.31 -0.86,0.77 -1.13,1.37 -0.27,0.61 -0.41,1.35 -0.41,2.22 0,0.87 0.14,1.61 0.41,2.21 0.27,0.61 0.65,1.06 1.13,1.37 0.48,0.31 1.04,0.46 1.66,0.46z"/>
  <path id="3" class="fil0" d="M112.18 11.64l0 -11.43 4.37 0c0.82,0 1.51,0.13 2.05,0.39 0.54,0.26 0.95,0.62 1.22,1.06 0.27,0.45 0.41,0.95 0.41,1.52 0,0.46 -0.09,0.86 -0.26,1.19 -0.18,0.33 -0.42,0.6 -0.72,0.8 -0.3,0.2 -0.64,0.35 -1.01,0.45l0 0.11c0.4,0.02 0.79,0.14 1.16,0.37 0.37,0.23 0.68,0.54 0.91,0.96 0.24,0.41 0.36,0.9 0.36,1.48 0,0.59 -0.14,1.12 -0.43,1.6 -0.28,0.47 -0.71,0.84 -1.29,1.11 -0.58,0.27 -1.3,0.41 -2.18,0.41l-4.6 0zm2.03 -1.69l2.26 0c0.76,0 1.31,-0.15 1.65,-0.44 0.34,-0.29 0.5,-0.67 0.5,-1.12 0,-0.34 -0.08,-0.65 -0.25,-0.93 -0.17,-0.28 -0.41,-0.5 -0.72,-0.66 -0.31,-0.16 -0.68,-0.24 -1.11,-0.24l-2.33 0 0 3.39zm0 -4.86l2.09 0c0.36,0 0.69,-0.07 0.98,-0.2 0.29,-0.13 0.52,-0.33 0.69,-0.57 0.17,-0.25 0.25,-0.54 0.25,-0.88 0,-0.45 -0.16,-0.81 -0.47,-1.1 -0.31,-0.29 -0.78,-0.43 -1.4,-0.43l-2.13 0 0 3.19z"/>
  <path id="4" class="fil0" d="M121.76 11.64l4 -11.43 2.56 0 4.08 11.43 -2.22 0 -2.05 -5.98c-0.19,-0.61 -0.4,-1.29 -0.61,-2.06 -0.21,-0.77 -0.45,-1.65 -0.71,-2.64l0.42 0c-0.25,1 -0.49,1.88 -0.69,2.66 -0.21,0.78 -0.4,1.45 -0.59,2.04l-1.98 5.98 -2.21 0zm2.32 -2.85l0 -1.63 6.01 0 0 1.63 -6.01 0z"/>
  <polygon id="5" class="fil0" points="133.95,11.64 133.95,0.21 135.97,0.21 135.97,9.94 141.03,9.94 141.03,11.64 "/>
  <path id="6" class="fil0" d="M83.88 26.88c-0.88,0 -1.65,-0.14 -2.3,-0.41 -0.65,-0.28 -1.16,-0.68 -1.53,-1.2 -0.36,-0.53 -0.56,-1.16 -0.59,-1.91l2 0c0.04,0.4 0.16,0.73 0.38,1 0.22,0.26 0.5,0.46 0.86,0.6 0.36,0.13 0.75,0.2 1.17,0.2 0.46,0 0.86,-0.07 1.2,-0.21 0.35,-0.14 0.62,-0.34 0.82,-0.59 0.2,-0.25 0.3,-0.54 0.3,-0.88 0,-0.3 -0.09,-0.55 -0.26,-0.75 -0.17,-0.19 -0.42,-0.36 -0.73,-0.49 -0.31,-0.13 -0.67,-0.25 -1.09,-0.36l-1.3 -0.34c-0.95,-0.25 -1.69,-0.62 -2.23,-1.12 -0.54,-0.5 -0.8,-1.15 -0.8,-1.95 0,-0.67 0.18,-1.27 0.54,-1.77 0.36,-0.5 0.86,-0.9 1.49,-1.17 0.63,-0.28 1.34,-0.42 2.14,-0.42 0.81,0 1.52,0.14 2.13,0.42 0.61,0.28 1.09,0.67 1.44,1.16 0.35,0.5 0.53,1.06 0.54,1.69l-1.96 0c-0.06,-0.49 -0.28,-0.88 -0.67,-1.15 -0.39,-0.27 -0.89,-0.41 -1.51,-0.41 -0.44,0 -0.81,0.07 -1.12,0.2 -0.31,0.13 -0.55,0.31 -0.72,0.54 -0.17,0.23 -0.25,0.49 -0.25,0.78 0,0.33 0.1,0.59 0.3,0.8 0.2,0.2 0.45,0.37 0.75,0.49 0.3,0.12 0.6,0.22 0.91,0.3l1.07 0.27c0.42,0.1 0.83,0.24 1.23,0.41 0.4,0.17 0.76,0.38 1.08,0.64 0.32,0.26 0.57,0.57 0.76,0.94 0.19,0.37 0.28,0.8 0.28,1.3 0,0.67 -0.17,1.26 -0.51,1.77 -0.34,0.51 -0.83,0.9 -1.48,1.19 -0.64,0.28 -1.42,0.42 -2.33,0.42z"/>
  <path id="7" class="fil0" d="M94.98 26.86c-1,0 -1.89,-0.23 -2.68,-0.7 -0.79,-0.47 -1.41,-1.14 -1.87,-2.01 -0.46,-0.88 -0.69,-1.93 -0.69,-3.15 0,-1.23 0.23,-2.29 0.69,-3.16 0.46,-0.88 1.08,-1.55 1.87,-2.01 0.79,-0.47 1.68,-0.7 2.68,-0.7 1,0 1.9,0.23 2.68,0.7 0.79,0.47 1.41,1.14 1.87,2.01 0.46,0.88 0.68,1.93 0.68,3.16 0,1.23 -0.23,2.28 -0.68,3.15 -0.46,0.87 -1.08,1.55 -1.87,2.01 -0.79,0.47 -1.68,0.7 -2.68,0.7zm0 -1.82c0.62,0 1.18,-0.15 1.66,-0.46 0.48,-0.31 0.86,-0.76 1.14,-1.37 0.27,-0.6 0.41,-1.34 0.41,-2.21 0,-0.88 -0.14,-1.62 -0.41,-2.22 -0.27,-0.61 -0.65,-1.06 -1.14,-1.37 -0.48,-0.31 -1.04,-0.46 -1.66,-0.46 -0.63,0 -1.18,0.15 -1.66,0.46 -0.48,0.31 -0.86,0.77 -1.13,1.37 -0.27,0.61 -0.41,1.35 -0.41,2.22 0,0.87 0.14,1.61 0.41,2.21 0.27,0.61 0.65,1.06 1.13,1.37 0.48,0.31 1.04,0.46 1.66,0.46z"/>
  <polygon id="8" class="fil0" points="102.18,26.7 102.18,15.27 109.48,15.27 109.48,16.97 104.19,16.97 104.2,20.43 108.97,20.43 108.97,22.11 104.19,22.11 104.2,26.7 "/>
  <polygon id="9" class="fil0" points="110.91,16.97 110.91,15.27 119.99,15.27 119.99,16.97 116.46,16.97 116.46,26.7 114.45,26.7 114.44,16.97 "/>
  <polygon id="10" class="fil0" points="121.8,26.7 121.79,15.27 123.81,15.27 123.82,25 128.87,25 128.87,26.7 "/>
  <polygon id="11" class="fil0" points="132.7,15.27 132.7,26.7 130.68,26.7 130.68,15.27 "/>
  <path id="12" class="fil0" d="M135.02 26.7l0 -11.43 2.29 0 3.99 6.34c0.16,0.26 0.34,0.56 0.52,0.88 0.18,0.33 0.37,0.69 0.57,1.1 0.2,0.41 0.4,0.86 0.59,1.35l-0.23 0c-0.04,-0.43 -0.08,-0.87 -0.1,-1.32 -0.02,-0.45 -0.04,-0.88 -0.06,-1.28 -0.01,-0.4 -0.02,-0.75 -0.02,-1.03l0 -6.04 2.05 0 0 11.43 -2.29 0 -3.59 -5.7c-0.23,-0.36 -0.44,-0.72 -0.64,-1.07 -0.2,-0.35 -0.42,-0.75 -0.65,-1.2 -0.23,-0.45 -0.51,-0.98 -0.84,-1.61l0.29 0c0.03,0.56 0.06,1.08 0.08,1.58 0.03,0.5 0.05,0.94 0.06,1.34 0.02,0.39 0.02,0.71 0.02,0.95l0 5.72 -2.06 0z"/>
  <polygon id="13" class="fil0" points="146.95,26.7 146.95,15.27 154.35,15.27 154.35,16.97 148.97,16.97 148.97,20.09 153.95,20.09 153.96,21.77 148.97,21.77 148.97,25 154.38,25 154.39,26.7 "/>
  <path id="14" class="fil0" d="M84.51 41.93c-0.93,0 -1.74,-0.17 -2.43,-0.52 -0.69,-0.35 -1.23,-0.84 -1.62,-1.46 -0.38,-0.62 -0.58,-1.34 -0.58,-2.15l0 -7.47 2.03 0 0 7.3c0,0.48 0.1,0.92 0.32,1.29 0.21,0.37 0.52,0.67 0.91,0.88 0.39,0.21 0.85,0.32 1.38,0.32 0.54,0 1,-0.11 1.39,-0.32 0.39,-0.21 0.69,-0.51 0.9,-0.88 0.21,-0.37 0.32,-0.8 0.32,-1.29l0 -7.3 2.03 0 0 7.47c0,0.81 -0.19,1.53 -0.58,2.15 -0.39,0.62 -0.92,1.11 -1.62,1.46 -0.69,0.35 -1.51,0.52 -2.44,0.52z"/>
  <path id="15" class="fil0" d="M91.46 41.76l0 -11.43 2.29 0 3.99 6.34c0.16,0.26 0.34,0.56 0.52,0.88 0.18,0.33 0.37,0.69 0.57,1.1 0.2,0.41 0.4,0.86 0.59,1.35l-0.23 0c-0.04,-0.43 -0.08,-0.87 -0.1,-1.32 -0.02,-0.45 -0.04,-0.88 -0.06,-1.28 -0.01,-0.4 -0.02,-0.75 -0.02,-1.03l0 -6.04 2.05 0 0 11.43 -2.29 0 -3.59 -5.7c-0.23,-0.36 -0.44,-0.72 -0.64,-1.07 -0.2,-0.35 -0.42,-0.75 -0.65,-1.2 -0.23,-0.45 -0.51,-0.98 -0.84,-1.61l0.29 0c0.03,0.56 0.06,1.08 0.08,1.58 0.03,0.5 0.05,0.94 0.06,1.34 0.02,0.39 0.02,0.71 0.02,0.95l0 5.72 -2.06 0z"/>
  <polygon id="16" class="fil0" points="105.4,30.33 105.41,41.76 103.39,41.76 103.38,30.33 "/>
  <path id="17" class="fil0" d="M111.03 41.76l-4.08 -11.43 2.22 0 2.04 5.98c0.19,0.58 0.39,1.26 0.61,2.03 0.22,0.77 0.46,1.64 0.72,2.62l-0.42 0c0.25,-1 0.48,-1.88 0.69,-2.64 0.21,-0.76 0.41,-1.43 0.59,-2.01l1.98 -5.98 2.21 0 -4.01 11.43 -2.56 0z"/>
  <polygon id="18" class="fil0" points="119.14,41.76 119.14,30.33 126.54,30.33 126.54,32.03 121.16,32.03 121.16,35.15 126.14,35.15 126.15,36.83 121.16,36.83 121.16,40.06 126.57,40.06 126.58,41.76 "/>
  <path id="19" class="fil0" d="M128.64 41.76l0 -11.43 4.27 0c0.87,0 1.61,0.15 2.21,0.46 0.59,0.31 1.05,0.73 1.35,1.28 0.3,0.55 0.46,1.18 0.46,1.91 0,0.73 -0.15,1.36 -0.46,1.9 -0.31,0.54 -0.76,0.95 -1.36,1.24 -0.6,0.29 -1.34,0.44 -2.23,0.44l-3.05 0 0 -1.68 2.78 0c0.52,0 0.95,-0.07 1.28,-0.22 0.33,-0.15 0.57,-0.36 0.73,-0.64 0.16,-0.28 0.24,-0.62 0.24,-1.03 0,-0.41 -0.08,-0.76 -0.24,-1.06 -0.16,-0.29 -0.4,-0.51 -0.73,-0.67 -0.33,-0.16 -0.76,-0.24 -1.29,-0.24l-1.93 0 0 9.74 -2.03 0zm6.44 0l-2.77 -5.18 2.21 0 2.83 5.18 -2.27 0z"/>
  <path id="20" class="fil0" d="M142.89 41.94c-0.88,0 -1.65,-0.14 -2.3,-0.41 -0.65,-0.28 -1.16,-0.68 -1.53,-1.2 -0.36,-0.53 -0.56,-1.16 -0.59,-1.91l2 0c0.04,0.4 0.16,0.73 0.38,1 0.22,0.26 0.5,0.46 0.86,0.6 0.36,0.13 0.75,0.2 1.17,0.2 0.46,0 0.86,-0.07 1.2,-0.21 0.35,-0.14 0.62,-0.34 0.82,-0.59 0.2,-0.25 0.3,-0.54 0.3,-0.88 0,-0.3 -0.09,-0.55 -0.26,-0.75 -0.17,-0.19 -0.42,-0.36 -0.73,-0.49 -0.31,-0.13 -0.67,-0.25 -1.09,-0.36l-1.3 -0.34c-0.95,-0.25 -1.69,-0.62 -2.23,-1.12 -0.54,-0.5 -0.8,-1.15 -0.8,-1.95 0,-0.67 0.18,-1.27 0.54,-1.77 0.36,-0.5 0.86,-0.9 1.49,-1.17 0.63,-0.28 1.34,-0.42 2.14,-0.42 0.81,0 1.52,0.14 2.13,0.42 0.61,0.28 1.09,0.67 1.44,1.16 0.35,0.5 0.53,1.06 0.54,1.69l-1.96 0c-0.06,-0.49 -0.28,-0.88 -0.67,-1.15 -0.39,-0.27 -0.89,-0.41 -1.51,-0.41 -0.44,0 -0.81,0.07 -1.12,0.2 -0.31,0.13 -0.55,0.31 -0.72,0.54 -0.17,0.23 -0.25,0.49 -0.25,0.78 0,0.33 0.1,0.59 0.3,0.8 0.2,0.2 0.45,0.37 0.75,0.49 0.3,0.12 0.6,0.22 0.91,0.3l1.07 0.27c0.42,0.1 0.83,0.24 1.23,0.41 0.4,0.17 0.76,0.38 1.08,0.64 0.32,0.26 0.57,0.57 0.76,0.94 0.19,0.37 0.28,0.8 0.28,1.3 0,0.67 -0.17,1.26 -0.51,1.77 -0.34,0.51 -0.83,0.9 -1.48,1.19 -0.64,0.28 -1.42,0.42 -2.33,0.42z"/>
  <polygon id="21" class="fil0" points="151.12,30.33 151.13,41.76 149.11,41.76 149.1,30.33 "/>
  <polygon id="22" class="fil0" points="152.93,32.03 152.93,30.33 162.01,30.33 162.01,32.03 158.48,32.03 158.49,41.76 156.47,41.76 156.46,32.03 "/>
  <path id="23" class="fil0" d="M167.46 41.76l0 -4.43 -4.22 -7 2.37 0 2.05 3.61c0.22,0.38 0.41,0.75 0.58,1.11 0.17,0.36 0.34,0.8 0.52,1.32l-0.54 0c0.18,-0.53 0.35,-0.97 0.52,-1.33 0.17,-0.36 0.35,-0.73 0.56,-1.1l2.01 -3.61 2.35 0 -4.18 7 0 4.43 -2.02 0z"/>
  <g id="_2740895546384">
   <polygon class="fil0" points="43.7,41.98 52.95,41.98 52.95,0 43.7,0 "/>
   <polygon class="fil0" points="54.61,41.98 63.87,41.98 63.87,0 54.61,0 "/>
   <polygon class="fil0" points="10.91,9.26 20.16,9.26 20.16,0 10.91,0 "/>
   <polygon class="fil0" points="-0,41.98 9.25,41.98 9.25,0 -0,0 "/>
   <polygon class="fil0" points="10.91,41.99 20.16,41.99 20.16,15.23 10.91,15.23 "/>
   <polygon class="fil0" points="21.89,20.21 31.14,20.21 31.14,0 21.89,0 "/>
   <polygon class="fil0" points="21.89,41.99 31.14,41.99 31.14,32.73 21.89,32.73 "/>
   <polygon class="fil0" points="32.79,9.25 42.04,9.25 42.04,0 32.79,0 "/>
   <polygon class="fil0" points="32.79,41.99 42.04,41.99 42.04,21.78 32.79,21.78 "/>
  </g>
 </g>
</svg>
